<svg xmlns="http://www.w3.org/2000/svg" height="18" viewBox="0 0 18 18" width="18">
  <defs>
    <style>
      .fill {
        fill: #464646;
      }
    </style>
  </defs>
  <title>S Annotate 18 N</title>
  <rect id="Canvas" fill="#ff13dc" opacity="0" width="18" height="18" />
  <path d="M12,16v-3.5c0-.28.22-.5.5-.5h3.5c.02.15-.03.31-.13.43l-3.45,3.45c-.12.1-.27.14-.43.13Z" style="fill: #464646;"/>
  <path d="M15.5,2H2.5c-.28,0-.5.22-.5.5v13c0,.28.22.5.5.5h8.5v-4c0-.55.45-1,1-1h4V2.5c0-.28-.22-.5-.5-.5ZM13,6H5v-1h8v1Z" style="fill: #464646;"/>
</svg>