<svg width="3800" height="1575" viewBox="0 0 3800 1575" fill="none" xmlns="http://www.w3.org/2000/svg">
<g clip-path="url(#clip0_1_126)">
<mask id="mask0_1_126" style="mask-type:luminance" maskUnits="userSpaceOnUse" x="0" y="0" width="3800" height="1575">
<path d="M3800 0H0V1575H3800V0Z" fill="white"/>
</mask>
<g mask="url(#mask0_1_126)">
<path d="M3800 0H0V1575H3800V0Z" fill="white"/>
<path d="M2239 396H1961C1949.95 396 1941 404.954 1941 416V560C1941 571.046 1949.95 580 1961 580H2239C2250.05 580 2259 571.046 2259 560V416C2259 404.954 2250.05 396 2239 396Z" fill="#DE3C82"/>
<path d="M2047.1 497.76H2037.86L2035.94 503.68C2035.86 503.88 2035.74 504 2035.5 504H2030.86C2030.58 504 2030.5 503.84 2030.54 503.6L2038.54 480.52C2038.7 480.08 2038.86 479.6 2038.94 478.08C2038.94 477.92 2039.06 477.8 2039.18 477.8H2045.58C2045.78 477.8 2045.86 477.84 2045.9 478.04L2054.98 503.64C2055.06 503.84 2055.02 504 2054.78 504H2049.58C2049.34 504 2049.22 503.92 2049.14 503.72L2047.1 497.76ZM2039.3 492.76H2045.62C2044.82 490.12 2043.22 485.28 2042.46 482.44H2042.42C2041.78 485.12 2040.34 489.52 2039.3 492.76ZM2071.43 499.28V503.44C2071.43 503.64 2071.39 503.72 2071.23 503.76C2069.95 504.28 2068.31 504.4 2066.75 504.4C2060.27 504.4 2056.19 500.04 2056.19 494.16C2056.19 488.16 2060.71 483.72 2067.51 483.72C2069.47 483.72 2070.55 483.92 2071.19 484.16C2071.39 484.24 2071.43 484.36 2071.43 484.6L2071.39 488.72C2071.39 489 2071.23 489.04 2071.07 489C2070.31 488.72 2069.19 488.52 2067.71 488.52C2064.35 488.52 2061.91 490.36 2061.91 493.96C2061.91 498.12 2064.99 499.48 2067.79 499.48C2069.19 499.48 2070.43 499.32 2071.11 499.12C2071.35 499.04 2071.43 499.12 2071.43 499.28ZM2088.85 499.28V503.44C2088.85 503.64 2088.81 503.72 2088.65 503.76C2087.37 504.28 2085.73 504.4 2084.17 504.4C2077.69 504.4 2073.61 500.04 2073.61 494.16C2073.61 488.16 2078.13 483.72 2084.93 483.72C2086.89 483.72 2087.97 483.92 2088.61 484.16C2088.81 484.24 2088.85 484.36 2088.85 484.6L2088.81 488.72C2088.81 489 2088.65 489.04 2088.49 489C2087.73 488.72 2086.61 488.52 2085.13 488.52C2081.77 488.52 2079.33 490.36 2079.33 493.96C2079.33 498.12 2082.41 499.48 2085.21 499.48C2086.61 499.48 2087.85 499.32 2088.53 499.12C2088.77 499.04 2088.85 499.12 2088.85 499.28ZM2100.99 483.72C2107.43 483.72 2110.75 488.56 2110.75 493.96C2110.75 500.24 2106.67 504.4 2100.91 504.4C2094.07 504.4 2091.03 499.24 2091.03 494.08C2091.03 488.4 2094.83 483.72 2100.99 483.72ZM2100.75 488.36C2098.43 488.36 2096.67 490.44 2096.67 494C2096.67 497.52 2098.31 499.76 2100.99 499.76C2103.31 499.76 2105.07 497.76 2105.07 494.08C2105.07 490.96 2103.79 488.36 2100.75 488.36ZM2131.66 484.44V499.56C2131.66 501.6 2131.82 502.84 2131.9 503.68C2131.94 503.92 2131.82 504 2131.54 504H2127.3C2126.98 504 2126.9 503.92 2126.82 503.72C2126.74 503.36 2126.62 502.84 2126.58 502.48C2124.82 504 2122.82 504.4 2121.1 504.4C2117.1 504.4 2114.34 502.2 2114.34 496.68V484.44C2114.34 484.16 2114.42 484.12 2114.7 484.12H2119.58C2119.82 484.12 2119.86 484.2 2119.86 484.44V496.04C2119.86 498.2 2120.78 499.6 2122.98 499.6C2124.3 499.6 2125.22 499.2 2126.1 498.44V484.44C2126.1 484.2 2126.22 484.12 2126.5 484.12H2131.34C2131.62 484.12 2131.66 484.2 2131.66 484.44ZM2136.49 503.64V488.76C2136.49 487.4 2136.41 485.32 2136.33 484.44C2136.29 484.24 2136.37 484.12 2136.61 484.12H2140.81C2141.13 484.12 2141.25 484.24 2141.33 484.44C2141.49 484.8 2141.57 485.2 2141.65 485.76C2143.33 484.4 2145.21 483.72 2147.33 483.72C2150.41 483.72 2154.05 485.32 2154.05 491.76V503.64C2154.05 503.88 2153.97 504 2153.69 504H2148.89C2148.61 504 2148.49 503.88 2148.49 503.64V492.24C2148.49 489.84 2147.45 488.56 2145.37 488.56C2144.01 488.56 2142.89 489.04 2142.05 489.8V503.68C2142.05 503.88 2141.93 504 2141.69 504H2136.85C2136.57 504 2136.49 503.88 2136.49 503.64ZM2168.64 500V503.32C2168.64 503.56 2168.6 503.76 2168.36 503.84C2167.24 504.24 2166.2 504.4 2164.8 504.4C2161.32 504.4 2159.28 502.68 2159.28 498.68V488.76H2156.88C2156.64 488.72 2156.56 488.64 2156.56 488.4V484.48C2156.56 484.2 2156.64 484.12 2156.92 484.12H2159.32C2159.36 482.76 2159.52 480.4 2159.72 479.28C2159.76 479.08 2159.88 478.96 2160.08 478.92L2164.76 478.32C2164.96 478.28 2165.08 478.28 2165.08 478.56C2164.96 479.8 2164.88 482.16 2164.88 484.12H2168.56C2168.8 484.12 2168.88 484.2 2168.88 484.44V488.48C2168.88 488.68 2168.8 488.72 2168.6 488.76H2164.84V497.32C2164.84 499.08 2165.36 499.88 2167 499.88C2167.48 499.88 2167.88 499.8 2168.36 499.72C2168.52 499.72 2168.64 499.76 2168.64 500Z" fill="white"/>
<path d="M2239 99H1961C1949.95 99 1941 107.954 1941 119V263C1941 274.046 1949.95 283 1961 283H2239C2250.05 283 2259 274.046 2259 263V119C2259 107.954 2250.05 99 2239 99Z" fill="#DE3C82"/>
<path d="M1987.78 197L1983.82 196.8C1983.54 196.8 1983.46 196.68 1983.46 196.44V192.32C1983.46 192.12 1983.58 192.08 1983.78 192.08H1992.98C1993.3 192.08 1993.34 192.16 1993.34 192.4V205.64C1993.38 205.88 1993.3 205.96 1993.06 206.04C1990.14 207.08 1987.34 207.4 1984.98 207.4C1975.5 207.4 1970.9 201.4 1970.9 194.08C1970.9 185.8 1976.82 180.4 1985.82 180.4C1988.46 180.4 1990.86 180.68 1992.3 181.36C1992.5 181.4 1992.58 181.56 1992.58 181.88V186.24C1992.58 186.52 1992.42 186.6 1992.22 186.48C1990.46 185.6 1988.38 185.36 1985.98 185.32C1979.74 185.24 1976.62 188.52 1976.62 193.92C1976.62 198.8 1979.58 202.56 1985.26 202.56C1986.42 202.56 1987.1 202.48 1987.78 202.28V197ZM1998.07 201.88V178.96C1998.07 178.76 1998.15 178.64 1998.47 178.64H2003.23C2003.51 178.64 2003.63 178.76 2003.63 178.96V201.36C2003.63 202.48 2003.99 202.88 2004.95 202.88C2005.27 202.88 2005.31 202.88 2005.67 202.84C2005.83 202.84 2005.87 202.92 2005.87 203.12V206.56C2005.87 206.88 2005.83 206.96 2005.59 207.04C2005.11 207.24 2004.35 207.4 2003.11 207.4C2000.23 207.4 1998.07 206.32 1998.07 201.88ZM2017.89 186.72C2024.33 186.72 2027.65 191.56 2027.65 196.96C2027.65 203.24 2023.57 207.4 2017.81 207.4C2010.97 207.4 2007.93 202.24 2007.93 197.08C2007.93 191.4 2011.73 186.72 2017.89 186.72ZM2017.65 191.36C2015.33 191.36 2013.57 193.44 2013.57 197C2013.57 200.52 2015.21 202.76 2017.89 202.76C2020.21 202.76 2021.97 200.76 2021.97 197.08C2021.97 193.96 2020.69 191.36 2017.65 191.36ZM2031.52 178.64H2036.4C2036.72 178.64 2036.8 178.68 2036.8 178.96V187.16C2037.84 186.88 2038.96 186.72 2040.16 186.72C2046.04 186.72 2049.76 190.88 2049.76 196.24C2049.76 203.72 2043.84 207.4 2037.76 207.4C2035.64 207.4 2033.52 207.12 2031.48 206.48C2031.36 206.44 2031.24 206.24 2031.24 206.08V178.92C2031.24 178.72 2031.32 178.64 2031.52 178.64ZM2044.08 196.76C2044.08 193.12 2041.96 191.44 2039.16 191.44C2037.88 191.44 2037.32 191.64 2036.8 191.76V202.6C2037.28 202.72 2037.8 202.76 2038.28 202.76C2041.32 202.76 2044.08 200.92 2044.08 196.76ZM2063.54 202.72V198.44C2062.9 198.36 2062.34 198.32 2061.54 198.32C2058.7 198.32 2057.54 199.24 2057.54 200.68C2057.54 202 2058.54 203.08 2061.06 203.08C2061.98 203.08 2062.78 202.96 2063.54 202.72ZM2068.94 194.84V202.56C2068.94 203.6 2068.94 204.44 2069.02 205.4C2069.02 205.48 2069.02 205.56 2068.94 205.6C2065.42 206.96 2063.1 207.4 2060.22 207.4C2055.78 207.4 2052.14 205.36 2052.14 200.72C2052.14 196.48 2055.86 194.24 2061.18 194.24C2062.26 194.24 2063.18 194.24 2063.54 194.32V194.04C2063.54 193.28 2063.06 191.52 2059.7 191.52C2057.7 191.52 2055.94 191.92 2054.42 192.6C2054.26 192.68 2054.06 192.6 2054.06 192.4V188.36C2054.06 188.16 2054.1 188.04 2054.34 187.96C2056.1 187.12 2058.38 186.72 2060.62 186.72C2066.38 186.72 2068.94 190.28 2068.94 194.84ZM2073.7 201.88V178.96C2073.7 178.76 2073.78 178.64 2074.1 178.64H2078.86C2079.14 178.64 2079.26 178.76 2079.26 178.96V201.36C2079.26 202.48 2079.62 202.88 2080.58 202.88C2080.9 202.88 2080.94 202.88 2081.3 202.84C2081.46 202.84 2081.5 202.92 2081.5 203.12V206.56C2081.5 206.88 2081.46 206.96 2081.22 207.04C2080.74 207.24 2079.98 207.4 2078.74 207.4C2075.86 207.4 2073.7 206.32 2073.7 201.88ZM2108.05 200.76H2098.81L2096.89 206.68C2096.81 206.88 2096.69 207 2096.45 207H2091.81C2091.53 207 2091.45 206.84 2091.49 206.6L2099.49 183.52C2099.65 183.08 2099.81 182.6 2099.89 181.08C2099.89 180.92 2100.01 180.8 2100.13 180.8H2106.53C2106.73 180.8 2106.81 180.84 2106.85 181.04L2115.93 206.64C2116.01 206.84 2115.97 207 2115.73 207H2110.53C2110.29 207 2110.17 206.92 2110.09 206.72L2108.05 200.76ZM2100.25 195.76H2106.57C2105.77 193.12 2104.17 188.28 2103.41 185.44H2103.37C2102.73 188.12 2101.29 192.52 2100.25 195.76ZM2132.39 202.28V206.44C2132.39 206.64 2132.35 206.72 2132.19 206.76C2130.91 207.28 2129.27 207.4 2127.71 207.4C2121.23 207.4 2117.15 203.04 2117.15 197.16C2117.15 191.16 2121.67 186.72 2128.47 186.72C2130.43 186.72 2131.51 186.92 2132.15 187.16C2132.35 187.24 2132.39 187.36 2132.39 187.6L2132.35 191.72C2132.35 192 2132.19 192.04 2132.03 192C2131.27 191.72 2130.15 191.52 2128.67 191.52C2125.31 191.52 2122.87 193.36 2122.87 196.96C2122.87 201.12 2125.95 202.48 2128.75 202.48C2130.15 202.48 2131.39 202.32 2132.07 202.12C2132.31 202.04 2132.39 202.12 2132.39 202.28ZM2149.81 202.28V206.44C2149.81 206.64 2149.77 206.72 2149.61 206.76C2148.33 207.28 2146.69 207.4 2145.13 207.4C2138.65 207.4 2134.57 203.04 2134.57 197.16C2134.57 191.16 2139.09 186.72 2145.89 186.72C2147.85 186.72 2148.93 186.92 2149.57 187.16C2149.77 187.24 2149.81 187.36 2149.81 187.6L2149.77 191.72C2149.77 192 2149.61 192.04 2149.45 192C2148.69 191.72 2147.57 191.52 2146.09 191.52C2142.73 191.52 2140.29 193.36 2140.29 196.96C2140.29 201.12 2143.37 202.48 2146.17 202.48C2147.57 202.48 2148.81 202.32 2149.49 202.12C2149.73 202.04 2149.81 202.12 2149.81 202.28ZM2161.95 186.72C2168.39 186.72 2171.71 191.56 2171.71 196.96C2171.71 203.24 2167.63 207.4 2161.87 207.4C2155.03 207.4 2151.99 202.24 2151.99 197.08C2151.99 191.4 2155.79 186.72 2161.95 186.72ZM2161.71 191.36C2159.39 191.36 2157.63 193.44 2157.63 197C2157.63 200.52 2159.27 202.76 2161.95 202.76C2164.27 202.76 2166.03 200.76 2166.03 197.08C2166.03 193.96 2164.75 191.36 2161.71 191.36ZM2192.62 187.44V202.56C2192.62 204.6 2192.78 205.84 2192.86 206.68C2192.9 206.92 2192.78 207 2192.5 207H2188.26C2187.94 207 2187.86 206.92 2187.78 206.72C2187.7 206.36 2187.58 205.84 2187.54 205.48C2185.78 207 2183.78 207.4 2182.06 207.4C2178.06 207.4 2175.3 205.2 2175.3 199.68V187.44C2175.3 187.16 2175.38 187.12 2175.66 187.12H2180.54C2180.78 187.12 2180.82 187.2 2180.82 187.44V199.04C2180.82 201.2 2181.74 202.6 2183.94 202.6C2185.26 202.6 2186.18 202.2 2187.06 201.44V187.44C2187.06 187.2 2187.18 187.12 2187.46 187.12H2192.3C2192.58 187.12 2192.62 187.2 2192.62 187.44ZM2197.45 206.64V191.76C2197.45 190.4 2197.37 188.32 2197.29 187.44C2197.25 187.24 2197.33 187.12 2197.57 187.12H2201.77C2202.09 187.12 2202.21 187.24 2202.29 187.44C2202.45 187.8 2202.53 188.2 2202.61 188.76C2204.29 187.4 2206.17 186.72 2208.29 186.72C2211.37 186.72 2215.01 188.32 2215.01 194.76V206.64C2215.01 206.88 2214.93 207 2214.65 207H2209.85C2209.57 207 2209.45 206.88 2209.45 206.64V195.24C2209.45 192.84 2208.41 191.56 2206.33 191.56C2204.97 191.56 2203.85 192.04 2203.01 192.8V206.68C2203.01 206.88 2202.89 207 2202.65 207H2197.81C2197.53 207 2197.45 206.88 2197.45 206.64ZM2229.59 203V206.32C2229.59 206.56 2229.55 206.76 2229.31 206.84C2228.19 207.24 2227.15 207.4 2225.75 207.4C2222.27 207.4 2220.23 205.68 2220.23 201.68V191.76H2217.83C2217.59 191.72 2217.51 191.64 2217.51 191.4V187.48C2217.51 187.2 2217.59 187.12 2217.87 187.12H2220.27C2220.31 185.76 2220.47 183.4 2220.67 182.28C2220.71 182.08 2220.83 181.96 2221.03 181.92L2225.71 181.32C2225.91 181.28 2226.03 181.28 2226.03 181.56C2225.91 182.8 2225.83 185.16 2225.83 187.12H2229.51C2229.75 187.12 2229.83 187.2 2229.83 187.44V191.48C2229.83 191.68 2229.75 191.72 2229.55 191.76H2225.79V200.32C2225.79 202.08 2226.31 202.88 2227.95 202.88C2228.43 202.88 2228.83 202.8 2229.31 202.72C2229.47 202.72 2229.59 202.76 2229.59 203Z" fill="white"/>
<path d="M1517 693H1239C1227.95 693 1219 701.954 1219 713V857C1219 868.046 1227.95 877 1239 877H1517C1528.05 877 1537 868.046 1537 857V713C1537 701.954 1528.05 693 1517 693Z" fill="#DE3C82"/>
<path d="M1264.24 800.64V775.24C1264.24 775 1264.28 774.88 1264.48 774.84C1265.88 774.8 1269.8 774.72 1272.64 774.72C1281.16 774.72 1282.56 779.08 1282.56 781.72C1282.56 784.44 1281.12 786.08 1280.12 786.8C1281.6 787.56 1283.84 789.28 1283.84 792.96C1283.84 797.84 1279.6 801.08 1272.72 801.08C1268.84 801.08 1266 801.04 1264.52 801C1264.32 800.96 1264.24 800.84 1264.24 800.64ZM1269.68 789.8V796.36C1270.52 796.4 1271.4 796.44 1272.6 796.44C1276.04 796.48 1278.08 795.36 1278.08 793.04C1278.08 791.68 1277.52 790.52 1275.64 790.04C1275 789.88 1274.12 789.8 1273.12 789.8H1269.68ZM1269.68 779.48V785.04H1272.4C1273.76 785.04 1275.36 785.16 1275.96 785.24C1276.68 784.6 1277.16 783.84 1277.16 782.52C1277.16 780.48 1275.64 779.4 1272.6 779.4C1271.36 779.4 1270.56 779.44 1269.68 779.48ZM1304.56 781.44V796.56C1304.56 798.6 1304.72 799.84 1304.8 800.68C1304.84 800.92 1304.72 801 1304.44 801H1300.2C1299.88 801 1299.8 800.92 1299.72 800.72C1299.64 800.36 1299.52 799.84 1299.48 799.48C1297.72 801 1295.72 801.4 1294 801.4C1290 801.4 1287.24 799.2 1287.24 793.68V781.44C1287.24 781.16 1287.32 781.12 1287.6 781.12H1292.48C1292.72 781.12 1292.76 781.2 1292.76 781.44V793.04C1292.76 795.2 1293.68 796.6 1295.88 796.6C1297.2 796.6 1298.12 796.2 1299 795.44V781.44C1299 781.2 1299.12 781.12 1299.4 781.12H1304.24C1304.52 781.12 1304.56 781.2 1304.56 781.44ZM1307.34 781.12H1312.74C1312.9 781.12 1313.06 781.2 1313.14 781.4C1315.42 788.24 1316.62 792.4 1317.18 794.48C1318.46 790.24 1319.7 786.4 1321.26 781.4C1321.3 781.24 1321.46 781.12 1321.7 781.12H1326.46C1326.74 781.12 1326.78 781.28 1326.74 781.48C1323.86 790.44 1319.42 801.48 1316.46 808.32C1316.38 808.48 1316.26 808.6 1315.9 808.6L1310.86 809C1310.62 809 1310.54 808.88 1310.66 808.64C1311.82 806.24 1313.02 803.6 1314.3 800.6C1314.42 800.32 1314.46 800.2 1314.34 799.92C1313.22 797.16 1309.46 787.72 1307.1 781.44C1306.98 781.24 1307.14 781.12 1307.34 781.12ZM1329.5 800.64V781.44C1329.5 781.24 1329.58 781.12 1329.82 781.12H1334.74C1334.98 781.12 1335.06 781.2 1335.06 781.44V800.64C1335.06 800.88 1335.02 801 1334.7 801H1329.9C1329.62 801 1329.5 800.88 1329.5 800.64ZM1332.3 779C1330.42 779 1329.22 777.76 1329.22 775.88C1329.22 774.08 1330.54 772.8 1332.34 772.8C1334.26 772.8 1335.42 774.08 1335.42 775.88C1335.42 777.76 1334.18 779 1332.3 779ZM1339.7 800.64V785.76C1339.7 784.4 1339.62 782.32 1339.54 781.44C1339.5 781.24 1339.58 781.12 1339.82 781.12H1344.02C1344.34 781.12 1344.46 781.24 1344.54 781.44C1344.7 781.8 1344.78 782.2 1344.86 782.76C1346.54 781.4 1348.42 780.72 1350.54 780.72C1353.62 780.72 1357.26 782.32 1357.26 788.76V800.64C1357.26 800.88 1357.18 801 1356.9 801H1352.1C1351.82 801 1351.7 800.88 1351.7 800.64V789.24C1351.7 786.84 1350.66 785.56 1348.58 785.56C1347.22 785.56 1346.1 786.04 1345.26 786.8V800.68C1345.26 800.88 1345.14 801 1344.9 801H1340.06C1339.78 801 1339.7 800.88 1339.7 800.64ZM1370.94 801L1366.5 800.84C1365.62 801.48 1364.98 802.56 1364.98 802.96C1364.98 804.2 1366.74 805.56 1369.86 805.56C1373.42 805.56 1374.94 804.32 1374.94 803C1374.94 801.52 1373.18 801.12 1370.94 801ZM1368.9 784.72C1367.18 784.72 1366.1 785.72 1366.1 787.48C1366.1 789.04 1367.1 790.2 1368.94 790.2C1370.7 790.2 1371.7 789.24 1371.7 787.6C1371.7 785.92 1370.9 784.72 1368.9 784.72ZM1368.06 796.2L1372.18 796.36C1377.9 796.64 1380.02 798.96 1380.02 802.12C1380.02 806.28 1375.94 809.64 1369.5 809.64C1362.82 809.64 1359.9 806.32 1359.9 803.44C1359.9 802.16 1360.94 800.56 1363.58 798.36C1362.98 797.48 1362.7 796.4 1362.74 795.36C1362.74 794.44 1363.02 793.52 1363.46 792.72C1361.82 791.68 1360.7 790.04 1360.7 787.56C1360.7 783.72 1363.7 780.72 1368.9 780.72C1370.38 780.72 1371.78 780.88 1372.7 781.04C1373.06 781.12 1373.38 781.12 1373.66 781.12H1379.14C1379.34 781.12 1379.42 781.2 1379.42 781.4V785.12C1379.42 785.32 1379.34 785.4 1379.14 785.4C1378.54 785.4 1377.22 785.28 1376.38 785.2C1376.7 785.76 1376.98 786.6 1376.98 787.8C1376.98 792.04 1373.5 794.16 1369.06 794.16C1368.62 794.16 1368.14 794.12 1367.7 794.08C1367.58 794.4 1367.54 794.8 1367.62 795.16C1367.66 795.52 1367.82 795.88 1368.06 796.2ZM1407.45 791L1403.49 790.8C1403.21 790.8 1403.13 790.68 1403.13 790.44V786.32C1403.13 786.12 1403.25 786.08 1403.45 786.08H1412.65C1412.97 786.08 1413.01 786.16 1413.01 786.4V799.64C1413.05 799.88 1412.97 799.96 1412.73 800.04C1409.81 801.08 1407.01 801.4 1404.65 801.4C1395.17 801.4 1390.57 795.4 1390.57 788.08C1390.57 779.8 1396.49 774.4 1405.49 774.4C1408.13 774.4 1410.53 774.68 1411.97 775.36C1412.17 775.4 1412.25 775.56 1412.25 775.88V780.24C1412.25 780.52 1412.09 780.6 1411.89 780.48C1410.13 779.6 1408.05 779.36 1405.65 779.32C1399.41 779.24 1396.29 782.52 1396.29 787.92C1396.29 792.8 1399.25 796.56 1404.93 796.56C1406.09 796.56 1406.77 796.48 1407.45 796.28V791ZM1417.67 781.12H1422.03C1422.31 781.12 1422.43 781.24 1422.51 781.48C1422.71 782 1422.91 782.84 1422.95 783.72C1424.27 782.16 1426.47 780.72 1429.31 780.72C1429.55 780.72 1429.63 780.8 1429.63 781.04V785.96C1429.63 786.16 1429.55 786.24 1429.27 786.24C1426.39 786.12 1424.07 787 1423.23 787.96L1423.19 800.68C1423.19 800.92 1423.11 801 1422.83 801H1418.03C1417.71 801 1417.63 800.88 1417.63 800.64V786.84C1417.63 785.12 1417.59 782.8 1417.43 781.4C1417.43 781.2 1417.47 781.12 1417.67 781.12ZM1441.35 780.72C1447.79 780.72 1451.11 785.56 1451.11 790.96C1451.11 797.24 1447.03 801.4 1441.27 801.4C1434.43 801.4 1431.39 796.24 1431.39 791.08C1431.39 785.4 1435.19 780.72 1441.35 780.72ZM1441.11 785.36C1438.79 785.36 1437.03 787.44 1437.03 791C1437.03 794.52 1438.67 796.76 1441.35 796.76C1443.67 796.76 1445.43 794.76 1445.43 791.08C1445.43 787.96 1444.15 785.36 1441.11 785.36ZM1472.02 781.44V796.56C1472.02 798.6 1472.18 799.84 1472.26 800.68C1472.3 800.92 1472.18 801 1471.9 801H1467.66C1467.34 801 1467.26 800.92 1467.18 800.72C1467.1 800.36 1466.98 799.84 1466.94 799.48C1465.18 801 1463.18 801.4 1461.46 801.4C1457.46 801.4 1454.7 799.2 1454.7 793.68V781.44C1454.7 781.16 1454.78 781.12 1455.06 781.12H1459.94C1460.18 781.12 1460.22 781.2 1460.22 781.44V793.04C1460.22 795.2 1461.14 796.6 1463.34 796.6C1464.66 796.6 1465.58 796.2 1466.46 795.44V781.44C1466.46 781.2 1466.58 781.12 1466.86 781.12H1471.7C1471.98 781.12 1472.02 781.2 1472.02 781.44ZM1485.29 780.72C1492.25 780.72 1495.41 785.44 1495.41 790.44C1495.41 797.76 1489.41 801.4 1483.17 801.4C1482.97 801.4 1482.69 801.4 1482.41 801.36V808.16C1482.41 808.36 1482.37 808.48 1482.09 808.52C1480.45 808.68 1477.37 808.96 1477.13 809C1476.89 809 1476.85 808.92 1476.85 808.72V785.2C1476.85 784.64 1476.77 783.16 1476.73 782.56C1476.73 782.52 1476.73 782.4 1476.89 782.36C1478.93 781.68 1481.81 780.72 1485.29 780.72ZM1484.81 785.44C1483.89 785.44 1483.21 785.52 1482.41 785.76V796.68C1482.73 796.76 1483.33 796.76 1483.69 796.76C1486.45 796.76 1489.69 795.16 1489.69 790.8C1489.69 787.36 1487.93 785.44 1484.81 785.44Z" fill="white"/>
<path d="M1909 693H1631C1619.95 693 1611 701.954 1611 713V857C1611 868.046 1619.95 877 1631 877H1909C1920.05 877 1929 868.046 1929 857V713C1929 701.954 1920.05 693 1909 693Z" fill="#DE3C82"/>
<path d="M1677.66 774.4C1685.62 774.4 1690.1 780.44 1690.14 787.76C1690.18 795.92 1685.06 801.4 1677.58 801.4C1669.74 801.4 1665.1 795.64 1665.1 787.88C1665.1 780.4 1670.1 774.4 1677.66 774.4ZM1670.82 787.92C1670.82 792.76 1673.3 796.48 1677.78 796.48C1681.94 796.48 1684.42 793.08 1684.42 787.92C1684.38 782.6 1681.9 779.32 1677.58 779.32C1673.58 779.32 1670.82 782.44 1670.82 787.92ZM1702.43 780.72C1709.39 780.72 1712.55 785.44 1712.55 790.44C1712.55 797.76 1706.55 801.4 1700.31 801.4C1700.11 801.4 1699.83 801.4 1699.55 801.36V808.16C1699.55 808.36 1699.51 808.48 1699.23 808.52C1697.59 808.68 1694.51 808.96 1694.27 809C1694.03 809 1693.99 808.92 1693.99 808.72V785.2C1693.99 784.64 1693.91 783.16 1693.87 782.56C1693.87 782.52 1693.87 782.4 1694.03 782.36C1696.07 781.68 1698.95 780.72 1702.43 780.72ZM1701.95 785.44C1701.03 785.44 1700.35 785.52 1699.55 785.76V796.68C1699.87 796.76 1700.47 796.76 1700.83 796.76C1703.59 796.76 1706.83 795.16 1706.83 790.8C1706.83 787.36 1705.07 785.44 1701.95 785.44ZM1724.58 780.72C1731.54 780.72 1734.7 785.44 1734.7 790.44C1734.7 797.76 1728.7 801.4 1722.46 801.4C1722.26 801.4 1721.98 801.4 1721.7 801.36V808.16C1721.7 808.36 1721.66 808.48 1721.38 808.52C1719.74 808.68 1716.66 808.96 1716.42 809C1716.18 809 1716.14 808.92 1716.14 808.72V785.2C1716.14 784.64 1716.06 783.16 1716.02 782.56C1716.02 782.52 1716.02 782.4 1716.18 782.36C1718.22 781.68 1721.1 780.72 1724.58 780.72ZM1724.1 785.44C1723.18 785.44 1722.5 785.52 1721.7 785.76V796.68C1722.02 796.76 1722.62 796.76 1722.98 796.76C1725.74 796.76 1728.98 795.16 1728.98 790.8C1728.98 787.36 1727.22 785.44 1724.1 785.44ZM1747.24 780.72C1753.68 780.72 1757 785.56 1757 790.96C1757 797.24 1752.92 801.4 1747.16 801.4C1740.32 801.4 1737.28 796.24 1737.28 791.08C1737.28 785.4 1741.08 780.72 1747.24 780.72ZM1747 785.36C1744.68 785.36 1742.92 787.44 1742.92 791C1742.92 794.52 1744.56 796.76 1747.24 796.76C1749.56 796.76 1751.32 794.76 1751.32 791.08C1751.32 787.96 1750.04 785.36 1747 785.36ZM1760.63 781.12H1764.99C1765.27 781.12 1765.39 781.24 1765.47 781.48C1765.67 782 1765.87 782.84 1765.91 783.72C1767.23 782.16 1769.43 780.72 1772.27 780.72C1772.51 780.72 1772.59 780.8 1772.59 781.04V785.96C1772.59 786.16 1772.51 786.24 1772.23 786.24C1769.35 786.12 1767.03 787 1766.19 787.96L1766.15 800.68C1766.15 800.92 1766.07 801 1765.79 801H1760.99C1760.67 801 1760.59 800.88 1760.59 800.64V786.84C1760.59 785.12 1760.55 782.8 1760.39 781.4C1760.39 781.2 1760.43 781.12 1760.63 781.12ZM1786.84 797V800.32C1786.84 800.56 1786.8 800.76 1786.56 800.84C1785.44 801.24 1784.4 801.4 1783 801.4C1779.52 801.4 1777.48 799.68 1777.48 795.68V785.76H1775.08C1774.84 785.72 1774.76 785.64 1774.76 785.4V781.48C1774.76 781.2 1774.84 781.12 1775.12 781.12H1777.52C1777.56 779.76 1777.72 777.4 1777.92 776.28C1777.96 776.08 1778.08 775.96 1778.28 775.92L1782.96 775.32C1783.16 775.28 1783.28 775.28 1783.28 775.56C1783.16 776.8 1783.08 779.16 1783.08 781.12H1786.76C1787 781.12 1787.08 781.2 1787.08 781.44V785.48C1787.08 785.68 1787 785.72 1786.8 785.76H1783.04V794.32C1783.04 796.08 1783.56 796.88 1785.2 796.88C1785.68 796.88 1786.08 796.8 1786.56 796.72C1786.72 796.72 1786.84 796.76 1786.84 797ZM1807.25 781.44V796.56C1807.25 798.6 1807.41 799.84 1807.49 800.68C1807.53 800.92 1807.41 801 1807.13 801H1802.89C1802.57 801 1802.49 800.92 1802.41 800.72C1802.33 800.36 1802.21 799.84 1802.17 799.48C1800.41 801 1798.41 801.4 1796.69 801.4C1792.69 801.4 1789.93 799.2 1789.93 793.68V781.44C1789.93 781.16 1790.01 781.12 1790.29 781.12H1795.17C1795.41 781.12 1795.45 781.2 1795.45 781.44V793.04C1795.45 795.2 1796.37 796.6 1798.57 796.6C1799.89 796.6 1800.81 796.2 1801.69 795.44V781.44C1801.69 781.2 1801.81 781.12 1802.09 781.12H1806.93C1807.21 781.12 1807.25 781.2 1807.25 781.44ZM1812.08 800.64V785.76C1812.08 784.4 1812 782.32 1811.92 781.44C1811.88 781.24 1811.96 781.12 1812.2 781.12H1816.4C1816.72 781.12 1816.84 781.24 1816.92 781.44C1817.08 781.8 1817.16 782.2 1817.24 782.76C1818.92 781.4 1820.8 780.72 1822.92 780.72C1826 780.72 1829.64 782.32 1829.64 788.76V800.64C1829.64 800.88 1829.56 801 1829.28 801H1824.48C1824.2 801 1824.08 800.88 1824.08 800.64V789.24C1824.08 786.84 1823.04 785.56 1820.96 785.56C1819.6 785.56 1818.48 786.04 1817.64 786.8V800.68C1817.64 800.88 1817.52 801 1817.28 801H1812.44C1812.16 801 1812.08 800.88 1812.08 800.64ZM1834.42 800.64V781.44C1834.42 781.24 1834.5 781.12 1834.74 781.12H1839.66C1839.9 781.12 1839.98 781.2 1839.98 781.44V800.64C1839.98 800.88 1839.94 801 1839.62 801H1834.82C1834.54 801 1834.42 800.88 1834.42 800.64ZM1837.22 779C1835.34 779 1834.14 777.76 1834.14 775.88C1834.14 774.08 1835.46 772.8 1837.26 772.8C1839.18 772.8 1840.34 774.08 1840.34 775.88C1840.34 777.76 1839.1 779 1837.22 779ZM1855 797V800.32C1855 800.56 1854.96 800.76 1854.72 800.84C1853.6 801.24 1852.56 801.4 1851.16 801.4C1847.68 801.4 1845.64 799.68 1845.64 795.68V785.76H1843.24C1843 785.72 1842.92 785.64 1842.92 785.4V781.48C1842.92 781.2 1843 781.12 1843.28 781.12H1845.68C1845.72 779.76 1845.88 777.4 1846.08 776.28C1846.12 776.08 1846.24 775.96 1846.44 775.92L1851.12 775.32C1851.32 775.28 1851.44 775.28 1851.44 775.56C1851.32 776.8 1851.24 779.16 1851.24 781.12H1854.92C1855.16 781.12 1855.24 781.2 1855.24 781.44V785.48C1855.24 785.68 1855.16 785.72 1854.96 785.76H1851.2V794.32C1851.2 796.08 1851.72 796.88 1853.36 796.88C1853.84 796.88 1854.24 796.8 1854.72 796.72C1854.88 796.72 1855 796.76 1855 797ZM1856.99 781.12H1862.39C1862.55 781.12 1862.71 781.2 1862.79 781.4C1865.07 788.24 1866.27 792.4 1866.83 794.48C1868.11 790.24 1869.35 786.4 1870.91 781.4C1870.95 781.24 1871.11 781.12 1871.35 781.12H1876.11C1876.39 781.12 1876.43 781.28 1876.39 781.48C1873.51 790.44 1869.07 801.48 1866.11 808.32C1866.03 808.48 1865.91 808.6 1865.55 808.6L1860.51 809C1860.27 809 1860.19 808.88 1860.31 808.64C1861.47 806.24 1862.67 803.6 1863.95 800.6C1864.07 800.32 1864.11 800.2 1863.99 799.92C1862.87 797.16 1859.11 787.72 1856.75 781.44C1856.63 781.24 1856.79 781.12 1856.99 781.12Z" fill="white"/>
<path d="M2631 693H2353C2341.95 693 2333 701.954 2333 713V857C2333 868.046 2341.95 877 2353 877H2631C2642.05 877 2651 868.046 2651 857V713C2651 701.954 2642.05 693 2631 693Z" fill="#4146CA"/>
<path d="M2631 694H2353C2342.51 694 2334 702.507 2334 713V857C2334 867.493 2342.51 876 2353 876H2631C2641.49 876 2650 867.493 2650 857V713C2650 702.507 2641.49 694 2631 694Z" stroke="#707070" stroke-width="2"/>
<path d="M2434.88 800.68V775.16C2434.88 774.92 2434.92 774.84 2435.12 774.84C2436.76 774.8 2439.92 774.72 2442.96 774.72C2451.04 774.72 2453.84 779.2 2453.84 783.56C2453.84 790.04 2448.84 792.8 2442.68 792.8C2441.6 792.8 2441.36 792.8 2440.4 792.8V800.68C2440.4 800.88 2440.32 801 2440.08 801H2435.16C2434.96 801 2434.88 800.88 2434.88 800.68ZM2440.4 779.64V787.88C2441.08 787.92 2441.52 787.92 2442.64 787.92C2445.8 787.92 2448.32 786.96 2448.32 783.68C2448.32 781.16 2446.6 779.56 2443.12 779.56C2441.84 779.56 2440.76 779.6 2440.4 779.64ZM2469.61 792.52H2461.81C2462.01 794.8 2463.61 796.68 2467.53 796.68C2469.33 796.68 2470.93 796.4 2472.45 795.76C2472.57 795.68 2472.69 795.72 2472.69 795.96V799.76C2472.69 800.04 2472.61 800.16 2472.41 800.24C2470.81 801 2469.05 801.4 2466.29 801.4C2458.77 801.4 2456.13 796.24 2456.13 791.28C2456.13 785.76 2459.53 780.72 2465.81 780.72C2471.85 780.72 2474.25 785.4 2474.25 789.36C2474.25 790.6 2474.17 791.6 2474.05 792.04C2474.01 792.24 2473.93 792.32 2473.73 792.36C2473.21 792.44 2471.69 792.52 2469.61 792.52ZM2461.77 788.64H2467.01C2468.29 788.64 2468.85 788.6 2469.01 788.56C2469.01 788.48 2469.01 788.32 2469.01 788.28C2469.01 787.32 2468.25 785.12 2465.61 785.12C2463.09 785.12 2462.01 787 2461.77 788.64ZM2477.84 781.12H2482.2C2482.48 781.12 2482.6 781.24 2482.68 781.48C2482.88 782 2483.08 782.84 2483.12 783.72C2484.44 782.16 2486.64 780.72 2489.48 780.72C2489.72 780.72 2489.8 780.8 2489.8 781.04V785.96C2489.8 786.16 2489.72 786.24 2489.44 786.24C2486.56 786.12 2484.24 787 2483.4 787.96L2483.36 800.68C2483.36 800.92 2483.28 801 2483 801H2478.2C2477.88 801 2477.8 800.88 2477.8 800.64V786.84C2477.8 785.12 2477.76 782.8 2477.6 781.4C2477.6 781.2 2477.64 781.12 2477.84 781.12ZM2504.79 786.32C2503.47 785.64 2501.43 785.16 2499.63 785.16C2497.75 785.16 2497.15 785.84 2497.15 786.52C2497.15 787.2 2497.67 787.72 2499.99 788.6C2504.83 790.36 2506.35 792.24 2506.35 795.08C2506.35 798.88 2503.39 801.4 2498.11 801.4C2495.67 801.4 2493.55 800.96 2492.31 800.28C2492.11 800.16 2492.03 800.04 2492.03 799.84V795.52C2492.03 795.28 2492.19 795.16 2492.35 795.28C2494.19 796.44 2496.43 796.88 2498.23 796.88C2500.11 796.88 2500.95 796.36 2500.95 795.52C2500.95 794.76 2500.27 794.2 2497.91 793.32C2493.39 791.64 2491.91 789.72 2491.91 786.84C2491.91 783.72 2494.43 780.72 2499.71 780.72C2502.07 780.72 2503.91 781.04 2504.91 781.52C2505.15 781.64 2505.19 781.84 2505.19 782.04V786.04C2505.19 786.28 2505.03 786.44 2504.79 786.32ZM2518.71 780.72C2525.15 780.72 2528.47 785.56 2528.47 790.96C2528.47 797.24 2524.39 801.4 2518.63 801.4C2511.79 801.4 2508.75 796.24 2508.75 791.08C2508.75 785.4 2512.55 780.72 2518.71 780.72ZM2518.47 785.36C2516.15 785.36 2514.39 787.44 2514.39 791C2514.39 794.52 2516.03 796.76 2518.71 796.76C2521.03 796.76 2522.79 794.76 2522.79 791.08C2522.79 787.96 2521.51 785.36 2518.47 785.36ZM2532.06 800.64V785.76C2532.06 784.4 2531.98 782.32 2531.9 781.44C2531.86 781.24 2531.94 781.12 2532.18 781.12H2536.38C2536.7 781.12 2536.82 781.24 2536.9 781.44C2537.06 781.8 2537.14 782.2 2537.22 782.76C2538.9 781.4 2540.78 780.72 2542.9 780.72C2545.98 780.72 2549.62 782.32 2549.62 788.76V800.64C2549.62 800.88 2549.54 801 2549.26 801H2544.46C2544.18 801 2544.06 800.88 2544.06 800.64V789.24C2544.06 786.84 2543.02 785.56 2540.94 785.56C2539.58 785.56 2538.46 786.04 2537.62 786.8V800.68C2537.62 800.88 2537.5 801 2537.26 801H2532.42C2532.14 801 2532.06 800.88 2532.06 800.64Z" fill="white"/>
<path d="M2857 992H2579C2567.95 992 2559 1000.95 2559 1012V1156C2559 1167.05 2567.95 1176 2579 1176H2857C2868.05 1176 2877 1167.05 2877 1156V1012C2877 1000.95 2868.05 992 2857 992Z" fill="#6F7071"/>
<path d="M2662.04 1100.4C2659.08 1100.4 2656.64 1099.88 2654.96 1099C2654.76 1098.88 2654.68 1098.68 2654.68 1098.36V1093.6C2654.68 1093.4 2654.84 1093.28 2655 1093.4C2657.2 1094.8 2659.84 1095.48 2662.24 1095.48C2665.28 1095.48 2666.48 1094.44 2666.48 1093.04C2666.48 1091.76 2665.56 1090.84 2662.84 1089.68L2660.84 1088.84C2655.92 1086.76 2654.56 1084.28 2654.56 1081.16C2654.56 1076.84 2657.84 1073.4 2664.2 1073.4C2666.72 1073.4 2669 1073.72 2670.44 1074.44C2670.64 1074.56 2670.68 1074.72 2670.68 1074.96V1079.44C2670.68 1079.6 2670.56 1079.8 2670.32 1079.64C2668.72 1078.72 2666.52 1078.32 2664.16 1078.32C2661.08 1078.32 2660 1079.36 2660 1080.68C2660 1081.92 2660.84 1082.76 2663.84 1083.96L2665.32 1084.56C2670.64 1086.76 2672.12 1089.28 2672.12 1092.52C2672.12 1097.36 2668.2 1100.4 2662.04 1100.4ZM2688.27 1091.52H2680.47C2680.67 1093.8 2682.27 1095.68 2686.19 1095.68C2687.99 1095.68 2689.59 1095.4 2691.11 1094.76C2691.23 1094.68 2691.35 1094.72 2691.35 1094.96V1098.76C2691.35 1099.04 2691.27 1099.16 2691.07 1099.24C2689.47 1100 2687.71 1100.4 2684.95 1100.4C2677.43 1100.4 2674.79 1095.24 2674.79 1090.28C2674.79 1084.76 2678.19 1079.72 2684.47 1079.72C2690.51 1079.72 2692.91 1084.4 2692.91 1088.36C2692.91 1089.6 2692.83 1090.6 2692.71 1091.04C2692.67 1091.24 2692.59 1091.32 2692.39 1091.36C2691.87 1091.44 2690.35 1091.52 2688.27 1091.52ZM2680.43 1087.64H2685.67C2686.95 1087.64 2687.51 1087.6 2687.67 1087.56C2687.67 1087.48 2687.67 1087.32 2687.67 1087.28C2687.67 1086.32 2686.91 1084.12 2684.27 1084.12C2681.75 1084.12 2680.67 1086 2680.43 1087.64ZM2708.41 1085.32C2707.09 1084.64 2705.05 1084.16 2703.25 1084.16C2701.37 1084.16 2700.77 1084.84 2700.77 1085.52C2700.77 1086.2 2701.29 1086.72 2703.61 1087.6C2708.45 1089.36 2709.97 1091.24 2709.97 1094.08C2709.97 1097.88 2707.01 1100.4 2701.73 1100.4C2699.29 1100.4 2697.17 1099.96 2695.93 1099.28C2695.73 1099.16 2695.65 1099.04 2695.65 1098.84V1094.52C2695.65 1094.28 2695.81 1094.16 2695.97 1094.28C2697.81 1095.44 2700.05 1095.88 2701.85 1095.88C2703.73 1095.88 2704.57 1095.36 2704.57 1094.52C2704.57 1093.76 2703.89 1093.2 2701.53 1092.32C2697.01 1090.64 2695.53 1088.72 2695.53 1085.84C2695.53 1082.72 2698.05 1079.72 2703.33 1079.72C2705.69 1079.72 2707.53 1080.04 2708.53 1080.52C2708.77 1080.64 2708.81 1080.84 2708.81 1081.04V1085.04C2708.81 1085.28 2708.65 1085.44 2708.41 1085.32ZM2725.36 1085.32C2724.04 1084.64 2722 1084.16 2720.2 1084.16C2718.32 1084.16 2717.72 1084.84 2717.72 1085.52C2717.72 1086.2 2718.24 1086.72 2720.56 1087.6C2725.4 1089.36 2726.92 1091.24 2726.92 1094.08C2726.92 1097.88 2723.96 1100.4 2718.68 1100.4C2716.24 1100.4 2714.12 1099.96 2712.88 1099.28C2712.68 1099.16 2712.6 1099.04 2712.6 1098.84V1094.52C2712.6 1094.28 2712.76 1094.16 2712.92 1094.28C2714.76 1095.44 2717 1095.88 2718.8 1095.88C2720.68 1095.88 2721.52 1095.36 2721.52 1094.52C2721.52 1093.76 2720.84 1093.2 2718.48 1092.32C2713.96 1090.64 2712.48 1088.72 2712.48 1085.84C2712.48 1082.72 2715 1079.72 2720.28 1079.72C2722.64 1079.72 2724.48 1080.04 2725.48 1080.52C2725.72 1080.64 2725.76 1080.84 2725.76 1081.04V1085.04C2725.76 1085.28 2725.6 1085.44 2725.36 1085.32ZM2730.29 1099.64V1080.44C2730.29 1080.24 2730.37 1080.12 2730.61 1080.12H2735.53C2735.77 1080.12 2735.85 1080.2 2735.85 1080.44V1099.64C2735.85 1099.88 2735.81 1100 2735.49 1100H2730.69C2730.41 1100 2730.29 1099.88 2730.29 1099.64ZM2733.09 1078C2731.21 1078 2730.01 1076.76 2730.01 1074.88C2730.01 1073.08 2731.33 1071.8 2733.13 1071.8C2735.05 1071.8 2736.21 1073.08 2736.21 1074.88C2736.21 1076.76 2734.97 1078 2733.09 1078ZM2749.4 1079.72C2755.84 1079.72 2759.16 1084.56 2759.16 1089.96C2759.16 1096.24 2755.08 1100.4 2749.32 1100.4C2742.48 1100.4 2739.44 1095.24 2739.44 1090.08C2739.44 1084.4 2743.24 1079.72 2749.4 1079.72ZM2749.16 1084.36C2746.84 1084.36 2745.08 1086.44 2745.08 1090C2745.08 1093.52 2746.72 1095.76 2749.4 1095.76C2751.72 1095.76 2753.48 1093.76 2753.48 1090.08C2753.48 1086.96 2752.2 1084.36 2749.16 1084.36ZM2762.75 1099.64V1084.76C2762.75 1083.4 2762.67 1081.32 2762.59 1080.44C2762.55 1080.24 2762.63 1080.12 2762.87 1080.12H2767.07C2767.39 1080.12 2767.51 1080.24 2767.59 1080.44C2767.75 1080.8 2767.83 1081.2 2767.91 1081.76C2769.59 1080.4 2771.47 1079.72 2773.59 1079.72C2776.67 1079.72 2780.31 1081.32 2780.31 1087.76V1099.64C2780.31 1099.88 2780.23 1100 2779.95 1100H2775.15C2774.87 1100 2774.75 1099.88 2774.75 1099.64V1088.24C2774.75 1085.84 2773.71 1084.56 2771.63 1084.56C2770.27 1084.56 2769.15 1085.04 2768.31 1085.8V1099.68C2768.31 1099.88 2768.19 1100 2767.95 1100H2763.11C2762.83 1100 2762.75 1099.88 2762.75 1099.64Z" fill="white"/>
<path d="M1221 992H943C931.954 992 923 1000.95 923 1012V1156C923 1167.05 931.954 1176 943 1176H1221C1232.05 1176 1241 1167.05 1241 1156V1012C1241 1000.95 1232.05 992 1221 992Z" fill="#6F7071"/>
<path d="M1026.04 1100.4C1023.08 1100.4 1020.64 1099.88 1018.96 1099C1018.76 1098.88 1018.68 1098.68 1018.68 1098.36V1093.6C1018.68 1093.4 1018.84 1093.28 1019 1093.4C1021.2 1094.8 1023.84 1095.48 1026.24 1095.48C1029.28 1095.48 1030.48 1094.44 1030.48 1093.04C1030.48 1091.76 1029.56 1090.84 1026.84 1089.68L1024.84 1088.84C1019.92 1086.76 1018.56 1084.28 1018.56 1081.16C1018.56 1076.84 1021.84 1073.4 1028.2 1073.4C1030.72 1073.4 1033 1073.72 1034.44 1074.44C1034.64 1074.56 1034.68 1074.72 1034.68 1074.96V1079.44C1034.68 1079.6 1034.56 1079.8 1034.32 1079.64C1032.72 1078.72 1030.52 1078.32 1028.16 1078.32C1025.08 1078.32 1024 1079.36 1024 1080.68C1024 1081.92 1024.84 1082.76 1027.84 1083.96L1029.32 1084.56C1034.64 1086.76 1036.12 1089.28 1036.12 1092.52C1036.12 1097.36 1032.2 1100.4 1026.04 1100.4ZM1052.27 1091.52H1044.47C1044.67 1093.8 1046.27 1095.68 1050.19 1095.68C1051.99 1095.68 1053.59 1095.4 1055.11 1094.76C1055.23 1094.68 1055.35 1094.72 1055.35 1094.96V1098.76C1055.35 1099.04 1055.27 1099.16 1055.07 1099.24C1053.47 1100 1051.71 1100.4 1048.95 1100.4C1041.43 1100.4 1038.79 1095.24 1038.79 1090.28C1038.79 1084.76 1042.19 1079.72 1048.47 1079.72C1054.51 1079.72 1056.91 1084.4 1056.91 1088.36C1056.91 1089.6 1056.83 1090.6 1056.71 1091.04C1056.67 1091.24 1056.59 1091.32 1056.39 1091.36C1055.87 1091.44 1054.35 1091.52 1052.27 1091.52ZM1044.43 1087.64H1049.67C1050.95 1087.64 1051.51 1087.6 1051.67 1087.56C1051.67 1087.48 1051.67 1087.32 1051.67 1087.28C1051.67 1086.32 1050.91 1084.12 1048.27 1084.12C1045.75 1084.12 1044.67 1086 1044.43 1087.64ZM1072.41 1085.32C1071.09 1084.64 1069.05 1084.16 1067.25 1084.16C1065.37 1084.16 1064.77 1084.84 1064.77 1085.52C1064.77 1086.2 1065.29 1086.72 1067.61 1087.6C1072.45 1089.36 1073.97 1091.24 1073.97 1094.08C1073.97 1097.88 1071.01 1100.4 1065.73 1100.4C1063.29 1100.4 1061.17 1099.96 1059.93 1099.28C1059.73 1099.16 1059.65 1099.04 1059.65 1098.84V1094.52C1059.65 1094.28 1059.81 1094.16 1059.97 1094.28C1061.81 1095.44 1064.05 1095.88 1065.85 1095.88C1067.73 1095.88 1068.57 1095.36 1068.57 1094.52C1068.57 1093.76 1067.89 1093.2 1065.53 1092.32C1061.01 1090.64 1059.53 1088.72 1059.53 1085.84C1059.53 1082.72 1062.05 1079.72 1067.33 1079.72C1069.69 1079.72 1071.53 1080.04 1072.53 1080.52C1072.77 1080.64 1072.81 1080.84 1072.81 1081.04V1085.04C1072.81 1085.28 1072.65 1085.44 1072.41 1085.32ZM1089.36 1085.32C1088.04 1084.64 1086 1084.16 1084.2 1084.16C1082.32 1084.16 1081.72 1084.84 1081.72 1085.52C1081.72 1086.2 1082.24 1086.72 1084.56 1087.6C1089.4 1089.36 1090.92 1091.24 1090.92 1094.08C1090.92 1097.88 1087.96 1100.4 1082.68 1100.4C1080.24 1100.4 1078.12 1099.96 1076.88 1099.28C1076.68 1099.16 1076.6 1099.04 1076.6 1098.84V1094.52C1076.6 1094.28 1076.76 1094.16 1076.92 1094.28C1078.76 1095.44 1081 1095.88 1082.8 1095.88C1084.68 1095.88 1085.52 1095.36 1085.52 1094.52C1085.52 1093.76 1084.84 1093.2 1082.48 1092.32C1077.96 1090.64 1076.48 1088.72 1076.48 1085.84C1076.48 1082.72 1079 1079.72 1084.28 1079.72C1086.64 1079.72 1088.48 1080.04 1089.48 1080.52C1089.72 1080.64 1089.76 1080.84 1089.76 1081.04V1085.04C1089.76 1085.28 1089.6 1085.44 1089.36 1085.32ZM1094.29 1099.64V1080.44C1094.29 1080.24 1094.37 1080.12 1094.61 1080.12H1099.53C1099.77 1080.12 1099.85 1080.2 1099.85 1080.44V1099.64C1099.85 1099.88 1099.81 1100 1099.49 1100H1094.69C1094.41 1100 1094.29 1099.88 1094.29 1099.64ZM1097.09 1078C1095.21 1078 1094.01 1076.76 1094.01 1074.88C1094.01 1073.08 1095.33 1071.8 1097.13 1071.8C1099.05 1071.8 1100.21 1073.08 1100.21 1074.88C1100.21 1076.76 1098.97 1078 1097.09 1078ZM1113.4 1079.72C1119.84 1079.72 1123.16 1084.56 1123.16 1089.96C1123.16 1096.24 1119.08 1100.4 1113.32 1100.4C1106.48 1100.4 1103.44 1095.24 1103.44 1090.08C1103.44 1084.4 1107.24 1079.72 1113.4 1079.72ZM1113.16 1084.36C1110.84 1084.36 1109.08 1086.44 1109.08 1090C1109.08 1093.52 1110.72 1095.76 1113.4 1095.76C1115.72 1095.76 1117.48 1093.76 1117.48 1090.08C1117.48 1086.96 1116.2 1084.36 1113.16 1084.36ZM1126.75 1099.64V1084.76C1126.75 1083.4 1126.67 1081.32 1126.59 1080.44C1126.55 1080.24 1126.63 1080.12 1126.87 1080.12H1131.07C1131.39 1080.12 1131.51 1080.24 1131.59 1080.44C1131.75 1080.8 1131.83 1081.2 1131.91 1081.76C1133.59 1080.4 1135.47 1079.72 1137.59 1079.72C1140.67 1079.72 1144.31 1081.32 1144.31 1087.76V1099.64C1144.31 1099.88 1144.23 1100 1143.95 1100H1139.15C1138.87 1100 1138.75 1099.88 1138.75 1099.64V1088.24C1138.75 1085.84 1137.71 1084.56 1135.63 1084.56C1134.27 1084.56 1133.15 1085.04 1132.31 1085.8V1099.68C1132.31 1099.88 1132.19 1100 1131.95 1100H1127.11C1126.83 1100 1126.75 1099.88 1126.75 1099.64Z" fill="white"/>
<path d="M2239 1287H1961C1949.95 1287 1941 1295.95 1941 1307V1451C1941 1462.05 1949.95 1471 1961 1471H2239C2250.05 1471 2259 1462.05 2259 1451V1307C2259 1295.95 2250.05 1287 2239 1287Z" fill="#31B880"/>
<path d="M2072.3 1390.36L2071.62 1394.64C2071.58 1394.96 2071.5 1395 2071.22 1395H2054.94C2054.7 1395 2054.62 1394.88 2054.62 1394.64V1369.16C2054.62 1368.92 2054.7 1368.8 2054.94 1368.8H2070.74C2071.06 1368.8 2071.14 1368.84 2071.18 1369.12L2071.62 1373.44C2071.66 1373.64 2071.62 1373.8 2071.34 1373.8H2060.18V1379.16H2070.38C2070.58 1379.16 2070.7 1379.24 2070.7 1379.48V1383.88C2070.7 1384.12 2070.54 1384.16 2070.38 1384.16H2060.18V1390H2071.98C2072.3 1390 2072.34 1390.12 2072.3 1390.36ZM2085.12 1395H2079.88C2079.6 1395 2079.48 1394.88 2079.4 1394.72C2077.88 1390.2 2074.52 1380.04 2072.88 1375.44C2072.84 1375.28 2072.92 1375.12 2073.16 1375.12H2078.4C2078.68 1375.12 2078.76 1375.2 2078.84 1375.4C2081.44 1384.4 2082.32 1387.96 2082.72 1389.76H2082.8C2083.2 1387.96 2084.24 1384.36 2087.04 1375.4C2087.12 1375.2 2087.2 1375.12 2087.4 1375.12H2092.04C2092.2 1375.12 2092.36 1375.24 2092.28 1375.48C2090.56 1380.2 2087.2 1390.32 2085.6 1394.68C2085.48 1394.88 2085.4 1395 2085.12 1395ZM2107.08 1386.52H2099.28C2099.48 1388.8 2101.08 1390.68 2105 1390.68C2106.8 1390.68 2108.4 1390.4 2109.92 1389.76C2110.04 1389.68 2110.16 1389.72 2110.16 1389.96V1393.76C2110.16 1394.04 2110.08 1394.16 2109.88 1394.24C2108.28 1395 2106.52 1395.4 2103.76 1395.4C2096.24 1395.4 2093.6 1390.24 2093.6 1385.28C2093.6 1379.76 2097 1374.72 2103.28 1374.72C2109.32 1374.72 2111.72 1379.4 2111.72 1383.36C2111.72 1384.6 2111.64 1385.6 2111.52 1386.04C2111.48 1386.24 2111.4 1386.32 2111.2 1386.36C2110.68 1386.44 2109.16 1386.52 2107.08 1386.52ZM2099.24 1382.64H2104.48C2105.76 1382.64 2106.32 1382.6 2106.48 1382.56C2106.48 1382.48 2106.48 1382.32 2106.48 1382.28C2106.48 1381.32 2105.72 1379.12 2103.08 1379.12C2100.56 1379.12 2099.48 1381 2099.24 1382.64ZM2115.27 1394.64V1379.76C2115.27 1378.4 2115.19 1376.32 2115.11 1375.44C2115.07 1375.24 2115.15 1375.12 2115.39 1375.12H2119.59C2119.91 1375.12 2120.03 1375.24 2120.11 1375.44C2120.27 1375.8 2120.35 1376.2 2120.43 1376.76C2122.11 1375.4 2123.99 1374.72 2126.11 1374.72C2129.19 1374.72 2132.83 1376.32 2132.83 1382.76V1394.64C2132.83 1394.88 2132.75 1395 2132.47 1395H2127.67C2127.39 1395 2127.27 1394.88 2127.27 1394.64V1383.24C2127.27 1380.84 2126.23 1379.56 2124.15 1379.56C2122.79 1379.56 2121.67 1380.04 2120.83 1380.8V1394.68C2120.83 1394.88 2120.71 1395 2120.47 1395H2115.63C2115.35 1395 2115.27 1394.88 2115.27 1394.64ZM2147.42 1391V1394.32C2147.42 1394.56 2147.38 1394.76 2147.14 1394.84C2146.02 1395.24 2144.98 1395.4 2143.58 1395.4C2140.1 1395.4 2138.06 1393.68 2138.06 1389.68V1379.76H2135.66C2135.42 1379.72 2135.34 1379.64 2135.34 1379.4V1375.48C2135.34 1375.2 2135.42 1375.12 2135.7 1375.12H2138.1C2138.14 1373.76 2138.3 1371.4 2138.5 1370.28C2138.54 1370.08 2138.66 1369.96 2138.86 1369.92L2143.54 1369.32C2143.74 1369.28 2143.86 1369.28 2143.86 1369.56C2143.74 1370.8 2143.66 1373.16 2143.66 1375.12H2147.34C2147.58 1375.12 2147.66 1375.2 2147.66 1375.44V1379.48C2147.66 1379.68 2147.58 1379.72 2147.38 1379.76H2143.62V1388.32C2143.62 1390.08 2144.14 1390.88 2145.78 1390.88C2146.26 1390.88 2146.66 1390.8 2147.14 1390.72C2147.3 1390.72 2147.42 1390.76 2147.42 1391Z" fill="white"/>
<path d="M2100.5 283.5V396.5" stroke="#707070"/>
<path d="M2099 580.5V1287.5" stroke="#707070"/>
<path d="M1082 492V992" stroke="#707070" stroke-dasharray="3 3"/>
<path d="M1082 1176V1379" stroke="#707070" stroke-dasharray="3 2"/>
<path d="M1769 877L1770 937" stroke="#707070"/>
<path d="M1378.5 875.5L1378 938.5" stroke="#707070"/>
<path d="M2492 876.5L2492.5 938.5" stroke="#707070"/>
<path d="M2492.5 938.5H1378.5" stroke="#707070"/>
<path d="M2492.5 633.5H1378.5" stroke="#707070"/>
<path d="M2720 785H2651" stroke="#707070" stroke-dasharray="3 3"/>
<path d="M2718 1379H2259" stroke="#707070" stroke-dasharray="3 3"/>
<path d="M1941 1379H1082" stroke="#707070" stroke-dasharray="3 3"/>
<path d="M1941 492L1082 489" stroke="#707070" stroke-dasharray="3 3"/>
<path d="M2720.5 785.5V992.5" stroke="#707070" stroke-dasharray="3 3"/>
<path d="M2721 1176V1379" stroke="#707070" stroke-dasharray="3 3"/>
<path d="M1769.5 635L1770.5 695" stroke="#707070"/>
<path d="M1379 633.5L1378.5 696.5" stroke="#707070"/>
<path d="M2492.5 634.5L2493 692.5" stroke="#707070"/>
<path d="M79 1512H55C52.2386 1512 50 1514.24 50 1517V1536C50 1538.76 52.2386 1541 55 1541H79C81.7614 1541 84 1538.76 84 1536V1517C84 1514.24 81.7614 1512 79 1512Z" fill="#31B880"/>
<path d="M113.44 1538.2L113 1540.76C112.96 1540.96 112.88 1541 112.72 1541H97.52C97.24 1541 97.2 1540.92 97.2 1540.68V1514.84C97.2 1514.64 97.28 1514.56 97.48 1514.56H112.08C112.28 1514.56 112.32 1514.6 112.36 1514.8L112.68 1517.32C112.72 1517.48 112.68 1517.6 112.48 1517.6H100.52V1525.96H111.32C111.48 1525.96 111.56 1526.04 111.56 1526.2V1528.76C111.56 1528.96 111.44 1529 111.32 1529H100.52V1537.96H113.24C113.44 1537.96 113.48 1538.04 113.44 1538.2ZM124.68 1541H121.44C121.2 1541 121.16 1540.92 121.08 1540.8C120.24 1538.36 115.32 1524.52 114.36 1521.84C114.32 1521.68 114.32 1521.56 114.52 1521.56H117.6C117.8 1521.56 117.84 1521.64 117.92 1521.8C121.28 1531.92 122.72 1536.28 123.16 1537.92H123.24C123.72 1536.28 125.2 1532 128.72 1521.76C128.8 1521.6 128.88 1521.56 129.04 1521.56H131.8C131.92 1521.56 132.04 1521.64 131.96 1521.84C130.8 1524.96 125.92 1538.36 125.04 1540.76C124.96 1540.92 124.88 1541 124.68 1541ZM146.035 1531.68H137.315C137.275 1535.48 139.475 1538.48 143.995 1538.48C145.755 1538.48 147.435 1538.16 148.995 1537.4C149.115 1537.32 149.195 1537.4 149.195 1537.56V1539.84C149.195 1540.08 149.115 1540.16 148.995 1540.24C147.635 1540.92 145.875 1541.4 143.355 1541.4C136.435 1541.4 133.955 1536.32 133.955 1531.44C133.955 1525.84 137.235 1521.16 142.795 1521.16C148.515 1521.16 150.595 1525.8 150.595 1529.2C150.595 1530.2 150.515 1530.92 150.435 1531.28C150.435 1531.4 150.315 1531.52 150.155 1531.52C149.555 1531.64 147.795 1531.68 146.035 1531.68ZM137.355 1529.2H144.795C146.755 1529.2 147.235 1529.16 147.355 1529.12C147.395 1529 147.395 1528.8 147.395 1528.68C147.395 1527.24 146.435 1523.92 142.675 1523.92C139.355 1523.92 137.715 1526.52 137.355 1529.2ZM154.652 1540.72V1526.08C154.652 1524.72 154.572 1522.48 154.492 1521.8C154.492 1521.64 154.532 1521.56 154.732 1521.56H157.212C157.412 1521.56 157.492 1521.64 157.572 1521.8C157.692 1522.16 157.732 1522.92 157.812 1523.8C159.572 1522.04 161.612 1521.16 163.932 1521.16C166.772 1521.16 170.452 1522.56 170.452 1528.88V1540.72C170.452 1540.92 170.372 1541 170.172 1541H167.372C167.172 1541 167.092 1540.92 167.092 1540.68V1529.2C167.092 1526.16 165.772 1524.12 162.972 1524.12C160.932 1524.12 159.252 1525.04 157.972 1526.56V1540.72C157.972 1540.92 157.932 1541 157.732 1541H154.892C154.732 1541 154.652 1540.92 154.652 1540.72ZM184.418 1538.4V1540.44C184.418 1540.6 184.378 1540.76 184.178 1540.84C183.258 1541.24 182.258 1541.4 181.178 1541.4C178.258 1541.4 176.498 1540 176.498 1536.16V1524.44H173.778C173.538 1524.4 173.498 1524.32 173.498 1524.12V1521.84C173.498 1521.64 173.578 1521.56 173.778 1521.56H176.498C176.538 1520.08 176.698 1517.32 176.858 1516.44C176.898 1516.28 176.978 1516.2 177.138 1516.16L179.858 1515.72C180.018 1515.68 180.098 1515.72 180.098 1515.88C179.978 1517.28 179.858 1519.6 179.858 1521.56H184.098C184.258 1521.56 184.338 1521.64 184.338 1521.84V1524.2C184.338 1524.36 184.258 1524.44 184.098 1524.44H179.858V1535.68C179.858 1537.52 180.538 1538.56 182.298 1538.56C182.898 1538.56 183.498 1538.48 184.178 1538.24C184.298 1538.2 184.418 1538.2 184.418 1538.4Z" fill="#707070"/>
<path d="M254 1513H230C227.239 1513 225 1515.24 225 1518V1537C225 1539.76 227.239 1542 230 1542H254C256.761 1542 259 1539.76 259 1537V1518C259 1515.24 256.761 1513 254 1513Z" fill="#4146C9"/>
<path d="M272.2 1540.76V1514.88C272.2 1514.72 272.24 1514.6 272.4 1514.6C273.68 1514.56 276.32 1514.48 279 1514.48C286.08 1514.48 289.2 1518.48 289.2 1522.96C289.2 1529.04 284.4 1531.88 278.6 1531.88C276.92 1531.88 276.4 1531.84 275.52 1531.84V1540.72C275.52 1540.92 275.48 1541 275.28 1541H272.44C272.28 1541 272.2 1540.92 272.2 1540.76ZM275.52 1517.52V1528.84C276.2 1528.88 276.88 1528.88 278.56 1528.88C282.48 1528.88 285.88 1527.4 285.88 1523.04C285.88 1519.4 283.08 1517.44 279.04 1517.44C277.4 1517.44 276.16 1517.48 275.52 1517.52ZM293.011 1521.56H295.571C295.811 1521.56 295.851 1521.64 295.931 1521.84C296.091 1522.32 296.211 1523.72 296.251 1524.6C297.651 1522.68 300.131 1521.16 302.691 1521.16C302.891 1521.16 302.971 1521.2 302.971 1521.44V1524.32C302.971 1524.52 302.931 1524.56 302.691 1524.56C299.931 1524.52 297.411 1525.88 296.411 1527.48L296.371 1540.76C296.371 1540.96 296.291 1541 296.131 1541H293.291C293.091 1541 293.011 1540.92 293.011 1540.72V1526.92C293.011 1525.24 292.931 1522.92 292.811 1521.8C292.811 1521.64 292.851 1521.56 293.011 1521.56ZM313.858 1521.16C319.498 1521.16 322.978 1525.48 322.978 1531.24C322.978 1537.32 319.218 1541.4 313.858 1541.4C307.418 1541.4 304.658 1536.2 304.658 1531.28C304.658 1525.64 308.258 1521.16 313.858 1521.16ZM313.698 1524.04C310.338 1524.04 308.018 1526.92 308.018 1531.2C308.018 1535.28 310.138 1538.52 313.938 1538.52C316.778 1538.52 319.578 1536.28 319.578 1531.32C319.578 1527.6 317.858 1524.04 313.698 1524.04ZM337.752 1540.68V1521.84C337.752 1521.64 337.832 1521.56 337.992 1521.56H340.832C341.032 1521.56 341.112 1521.6 341.112 1521.8V1540.72C341.112 1540.92 341.032 1541 340.832 1541H338.072C337.832 1541 337.752 1540.92 337.752 1540.68ZM339.432 1517.68C338.232 1517.68 337.472 1516.88 337.472 1515.72C337.472 1514.56 338.272 1513.72 339.432 1513.72C340.672 1513.72 341.392 1514.56 341.392 1515.72C341.392 1516.84 340.592 1517.68 339.432 1517.68ZM327.512 1524.44H324.912C324.752 1524.44 324.712 1524.36 324.712 1524.16V1521.8C324.712 1521.64 324.792 1521.56 324.912 1521.56H327.512V1519.8C327.512 1517.68 327.792 1516.12 328.392 1514.92C329.432 1512.92 331.152 1511.92 333.552 1511.92C334.472 1511.92 334.992 1512 335.352 1512.16C335.512 1512.24 335.552 1512.36 335.552 1512.48V1514.92C335.552 1515.08 335.472 1515.16 335.312 1515.12C334.832 1514.92 334.312 1514.88 333.872 1514.88C332.072 1514.88 330.832 1515.76 330.832 1519.6V1521.56H334.672C334.872 1521.56 334.912 1521.64 334.912 1521.76V1524.16C334.912 1524.36 334.832 1524.4 334.672 1524.44H330.832V1540.72C330.832 1540.88 330.792 1541 330.592 1541H327.752C327.592 1541 327.512 1540.92 327.512 1540.72V1524.44ZM346.683 1536.96V1512.56C346.683 1512.36 346.763 1512.32 346.963 1512.32H349.763C349.963 1512.32 350.003 1512.4 350.003 1512.56V1536.68C350.003 1538.24 350.643 1538.6 351.603 1538.6C351.883 1538.6 352.043 1538.56 352.403 1538.48C352.523 1538.48 352.563 1538.56 352.563 1538.72V1540.8C352.563 1541 352.523 1541.04 352.363 1541.12C352.003 1541.28 351.363 1541.4 350.523 1541.4C348.563 1541.4 346.683 1540.72 346.683 1536.96ZM367.011 1531.68H358.291C358.251 1535.48 360.451 1538.48 364.971 1538.48C366.731 1538.48 368.411 1538.16 369.971 1537.4C370.091 1537.32 370.171 1537.4 370.171 1537.56V1539.84C370.171 1540.08 370.091 1540.16 369.971 1540.24C368.611 1540.92 366.851 1541.4 364.331 1541.4C357.411 1541.4 354.931 1536.32 354.931 1531.44C354.931 1525.84 358.211 1521.16 363.771 1521.16C369.491 1521.16 371.571 1525.8 371.571 1529.2C371.571 1530.2 371.491 1530.92 371.411 1531.28C371.411 1531.4 371.291 1531.52 371.131 1531.52C370.531 1531.64 368.771 1531.68 367.011 1531.68ZM358.331 1529.2H365.771C367.731 1529.2 368.211 1529.16 368.331 1529.12C368.371 1529 368.371 1528.8 368.371 1528.68C368.371 1527.24 367.411 1523.92 363.651 1523.92C360.331 1523.92 358.691 1526.52 358.331 1529.2Z" fill="#707070"/>
<path d="M272.2 1540.76V1514.88C272.2 1514.72 272.24 1514.6 272.4 1514.6C273.68 1514.56 276.32 1514.48 279 1514.48C286.08 1514.48 289.2 1518.48 289.2 1522.96C289.2 1529.04 284.4 1531.88 278.6 1531.88C276.92 1531.88 276.4 1531.84 275.52 1531.84V1540.72C275.52 1540.92 275.48 1541 275.28 1541H272.44C272.28 1541 272.2 1540.92 272.2 1540.76ZM275.52 1517.52V1528.84C276.2 1528.88 276.88 1528.88 278.56 1528.88C282.48 1528.88 285.88 1527.4 285.88 1523.04C285.88 1519.4 283.08 1517.44 279.04 1517.44C277.4 1517.44 276.16 1517.48 275.52 1517.52ZM293.011 1521.56H295.571C295.811 1521.56 295.851 1521.64 295.931 1521.84C296.091 1522.32 296.211 1523.72 296.251 1524.6C297.651 1522.68 300.131 1521.16 302.691 1521.16C302.891 1521.16 302.971 1521.2 302.971 1521.44V1524.32C302.971 1524.52 302.931 1524.56 302.691 1524.56C299.931 1524.52 297.411 1525.88 296.411 1527.48L296.371 1540.76C296.371 1540.96 296.291 1541 296.131 1541H293.291C293.091 1541 293.011 1540.92 293.011 1540.72V1526.92C293.011 1525.24 292.931 1522.92 292.811 1521.8C292.811 1521.64 292.851 1521.56 293.011 1521.56ZM313.858 1521.16C319.498 1521.16 322.978 1525.48 322.978 1531.24C322.978 1537.32 319.218 1541.4 313.858 1541.4C307.418 1541.4 304.658 1536.2 304.658 1531.28C304.658 1525.64 308.258 1521.16 313.858 1521.16ZM313.698 1524.04C310.338 1524.04 308.018 1526.92 308.018 1531.2C308.018 1535.28 310.138 1538.52 313.938 1538.52C316.778 1538.52 319.578 1536.28 319.578 1531.32C319.578 1527.6 317.858 1524.04 313.698 1524.04ZM337.752 1540.68V1521.84C337.752 1521.64 337.832 1521.56 337.992 1521.56H340.832C341.032 1521.56 341.112 1521.6 341.112 1521.8V1540.72C341.112 1540.92 341.032 1541 340.832 1541H338.072C337.832 1541 337.752 1540.92 337.752 1540.68ZM339.432 1517.68C338.232 1517.68 337.472 1516.88 337.472 1515.72C337.472 1514.56 338.272 1513.72 339.432 1513.72C340.672 1513.72 341.392 1514.56 341.392 1515.72C341.392 1516.84 340.592 1517.68 339.432 1517.68ZM327.512 1524.44H324.912C324.752 1524.44 324.712 1524.36 324.712 1524.16V1521.8C324.712 1521.64 324.792 1521.56 324.912 1521.56H327.512V1519.8C327.512 1517.68 327.792 1516.12 328.392 1514.92C329.432 1512.92 331.152 1511.92 333.552 1511.92C334.472 1511.92 334.992 1512 335.352 1512.16C335.512 1512.24 335.552 1512.36 335.552 1512.48V1514.92C335.552 1515.08 335.472 1515.16 335.312 1515.12C334.832 1514.92 334.312 1514.88 333.872 1514.88C332.072 1514.88 330.832 1515.76 330.832 1519.6V1521.56H334.672C334.872 1521.56 334.912 1521.64 334.912 1521.76V1524.16C334.912 1524.36 334.832 1524.4 334.672 1524.44H330.832V1540.72C330.832 1540.88 330.792 1541 330.592 1541H327.752C327.592 1541 327.512 1540.92 327.512 1540.72V1524.44ZM346.683 1536.96V1512.56C346.683 1512.36 346.763 1512.32 346.963 1512.32H349.763C349.963 1512.32 350.003 1512.4 350.003 1512.56V1536.68C350.003 1538.24 350.643 1538.6 351.603 1538.6C351.883 1538.6 352.043 1538.56 352.403 1538.48C352.523 1538.48 352.563 1538.56 352.563 1538.72V1540.8C352.563 1541 352.523 1541.04 352.363 1541.12C352.003 1541.28 351.363 1541.4 350.523 1541.4C348.563 1541.4 346.683 1540.72 346.683 1536.96ZM367.011 1531.68H358.291C358.251 1535.48 360.451 1538.48 364.971 1538.48C366.731 1538.48 368.411 1538.16 369.971 1537.4C370.091 1537.32 370.171 1537.4 370.171 1537.56V1539.84C370.171 1540.08 370.091 1540.16 369.971 1540.24C368.611 1540.92 366.851 1541.4 364.331 1541.4C357.411 1541.4 354.931 1536.32 354.931 1531.44C354.931 1525.84 358.211 1521.16 363.771 1521.16C369.491 1521.16 371.571 1525.8 371.571 1529.2C371.571 1530.2 371.491 1530.92 371.411 1531.28C371.411 1531.4 371.291 1531.52 371.131 1531.52C370.531 1531.64 368.771 1531.68 367.011 1531.68ZM358.331 1529.2H365.771C367.731 1529.2 368.211 1529.16 368.331 1529.12C368.371 1529 368.371 1528.8 368.371 1528.68C368.371 1527.24 367.411 1523.92 363.651 1523.92C360.331 1523.92 358.691 1526.52 358.331 1529.2Z" fill="#707070"/>
<path d="M648 1513H624C621.239 1513 619 1515.24 619 1518V1537C619 1539.76 621.239 1542 624 1542H648C650.761 1542 653 1539.76 653 1537V1518C653 1515.24 650.761 1513 648 1513Z" fill="#DE3C82"/>
<path d="M681.32 1541H666.52C666.28 1541 666.2 1540.88 666.2 1540.68V1514.84C666.2 1514.68 666.24 1514.56 666.44 1514.56H669.32C669.48 1514.56 669.52 1514.64 669.52 1514.8V1537.96H681.92C682.12 1537.96 682.16 1538.08 682.12 1538.2L681.64 1540.76C681.6 1540.96 681.48 1541 681.32 1541ZM692.975 1521.16C698.615 1521.16 702.095 1525.48 702.095 1531.24C702.095 1537.32 698.335 1541.4 692.975 1541.4C686.535 1541.4 683.775 1536.2 683.775 1531.28C683.775 1525.64 687.375 1521.16 692.975 1521.16ZM692.815 1524.04C689.455 1524.04 687.135 1526.92 687.135 1531.2C687.135 1535.28 689.255 1538.52 693.055 1538.52C695.895 1538.52 698.695 1536.28 698.695 1531.32C698.695 1527.6 696.975 1524.04 692.815 1524.04ZM714.381 1521.16C720.021 1521.16 723.501 1525.48 723.501 1531.24C723.501 1537.32 719.741 1541.4 714.381 1541.4C707.941 1541.4 705.181 1536.2 705.181 1531.28C705.181 1525.64 708.781 1521.16 714.381 1521.16ZM714.221 1524.04C710.861 1524.04 708.541 1526.92 708.541 1531.2C708.541 1535.28 710.661 1538.52 714.461 1538.52C717.301 1538.52 720.101 1536.28 720.101 1531.32C720.101 1527.6 718.381 1524.04 714.221 1524.04ZM739.835 1521.56H743.035C743.235 1521.56 743.315 1521.72 743.155 1521.88C742.035 1523.12 735.995 1528.96 734.515 1530.4C734.475 1530.44 734.515 1530.52 734.515 1530.56C737.115 1533.28 741.475 1537.8 744.395 1540.72C744.515 1540.84 744.435 1541 744.235 1541H740.435C740.235 1541 740.155 1540.92 740.035 1540.8C737.955 1538.68 732.915 1533.4 730.995 1531.32V1540.72C730.995 1540.92 730.955 1541 730.755 1541H727.955C727.715 1541 727.675 1540.92 727.675 1540.72V1512.56C727.675 1512.4 727.715 1512.32 727.955 1512.32H730.755C730.915 1512.32 730.995 1512.4 730.995 1512.56V1530.48C732.875 1528.6 738.395 1522.88 739.435 1521.76C739.595 1521.6 739.675 1521.56 739.835 1521.56ZM761.163 1521.8V1536.76C761.163 1538.88 761.283 1539.88 761.403 1540.76C761.403 1540.92 761.363 1541 761.163 1541H758.603C758.403 1541 758.363 1540.96 758.283 1540.8C758.163 1540.36 758.083 1539.64 758.043 1539.08C756.363 1540.8 754.243 1541.4 752.243 1541.4C748.843 1541.4 745.643 1539.68 745.643 1533.88V1521.8C745.643 1521.6 745.723 1521.56 745.923 1521.56H748.763C748.923 1521.56 748.963 1521.64 748.963 1521.8V1533.48C748.963 1536.56 750.403 1538.44 753.203 1538.44C755.123 1538.44 756.643 1537.72 757.843 1536.4V1521.8C757.843 1521.64 757.923 1521.56 758.123 1521.56H760.923C761.163 1521.56 761.163 1521.64 761.163 1521.8ZM774.256 1521.16C780.176 1521.16 783.616 1525.24 783.616 1530.6C783.616 1537.88 777.856 1541.4 772.176 1541.4C771.256 1541.4 770.696 1541.32 770.136 1541.24V1549.24C770.136 1549.4 770.136 1549.48 769.936 1549.52C769.016 1549.6 767.176 1549.8 767.016 1549.84C766.856 1549.84 766.816 1549.8 766.816 1549.6V1524.68C766.816 1524.32 766.776 1523.44 766.736 1522.92C766.736 1522.88 766.736 1522.8 766.816 1522.76C768.216 1522.24 770.856 1521.16 774.256 1521.16ZM773.856 1524.08C772.456 1524.08 771.256 1524.32 770.136 1524.72V1538.28C770.816 1538.48 771.656 1538.52 772.416 1538.52C776.296 1538.52 780.216 1536.12 780.216 1530.8C780.216 1526.72 777.896 1524.08 773.856 1524.08Z" fill="#707070"/>
<path d="M442 1513H418C415.239 1513 413 1515.24 413 1518V1537C413 1539.76 415.239 1542 418 1542H442C444.761 1542 447 1539.76 447 1537V1518C447 1515.24 444.761 1513 442 1513Z" fill="#70716F"/>
<path d="M465.48 1541.4C462.72 1541.4 460.28 1540.8 458.72 1539.88C458.52 1539.8 458.48 1539.64 458.48 1539.4V1536.52C458.48 1536.36 458.6 1536.28 458.76 1536.4C460.84 1537.8 463.4 1538.36 465.6 1538.36C469.44 1538.36 471.2 1536.64 471.2 1534.24C471.2 1532.36 470.12 1530.96 466.48 1529.32L464.72 1528.6C459.76 1526.48 458.64 1523.96 458.64 1521.28C458.64 1517.12 461.84 1514.16 467.24 1514.16C469.76 1514.16 471.92 1514.56 473.16 1515.24C473.32 1515.32 473.36 1515.44 473.36 1515.64V1518.32C473.36 1518.48 473.24 1518.6 473.04 1518.48C471.64 1517.6 469.44 1517.16 467.16 1517.16C463 1517.16 461.88 1519.32 461.88 1521C461.88 1522.8 462.92 1524.16 466.48 1525.68L468.2 1526.4C473.12 1528.48 474.56 1530.96 474.56 1533.96C474.56 1538.28 471.32 1541.4 465.48 1541.4ZM489.933 1531.68H481.213C481.173 1535.48 483.373 1538.48 487.893 1538.48C489.653 1538.48 491.333 1538.16 492.893 1537.4C493.013 1537.32 493.093 1537.4 493.093 1537.56V1539.84C493.093 1540.08 493.013 1540.16 492.893 1540.24C491.533 1540.92 489.773 1541.4 487.253 1541.4C480.333 1541.4 477.853 1536.32 477.853 1531.44C477.853 1525.84 481.133 1521.16 486.693 1521.16C492.413 1521.16 494.493 1525.8 494.493 1529.2C494.493 1530.2 494.413 1530.92 494.333 1531.28C494.333 1531.4 494.213 1531.52 494.053 1531.52C493.453 1531.64 491.693 1531.68 489.933 1531.68ZM481.253 1529.2H488.693C490.653 1529.2 491.133 1529.16 491.253 1529.12C491.293 1529 491.293 1528.8 491.293 1528.68C491.293 1527.24 490.333 1523.92 486.573 1523.92C483.253 1523.92 481.613 1526.52 481.253 1529.2ZM509.133 1525.08C508.013 1524.4 506.173 1523.92 504.493 1523.92C501.853 1523.92 500.973 1525.2 500.973 1526.4C500.973 1527.6 501.693 1528.44 504.693 1529.64C508.733 1531.2 510.373 1532.84 510.373 1535.68C510.373 1539.36 507.373 1541.4 503.213 1541.4C501.013 1541.4 499.013 1540.92 497.853 1540.24C497.733 1540.16 497.653 1540.08 497.653 1539.88V1537.2C497.653 1537 497.773 1536.92 497.893 1537C499.493 1538.12 501.533 1538.6 503.293 1538.6C505.853 1538.6 507.093 1537.48 507.093 1536C507.093 1534.52 506.213 1533.64 503.453 1532.56C499.453 1531.04 497.773 1529.4 497.773 1526.56C497.773 1523.68 500.213 1521.16 504.573 1521.16C506.773 1521.16 508.413 1521.56 509.253 1522.04C509.453 1522.12 509.453 1522.28 509.453 1522.44V1524.88C509.453 1525.08 509.333 1525.2 509.133 1525.08ZM524.875 1525.08C523.755 1524.4 521.915 1523.92 520.235 1523.92C517.595 1523.92 516.715 1525.2 516.715 1526.4C516.715 1527.6 517.435 1528.44 520.435 1529.64C524.475 1531.2 526.115 1532.84 526.115 1535.68C526.115 1539.36 523.115 1541.4 518.955 1541.4C516.755 1541.4 514.755 1540.92 513.595 1540.24C513.475 1540.16 513.395 1540.08 513.395 1539.88V1537.2C513.395 1537 513.515 1536.92 513.635 1537C515.235 1538.12 517.275 1538.6 519.035 1538.6C521.595 1538.6 522.835 1537.48 522.835 1536C522.835 1534.52 521.955 1533.64 519.195 1532.56C515.195 1531.04 513.515 1529.4 513.515 1526.56C513.515 1523.68 515.955 1521.16 520.315 1521.16C522.515 1521.16 524.155 1521.56 524.995 1522.04C525.195 1522.12 525.195 1522.28 525.195 1522.44V1524.88C525.195 1525.08 525.075 1525.2 524.875 1525.08ZM530.113 1540.68V1521.84C530.113 1521.64 530.193 1521.56 530.393 1521.56H533.233C533.393 1521.56 533.473 1521.6 533.473 1521.8V1540.72C533.473 1540.92 533.433 1541 533.192 1541H530.433C530.233 1541 530.113 1540.92 530.113 1540.68ZM531.793 1517.72C530.553 1517.72 529.793 1516.88 529.793 1515.68C529.793 1514.48 530.633 1513.64 531.833 1513.64C533.113 1513.64 533.833 1514.52 533.833 1515.68C533.833 1516.88 533.033 1517.72 531.793 1517.72ZM546.897 1521.16C552.537 1521.16 556.017 1525.48 556.017 1531.24C556.017 1537.32 552.257 1541.4 546.897 1541.4C540.457 1541.4 537.697 1536.2 537.697 1531.28C537.697 1525.64 541.297 1521.16 546.897 1521.16ZM546.737 1524.04C543.377 1524.04 541.057 1526.92 541.057 1531.2C541.057 1535.28 543.177 1538.52 546.977 1538.52C549.817 1538.52 552.617 1536.28 552.617 1531.32C552.617 1527.6 550.897 1524.04 546.737 1524.04ZM560.191 1540.72V1526.08C560.191 1524.72 560.111 1522.48 560.031 1521.8C560.031 1521.64 560.071 1521.56 560.271 1521.56H562.751C562.951 1521.56 563.031 1521.64 563.111 1521.8C563.231 1522.16 563.271 1522.92 563.351 1523.8C565.111 1522.04 567.151 1521.16 569.471 1521.16C572.311 1521.16 575.991 1522.56 575.991 1528.88V1540.72C575.991 1540.92 575.911 1541 575.711 1541H572.911C572.711 1541 572.631 1540.92 572.631 1540.68V1529.2C572.631 1526.16 571.311 1524.12 568.511 1524.12C566.471 1524.12 564.791 1525.04 563.511 1526.56V1540.72C563.511 1540.92 563.471 1541 563.271 1541H560.431C560.271 1541 560.191 1540.92 560.191 1540.72Z" fill="#707070"/>
</g>
</g>
<defs>
<clipPath id="clip0_1_126">
<rect width="3800" height="1575" fill="white"/>
</clipPath>
</defs>
</svg>
