<svg width="3800" height="998" viewBox="0 0 3800 998" fill="none" xmlns="http://www.w3.org/2000/svg">
<g clip-path="url(#clip0_1_2)">
<mask id="mask0_1_2" style="mask-type:luminance" maskUnits="userSpaceOnUse" x="0" y="0" width="3800" height="998">
<path d="M3800 0H0V998H3800V0Z" fill="white"/>
</mask>
<g mask="url(#mask0_1_2)">
<path d="M3800 0H0V998H3800V0Z" fill="white"/>
<path d="M1925 100H1647C1635.95 100 1627 108.954 1627 120V264C1627 275.046 1635.95 284 1647 284H1925C1936.05 284 1945 275.046 1945 264V120C1945 108.954 1936.05 100 1925 100Z" fill="#4146CA"/>
<path d="M1925 101H1647C1636.51 101 1628 109.507 1628 120V264C1628 274.493 1636.51 283 1647 283H1925C1935.49 283 1944 274.493 1944 264V120C1944 109.507 1935.49 101 1925 101Z" stroke="#707070" stroke-width="2"/>
<path d="M1728.88 207.68V182.16C1728.88 181.92 1728.92 181.84 1729.12 181.84C1730.76 181.8 1733.92 181.72 1736.96 181.72C1745.04 181.72 1747.84 186.2 1747.84 190.56C1747.84 197.04 1742.84 199.8 1736.68 199.8C1735.6 199.8 1735.36 199.8 1734.4 199.8V207.68C1734.4 207.88 1734.32 208 1734.08 208H1729.16C1728.96 208 1728.88 207.88 1728.88 207.68ZM1734.4 186.64V194.88C1735.08 194.92 1735.52 194.92 1736.64 194.92C1739.8 194.92 1742.32 193.96 1742.32 190.68C1742.32 188.16 1740.6 186.56 1737.12 186.56C1735.84 186.56 1734.76 186.6 1734.4 186.64ZM1763.61 199.52H1755.81C1756.01 201.8 1757.61 203.68 1761.53 203.68C1763.33 203.68 1764.93 203.4 1766.45 202.76C1766.57 202.68 1766.69 202.72 1766.69 202.96V206.76C1766.69 207.04 1766.61 207.16 1766.41 207.24C1764.81 208 1763.05 208.4 1760.29 208.4C1752.77 208.4 1750.13 203.24 1750.13 198.28C1750.13 192.76 1753.53 187.72 1759.81 187.72C1765.85 187.72 1768.25 192.4 1768.25 196.36C1768.25 197.6 1768.17 198.6 1768.05 199.04C1768.01 199.24 1767.93 199.32 1767.73 199.36C1767.21 199.44 1765.69 199.52 1763.61 199.52ZM1755.77 195.64H1761.01C1762.29 195.64 1762.85 195.6 1763.01 195.56C1763.01 195.48 1763.01 195.32 1763.01 195.28C1763.01 194.32 1762.25 192.12 1759.61 192.12C1757.09 192.12 1756.01 194 1755.77 195.64ZM1771.84 188.12H1776.2C1776.48 188.12 1776.6 188.24 1776.68 188.48C1776.88 189 1777.08 189.84 1777.12 190.72C1778.44 189.16 1780.64 187.72 1783.48 187.72C1783.72 187.72 1783.8 187.8 1783.8 188.04V192.96C1783.8 193.16 1783.72 193.24 1783.44 193.24C1780.56 193.12 1778.24 194 1777.4 194.96L1777.36 207.68C1777.36 207.92 1777.28 208 1777 208H1772.2C1771.88 208 1771.8 207.88 1771.8 207.64V193.84C1771.8 192.12 1771.76 189.8 1771.6 188.4C1771.6 188.2 1771.64 188.12 1771.84 188.12ZM1798.79 193.32C1797.47 192.64 1795.43 192.16 1793.63 192.16C1791.75 192.16 1791.15 192.84 1791.15 193.52C1791.15 194.2 1791.67 194.72 1793.99 195.6C1798.83 197.36 1800.35 199.24 1800.35 202.08C1800.35 205.88 1797.39 208.4 1792.11 208.4C1789.67 208.4 1787.55 207.96 1786.31 207.28C1786.11 207.16 1786.03 207.04 1786.03 206.84V202.52C1786.03 202.28 1786.19 202.16 1786.35 202.28C1788.19 203.44 1790.43 203.88 1792.23 203.88C1794.11 203.88 1794.95 203.36 1794.95 202.52C1794.95 201.76 1794.27 201.2 1791.91 200.32C1787.39 198.64 1785.91 196.72 1785.91 193.84C1785.91 190.72 1788.43 187.72 1793.71 187.72C1796.07 187.72 1797.91 188.04 1798.91 188.52C1799.15 188.64 1799.19 188.84 1799.19 189.04V193.04C1799.19 193.28 1799.03 193.44 1798.79 193.32ZM1812.71 187.72C1819.15 187.72 1822.47 192.56 1822.47 197.96C1822.47 204.24 1818.39 208.4 1812.63 208.4C1805.79 208.4 1802.75 203.24 1802.75 198.08C1802.75 192.4 1806.55 187.72 1812.71 187.72ZM1812.47 192.36C1810.15 192.36 1808.39 194.44 1808.39 198C1808.39 201.52 1810.03 203.76 1812.71 203.76C1815.03 203.76 1816.79 201.76 1816.79 198.08C1816.79 194.96 1815.51 192.36 1812.47 192.36ZM1826.06 207.64V192.76C1826.06 191.4 1825.98 189.32 1825.9 188.44C1825.86 188.24 1825.94 188.12 1826.18 188.12H1830.38C1830.7 188.12 1830.82 188.24 1830.9 188.44C1831.06 188.8 1831.14 189.2 1831.22 189.76C1832.9 188.4 1834.78 187.72 1836.9 187.72C1839.98 187.72 1843.62 189.32 1843.62 195.76V207.64C1843.62 207.88 1843.54 208 1843.26 208H1838.46C1838.18 208 1838.06 207.88 1838.06 207.64V196.24C1838.06 193.84 1837.02 192.56 1834.94 192.56C1833.58 192.56 1832.46 193.04 1831.62 193.8V207.68C1831.62 207.88 1831.5 208 1831.26 208H1826.42C1826.14 208 1826.06 207.88 1826.06 207.64Z" fill="white"/>
<path d="M2153 398H1875C1863.95 398 1855 406.954 1855 418V562C1855 573.046 1863.95 582 1875 582H2153C2164.05 582 2173 573.046 2173 562V418C2173 406.954 2164.05 398 2153 398Z" fill="#6F7071"/>
<path d="M2153 399H1875C1864.51 399 1856 407.507 1856 418V562C1856 572.493 1864.51 581 1875 581H2153C2163.49 581 2172 572.493 2172 562V418C2172 407.507 2163.49 399 2153 399Z" stroke="#707070" stroke-width="2" stroke-dasharray="3 3"/>
<path d="M1958.04 506.4C1955.08 506.4 1952.64 505.88 1950.96 505C1950.76 504.88 1950.68 504.68 1950.68 504.36V499.6C1950.68 499.4 1950.84 499.28 1951 499.4C1953.2 500.8 1955.84 501.48 1958.24 501.48C1961.28 501.48 1962.48 500.44 1962.48 499.04C1962.48 497.76 1961.56 496.84 1958.84 495.68L1956.84 494.84C1951.92 492.76 1950.56 490.28 1950.56 487.16C1950.56 482.84 1953.84 479.4 1960.2 479.4C1962.72 479.4 1965 479.72 1966.44 480.44C1966.64 480.56 1966.68 480.72 1966.68 480.96V485.44C1966.68 485.6 1966.56 485.8 1966.32 485.64C1964.72 484.72 1962.52 484.32 1960.16 484.32C1957.08 484.32 1956 485.36 1956 486.68C1956 487.92 1956.84 488.76 1959.84 489.96L1961.32 490.56C1966.64 492.76 1968.12 495.28 1968.12 498.52C1968.12 503.36 1964.2 506.4 1958.04 506.4ZM1984.27 497.52H1976.47C1976.67 499.8 1978.27 501.68 1982.19 501.68C1983.99 501.68 1985.59 501.4 1987.11 500.76C1987.23 500.68 1987.35 500.72 1987.35 500.96V504.76C1987.35 505.04 1987.27 505.16 1987.07 505.24C1985.47 506 1983.71 506.4 1980.95 506.4C1973.43 506.4 1970.79 501.24 1970.79 496.28C1970.79 490.76 1974.19 485.72 1980.47 485.72C1986.51 485.72 1988.91 490.4 1988.91 494.36C1988.91 495.6 1988.83 496.6 1988.71 497.04C1988.67 497.24 1988.59 497.32 1988.39 497.36C1987.87 497.44 1986.35 497.52 1984.27 497.52ZM1976.43 493.64H1981.67C1982.95 493.64 1983.51 493.6 1983.67 493.56C1983.67 493.48 1983.67 493.32 1983.67 493.28C1983.67 492.32 1982.91 490.12 1980.27 490.12C1977.75 490.12 1976.67 492 1976.43 493.64ZM2004.41 491.32C2003.09 490.64 2001.05 490.16 1999.25 490.16C1997.37 490.16 1996.77 490.84 1996.77 491.52C1996.77 492.2 1997.29 492.72 1999.61 493.6C2004.45 495.36 2005.97 497.24 2005.97 500.08C2005.97 503.88 2003.01 506.4 1997.73 506.4C1995.29 506.4 1993.17 505.96 1991.93 505.28C1991.73 505.16 1991.65 505.04 1991.65 504.84V500.52C1991.65 500.28 1991.81 500.16 1991.97 500.28C1993.81 501.44 1996.05 501.88 1997.85 501.88C1999.73 501.88 2000.57 501.36 2000.57 500.52C2000.57 499.76 1999.89 499.2 1997.53 498.32C1993.01 496.64 1991.53 494.72 1991.53 491.84C1991.53 488.72 1994.05 485.72 1999.33 485.72C2001.69 485.72 2003.53 486.04 2004.53 486.52C2004.77 486.64 2004.81 486.84 2004.81 487.04V491.04C2004.81 491.28 2004.65 491.44 2004.41 491.32ZM2021.36 491.32C2020.04 490.64 2018 490.16 2016.2 490.16C2014.32 490.16 2013.72 490.84 2013.72 491.52C2013.72 492.2 2014.24 492.72 2016.56 493.6C2021.4 495.36 2022.92 497.24 2022.92 500.08C2022.92 503.88 2019.96 506.4 2014.68 506.4C2012.24 506.4 2010.12 505.96 2008.88 505.28C2008.68 505.16 2008.6 505.04 2008.6 504.84V500.52C2008.6 500.28 2008.76 500.16 2008.92 500.28C2010.76 501.44 2013 501.88 2014.8 501.88C2016.68 501.88 2017.52 501.36 2017.52 500.52C2017.52 499.76 2016.84 499.2 2014.48 498.32C2009.96 496.64 2008.48 494.72 2008.48 491.84C2008.48 488.72 2011 485.72 2016.28 485.72C2018.64 485.72 2020.48 486.04 2021.48 486.52C2021.72 486.64 2021.76 486.84 2021.76 487.04V491.04C2021.76 491.28 2021.6 491.44 2021.36 491.32ZM2026.29 505.64V486.44C2026.29 486.24 2026.37 486.12 2026.61 486.12H2031.53C2031.77 486.12 2031.85 486.2 2031.85 486.44V505.64C2031.85 505.88 2031.81 506 2031.49 506H2026.69C2026.41 506 2026.29 505.88 2026.29 505.64ZM2029.09 484C2027.21 484 2026.01 482.76 2026.01 480.88C2026.01 479.08 2027.33 477.8 2029.13 477.8C2031.05 477.8 2032.21 479.08 2032.21 480.88C2032.21 482.76 2030.97 484 2029.09 484ZM2045.4 485.72C2051.84 485.72 2055.16 490.56 2055.16 495.96C2055.16 502.24 2051.08 506.4 2045.32 506.4C2038.48 506.4 2035.44 501.24 2035.44 496.08C2035.44 490.4 2039.24 485.72 2045.4 485.72ZM2045.16 490.36C2042.84 490.36 2041.08 492.44 2041.08 496C2041.08 499.52 2042.72 501.76 2045.4 501.76C2047.72 501.76 2049.48 499.76 2049.48 496.08C2049.48 492.96 2048.2 490.36 2045.16 490.36ZM2058.75 505.64V490.76C2058.75 489.4 2058.67 487.32 2058.59 486.44C2058.55 486.24 2058.63 486.12 2058.87 486.12H2063.07C2063.39 486.12 2063.51 486.24 2063.59 486.44C2063.75 486.8 2063.83 487.2 2063.91 487.76C2065.59 486.4 2067.47 485.72 2069.59 485.72C2072.67 485.72 2076.31 487.32 2076.31 493.76V505.64C2076.31 505.88 2076.23 506 2075.95 506H2071.15C2070.87 506 2070.75 505.88 2070.75 505.64V494.24C2070.75 491.84 2069.71 490.56 2067.63 490.56C2066.27 490.56 2065.15 491.04 2064.31 491.8V505.68C2064.31 505.88 2064.19 506 2063.95 506H2059.11C2058.83 506 2058.75 505.88 2058.75 505.64Z" fill="white"/>
<path d="M1925 694H1647C1635.95 694 1627 702.954 1627 714V858C1627 869.046 1635.95 878 1647 878H1925C1936.05 878 1945 869.046 1945 858V714C1945 702.954 1936.05 694 1925 694Z" fill="#31B880"/>
<path d="M1758.3 797.36L1757.62 801.64C1757.58 801.96 1757.5 802 1757.22 802H1740.94C1740.7 802 1740.62 801.88 1740.62 801.64V776.16C1740.62 775.92 1740.7 775.8 1740.94 775.8H1756.74C1757.06 775.8 1757.14 775.84 1757.18 776.12L1757.62 780.44C1757.66 780.64 1757.62 780.8 1757.34 780.8H1746.18V786.16H1756.38C1756.58 786.16 1756.7 786.24 1756.7 786.48V790.88C1756.7 791.12 1756.54 791.16 1756.38 791.16H1746.18V797H1757.98C1758.3 797 1758.34 797.12 1758.3 797.36ZM1771.12 802H1765.88C1765.6 802 1765.48 801.88 1765.4 801.72C1763.88 797.2 1760.52 787.04 1758.88 782.44C1758.84 782.28 1758.92 782.12 1759.16 782.12H1764.4C1764.68 782.12 1764.76 782.2 1764.84 782.4C1767.44 791.4 1768.32 794.96 1768.72 796.76H1768.8C1769.2 794.96 1770.24 791.36 1773.04 782.4C1773.12 782.2 1773.2 782.12 1773.4 782.12H1778.04C1778.2 782.12 1778.36 782.24 1778.28 782.48C1776.56 787.2 1773.2 797.32 1771.6 801.68C1771.48 801.88 1771.4 802 1771.12 802ZM1793.08 793.52H1785.28C1785.48 795.8 1787.08 797.68 1791 797.68C1792.8 797.68 1794.4 797.4 1795.92 796.76C1796.04 796.68 1796.16 796.72 1796.16 796.96V800.76C1796.16 801.04 1796.08 801.16 1795.88 801.24C1794.28 802 1792.52 802.4 1789.76 802.4C1782.24 802.4 1779.6 797.24 1779.6 792.28C1779.6 786.76 1783 781.72 1789.28 781.72C1795.32 781.72 1797.72 786.4 1797.72 790.36C1797.72 791.6 1797.64 792.6 1797.52 793.04C1797.48 793.24 1797.4 793.32 1797.2 793.36C1796.68 793.44 1795.16 793.52 1793.08 793.52ZM1785.24 789.64H1790.48C1791.76 789.64 1792.32 789.6 1792.48 789.56C1792.48 789.48 1792.48 789.32 1792.48 789.28C1792.48 788.32 1791.72 786.12 1789.08 786.12C1786.56 786.12 1785.48 788 1785.24 789.64ZM1801.27 801.64V786.76C1801.27 785.4 1801.19 783.32 1801.11 782.44C1801.07 782.24 1801.15 782.12 1801.39 782.12H1805.59C1805.91 782.12 1806.03 782.24 1806.11 782.44C1806.27 782.8 1806.35 783.2 1806.43 783.76C1808.11 782.4 1809.99 781.72 1812.11 781.72C1815.19 781.72 1818.83 783.32 1818.83 789.76V801.64C1818.83 801.88 1818.75 802 1818.47 802H1813.67C1813.39 802 1813.27 801.88 1813.27 801.64V790.24C1813.27 787.84 1812.23 786.56 1810.15 786.56C1808.79 786.56 1807.67 787.04 1806.83 787.8V801.68C1806.83 801.88 1806.71 802 1806.47 802H1801.63C1801.35 802 1801.27 801.88 1801.27 801.64ZM1833.42 798V801.32C1833.42 801.56 1833.38 801.76 1833.14 801.84C1832.02 802.24 1830.98 802.4 1829.58 802.4C1826.1 802.4 1824.06 800.68 1824.06 796.68V786.76H1821.66C1821.42 786.72 1821.34 786.64 1821.34 786.4V782.48C1821.34 782.2 1821.42 782.12 1821.7 782.12H1824.1C1824.14 780.76 1824.3 778.4 1824.5 777.28C1824.54 777.08 1824.66 776.96 1824.86 776.92L1829.54 776.32C1829.74 776.28 1829.86 776.28 1829.86 776.56C1829.74 777.8 1829.66 780.16 1829.66 782.12H1833.34C1833.58 782.12 1833.66 782.2 1833.66 782.44V786.48C1833.66 786.68 1833.58 786.72 1833.38 786.76H1829.62V795.32C1829.62 797.08 1830.14 797.88 1831.78 797.88C1832.26 797.88 1832.66 797.8 1833.14 797.72C1833.3 797.72 1833.42 797.76 1833.42 798Z" fill="white"/>
<path d="M2011.5 786.5H1945.5" stroke="#707070" stroke-dasharray="2 2"/>
<path d="M2014 192H1945" stroke="#707070" stroke-dasharray="2 2"/>
<path d="M1777.5 284.5V694.5" stroke="#707070"/>
<path d="M2014.5 192.5L2011.5 398" stroke="#707070" stroke-dasharray="2 2"/>
<path d="M2011.5 582V786.5" stroke="#707070" stroke-dasharray="2 2"/>
<path d="M79 924H55C52.2386 924 50 926.239 50 929V948C50 950.761 52.2386 953 55 953H79C81.7614 953 84 950.761 84 948V929C84 926.239 81.7614 924 79 924Z" fill="#31B880"/>
<path d="M113.44 950.2L113 952.76C112.96 952.96 112.88 953 112.72 953H97.52C97.24 953 97.2 952.92 97.2 952.68V926.84C97.2 926.64 97.28 926.56 97.48 926.56H112.08C112.28 926.56 112.32 926.6 112.36 926.8L112.68 929.32C112.72 929.48 112.68 929.6 112.48 929.6H100.52V937.96H111.32C111.48 937.96 111.56 938.04 111.56 938.2V940.76C111.56 940.96 111.44 941 111.32 941H100.52V949.96H113.24C113.44 949.96 113.48 950.04 113.44 950.2ZM124.68 953H121.44C121.2 953 121.16 952.92 121.08 952.8C120.24 950.36 115.32 936.52 114.36 933.84C114.32 933.68 114.32 933.56 114.52 933.56H117.6C117.8 933.56 117.84 933.64 117.92 933.8C121.28 943.92 122.72 948.28 123.16 949.92H123.24C123.72 948.28 125.2 944 128.72 933.76C128.8 933.6 128.88 933.56 129.04 933.56H131.8C131.92 933.56 132.04 933.64 131.96 933.84C130.8 936.96 125.92 950.36 125.04 952.76C124.96 952.92 124.88 953 124.68 953ZM146.035 943.68H137.315C137.275 947.48 139.475 950.48 143.995 950.48C145.755 950.48 147.435 950.16 148.995 949.4C149.115 949.32 149.195 949.4 149.195 949.56V951.84C149.195 952.08 149.115 952.16 148.995 952.24C147.635 952.92 145.875 953.4 143.355 953.4C136.435 953.4 133.955 948.32 133.955 943.44C133.955 937.84 137.235 933.16 142.795 933.16C148.515 933.16 150.595 937.8 150.595 941.2C150.595 942.2 150.515 942.92 150.435 943.28C150.435 943.4 150.315 943.52 150.155 943.52C149.555 943.64 147.795 943.68 146.035 943.68ZM137.355 941.2H144.795C146.755 941.2 147.235 941.16 147.355 941.12C147.395 941 147.395 940.8 147.395 940.68C147.395 939.24 146.435 935.92 142.675 935.92C139.355 935.92 137.715 938.52 137.355 941.2ZM154.652 952.72V938.08C154.652 936.72 154.572 934.48 154.492 933.8C154.492 933.64 154.532 933.56 154.732 933.56H157.212C157.412 933.56 157.492 933.64 157.572 933.8C157.692 934.16 157.732 934.92 157.812 935.8C159.572 934.04 161.612 933.16 163.932 933.16C166.772 933.16 170.452 934.56 170.452 940.88V952.72C170.452 952.92 170.372 953 170.172 953H167.372C167.172 953 167.092 952.92 167.092 952.68V941.2C167.092 938.16 165.772 936.12 162.972 936.12C160.932 936.12 159.252 937.04 157.972 938.56V952.72C157.972 952.92 157.932 953 157.732 953H154.892C154.732 953 154.652 952.92 154.652 952.72ZM184.418 950.4V952.44C184.418 952.6 184.378 952.76 184.178 952.84C183.258 953.24 182.258 953.4 181.178 953.4C178.258 953.4 176.498 952 176.498 948.16V936.44H173.778C173.538 936.4 173.498 936.32 173.498 936.12V933.84C173.498 933.64 173.578 933.56 173.778 933.56H176.498C176.538 932.08 176.698 929.32 176.858 928.44C176.898 928.28 176.978 928.2 177.138 928.16L179.858 927.72C180.018 927.68 180.098 927.72 180.098 927.88C179.978 929.28 179.858 931.6 179.858 933.56H184.098C184.258 933.56 184.338 933.64 184.338 933.84V936.2C184.338 936.36 184.258 936.44 184.098 936.44H179.858V947.68C179.858 949.52 180.538 950.56 182.298 950.56C182.898 950.56 183.498 950.48 184.178 950.24C184.298 950.2 184.418 950.2 184.418 950.4Z" fill="#707070"/>
<path d="M254 925H230C227.239 925 225 927.239 225 930V949C225 951.761 227.239 954 230 954H254C256.761 954 259 951.761 259 949V930C259 927.239 256.761 925 254 925Z" fill="#4146C9"/>
<path d="M272.2 952.76V926.88C272.2 926.72 272.24 926.6 272.4 926.6C273.68 926.56 276.32 926.48 279 926.48C286.08 926.48 289.2 930.48 289.2 934.96C289.2 941.04 284.4 943.88 278.6 943.88C276.92 943.88 276.4 943.84 275.52 943.84V952.72C275.52 952.92 275.48 953 275.28 953H272.44C272.28 953 272.2 952.92 272.2 952.76ZM275.52 929.52V940.84C276.2 940.88 276.88 940.88 278.56 940.88C282.48 940.88 285.88 939.4 285.88 935.04C285.88 931.4 283.08 929.44 279.04 929.44C277.4 929.44 276.16 929.48 275.52 929.52ZM293.011 933.56H295.571C295.811 933.56 295.851 933.64 295.931 933.84C296.091 934.32 296.211 935.72 296.251 936.6C297.651 934.68 300.131 933.16 302.691 933.16C302.891 933.16 302.971 933.2 302.971 933.44V936.32C302.971 936.52 302.931 936.56 302.691 936.56C299.931 936.52 297.411 937.88 296.411 939.48L296.371 952.76C296.371 952.96 296.291 953 296.131 953H293.291C293.091 953 293.011 952.92 293.011 952.72V938.92C293.011 937.24 292.931 934.92 292.811 933.8C292.811 933.64 292.851 933.56 293.011 933.56ZM313.858 933.16C319.498 933.16 322.978 937.48 322.978 943.24C322.978 949.32 319.218 953.4 313.858 953.4C307.418 953.4 304.658 948.2 304.658 943.28C304.658 937.64 308.258 933.16 313.858 933.16ZM313.698 936.04C310.338 936.04 308.018 938.92 308.018 943.2C308.018 947.28 310.138 950.52 313.938 950.52C316.778 950.52 319.578 948.28 319.578 943.32C319.578 939.6 317.858 936.04 313.698 936.04ZM337.752 952.68V933.84C337.752 933.64 337.832 933.56 337.992 933.56H340.832C341.032 933.56 341.112 933.6 341.112 933.8V952.72C341.112 952.92 341.032 953 340.832 953H338.072C337.832 953 337.752 952.92 337.752 952.68ZM339.432 929.68C338.232 929.68 337.472 928.88 337.472 927.72C337.472 926.56 338.272 925.72 339.432 925.72C340.672 925.72 341.392 926.56 341.392 927.72C341.392 928.84 340.592 929.68 339.432 929.68ZM327.512 936.44H324.912C324.752 936.44 324.712 936.36 324.712 936.16V933.8C324.712 933.64 324.792 933.56 324.912 933.56H327.512V931.8C327.512 929.68 327.792 928.12 328.392 926.92C329.432 924.92 331.152 923.92 333.552 923.92C334.472 923.92 334.992 924 335.352 924.16C335.512 924.24 335.552 924.36 335.552 924.48V926.92C335.552 927.08 335.472 927.16 335.312 927.12C334.832 926.92 334.312 926.88 333.872 926.88C332.072 926.88 330.832 927.76 330.832 931.6V933.56H334.672C334.872 933.56 334.912 933.64 334.912 933.76V936.16C334.912 936.36 334.832 936.4 334.672 936.44H330.832V952.72C330.832 952.88 330.792 953 330.592 953H327.752C327.592 953 327.512 952.92 327.512 952.72V936.44ZM346.683 948.96V924.56C346.683 924.36 346.763 924.32 346.963 924.32H349.763C349.963 924.32 350.003 924.4 350.003 924.56V948.68C350.003 950.24 350.643 950.6 351.603 950.6C351.883 950.6 352.043 950.56 352.403 950.48C352.523 950.48 352.563 950.56 352.563 950.72V952.8C352.563 953 352.523 953.04 352.363 953.12C352.003 953.28 351.363 953.4 350.523 953.4C348.563 953.4 346.683 952.72 346.683 948.96ZM367.011 943.68H358.291C358.251 947.48 360.451 950.48 364.971 950.48C366.731 950.48 368.411 950.16 369.971 949.4C370.091 949.32 370.171 949.4 370.171 949.56V951.84C370.171 952.08 370.091 952.16 369.971 952.24C368.611 952.92 366.851 953.4 364.331 953.4C357.411 953.4 354.931 948.32 354.931 943.44C354.931 937.84 358.211 933.16 363.771 933.16C369.491 933.16 371.571 937.8 371.571 941.2C371.571 942.2 371.491 942.92 371.411 943.28C371.411 943.4 371.291 943.52 371.131 943.52C370.531 943.64 368.771 943.68 367.011 943.68ZM358.331 941.2H365.771C367.731 941.2 368.211 941.16 368.331 941.12C368.371 941 368.371 940.8 368.371 940.68C368.371 939.24 367.411 935.92 363.651 935.92C360.331 935.92 358.691 938.52 358.331 941.2Z" fill="#707070"/>
<path d="M272.2 952.76V926.88C272.2 926.72 272.24 926.6 272.4 926.6C273.68 926.56 276.32 926.48 279 926.48C286.08 926.48 289.2 930.48 289.2 934.96C289.2 941.04 284.4 943.88 278.6 943.88C276.92 943.88 276.4 943.84 275.52 943.84V952.72C275.52 952.92 275.48 953 275.28 953H272.44C272.28 953 272.2 952.92 272.2 952.76ZM275.52 929.52V940.84C276.2 940.88 276.88 940.88 278.56 940.88C282.48 940.88 285.88 939.4 285.88 935.04C285.88 931.4 283.08 929.44 279.04 929.44C277.4 929.44 276.16 929.48 275.52 929.52ZM293.011 933.56H295.571C295.811 933.56 295.851 933.64 295.931 933.84C296.091 934.32 296.211 935.72 296.251 936.6C297.651 934.68 300.131 933.16 302.691 933.16C302.891 933.16 302.971 933.2 302.971 933.44V936.32C302.971 936.52 302.931 936.56 302.691 936.56C299.931 936.52 297.411 937.88 296.411 939.48L296.371 952.76C296.371 952.96 296.291 953 296.131 953H293.291C293.091 953 293.011 952.92 293.011 952.72V938.92C293.011 937.24 292.931 934.92 292.811 933.8C292.811 933.64 292.851 933.56 293.011 933.56ZM313.858 933.16C319.498 933.16 322.978 937.48 322.978 943.24C322.978 949.32 319.218 953.4 313.858 953.4C307.418 953.4 304.658 948.2 304.658 943.28C304.658 937.64 308.258 933.16 313.858 933.16ZM313.698 936.04C310.338 936.04 308.018 938.92 308.018 943.2C308.018 947.28 310.138 950.52 313.938 950.52C316.778 950.52 319.578 948.28 319.578 943.32C319.578 939.6 317.858 936.04 313.698 936.04ZM337.752 952.68V933.84C337.752 933.64 337.832 933.56 337.992 933.56H340.832C341.032 933.56 341.112 933.6 341.112 933.8V952.72C341.112 952.92 341.032 953 340.832 953H338.072C337.832 953 337.752 952.92 337.752 952.68ZM339.432 929.68C338.232 929.68 337.472 928.88 337.472 927.72C337.472 926.56 338.272 925.72 339.432 925.72C340.672 925.72 341.392 926.56 341.392 927.72C341.392 928.84 340.592 929.68 339.432 929.68ZM327.512 936.44H324.912C324.752 936.44 324.712 936.36 324.712 936.16V933.8C324.712 933.64 324.792 933.56 324.912 933.56H327.512V931.8C327.512 929.68 327.792 928.12 328.392 926.92C329.432 924.92 331.152 923.92 333.552 923.92C334.472 923.92 334.992 924 335.352 924.16C335.512 924.24 335.552 924.36 335.552 924.48V926.92C335.552 927.08 335.472 927.16 335.312 927.12C334.832 926.92 334.312 926.88 333.872 926.88C332.072 926.88 330.832 927.76 330.832 931.6V933.56H334.672C334.872 933.56 334.912 933.64 334.912 933.76V936.16C334.912 936.36 334.832 936.4 334.672 936.44H330.832V952.72C330.832 952.88 330.792 953 330.592 953H327.752C327.592 953 327.512 952.92 327.512 952.72V936.44ZM346.683 948.96V924.56C346.683 924.36 346.763 924.32 346.963 924.32H349.763C349.963 924.32 350.003 924.4 350.003 924.56V948.68C350.003 950.24 350.643 950.6 351.603 950.6C351.883 950.6 352.043 950.56 352.403 950.48C352.523 950.48 352.563 950.56 352.563 950.72V952.8C352.563 953 352.523 953.04 352.363 953.12C352.003 953.28 351.363 953.4 350.523 953.4C348.563 953.4 346.683 952.72 346.683 948.96ZM367.011 943.68H358.291C358.251 947.48 360.451 950.48 364.971 950.48C366.731 950.48 368.411 950.16 369.971 949.4C370.091 949.32 370.171 949.4 370.171 949.56V951.84C370.171 952.08 370.091 952.16 369.971 952.24C368.611 952.92 366.851 953.4 364.331 953.4C357.411 953.4 354.931 948.32 354.931 943.44C354.931 937.84 358.211 933.16 363.771 933.16C369.491 933.16 371.571 937.8 371.571 941.2C371.571 942.2 371.491 942.92 371.411 943.28C371.411 943.4 371.291 943.52 371.131 943.52C370.531 943.64 368.771 943.68 367.011 943.68ZM358.331 941.2H365.771C367.731 941.2 368.211 941.16 368.331 941.12C368.371 941 368.371 940.8 368.371 940.68C368.371 939.24 367.411 935.92 363.651 935.92C360.331 935.92 358.691 938.52 358.331 941.2Z" fill="#707070"/>
<path d="M442 925H418C415.239 925 413 927.239 413 930V949C413 951.761 415.239 954 418 954H442C444.761 954 447 951.761 447 949V930C447 927.239 444.761 925 442 925Z" fill="#70716F"/>
<path d="M465.48 953.4C462.72 953.4 460.28 952.8 458.72 951.88C458.52 951.8 458.48 951.64 458.48 951.4V948.52C458.48 948.36 458.6 948.28 458.76 948.4C460.84 949.8 463.4 950.36 465.6 950.36C469.44 950.36 471.2 948.64 471.2 946.24C471.2 944.36 470.12 942.96 466.48 941.32L464.72 940.6C459.76 938.48 458.64 935.96 458.64 933.28C458.64 929.12 461.84 926.16 467.24 926.16C469.76 926.16 471.92 926.56 473.16 927.24C473.32 927.32 473.36 927.44 473.36 927.64V930.32C473.36 930.48 473.24 930.6 473.04 930.48C471.64 929.6 469.44 929.16 467.16 929.16C463 929.16 461.88 931.32 461.88 933C461.88 934.8 462.92 936.16 466.48 937.68L468.2 938.4C473.12 940.48 474.56 942.96 474.56 945.96C474.56 950.28 471.32 953.4 465.48 953.4ZM489.933 943.68H481.213C481.173 947.48 483.373 950.48 487.893 950.48C489.653 950.48 491.333 950.16 492.893 949.4C493.013 949.32 493.093 949.4 493.093 949.56V951.84C493.093 952.08 493.013 952.16 492.893 952.24C491.533 952.92 489.773 953.4 487.253 953.4C480.333 953.4 477.853 948.32 477.853 943.44C477.853 937.84 481.133 933.16 486.693 933.16C492.413 933.16 494.493 937.8 494.493 941.2C494.493 942.2 494.413 942.92 494.333 943.28C494.333 943.4 494.213 943.52 494.053 943.52C493.453 943.64 491.693 943.68 489.933 943.68ZM481.253 941.2H488.693C490.653 941.2 491.133 941.16 491.253 941.12C491.293 941 491.293 940.8 491.293 940.68C491.293 939.24 490.333 935.92 486.573 935.92C483.253 935.92 481.613 938.52 481.253 941.2ZM509.133 937.08C508.013 936.4 506.173 935.92 504.493 935.92C501.853 935.92 500.973 937.2 500.973 938.4C500.973 939.6 501.693 940.44 504.693 941.64C508.733 943.2 510.373 944.84 510.373 947.68C510.373 951.36 507.373 953.4 503.213 953.4C501.013 953.4 499.013 952.92 497.853 952.24C497.733 952.16 497.653 952.08 497.653 951.88V949.2C497.653 949 497.773 948.92 497.893 949C499.493 950.12 501.533 950.6 503.293 950.6C505.853 950.6 507.093 949.48 507.093 948C507.093 946.52 506.213 945.64 503.453 944.56C499.453 943.04 497.773 941.4 497.773 938.56C497.773 935.68 500.213 933.16 504.573 933.16C506.773 933.16 508.413 933.56 509.253 934.04C509.453 934.12 509.453 934.28 509.453 934.44V936.88C509.453 937.08 509.333 937.2 509.133 937.08ZM524.875 937.08C523.755 936.4 521.915 935.92 520.235 935.92C517.595 935.92 516.715 937.2 516.715 938.4C516.715 939.6 517.435 940.44 520.435 941.64C524.475 943.2 526.115 944.84 526.115 947.68C526.115 951.36 523.115 953.4 518.955 953.4C516.755 953.4 514.755 952.92 513.595 952.24C513.475 952.16 513.395 952.08 513.395 951.88V949.2C513.395 949 513.515 948.92 513.635 949C515.235 950.12 517.275 950.6 519.035 950.6C521.595 950.6 522.835 949.48 522.835 948C522.835 946.52 521.955 945.64 519.195 944.56C515.195 943.04 513.515 941.4 513.515 938.56C513.515 935.68 515.955 933.16 520.315 933.16C522.515 933.16 524.155 933.56 524.995 934.04C525.195 934.12 525.195 934.28 525.195 934.44V936.88C525.195 937.08 525.075 937.2 524.875 937.08ZM530.113 952.68V933.84C530.113 933.64 530.193 933.56 530.393 933.56H533.233C533.393 933.56 533.473 933.6 533.473 933.8V952.72C533.473 952.92 533.433 953 533.192 953H530.433C530.233 953 530.113 952.92 530.113 952.68ZM531.793 929.72C530.553 929.72 529.793 928.88 529.793 927.68C529.793 926.48 530.633 925.64 531.833 925.64C533.113 925.64 533.833 926.52 533.833 927.68C533.833 928.88 533.033 929.72 531.793 929.72ZM546.897 933.16C552.537 933.16 556.017 937.48 556.017 943.24C556.017 949.32 552.257 953.4 546.897 953.4C540.457 953.4 537.697 948.2 537.697 943.28C537.697 937.64 541.297 933.16 546.897 933.16ZM546.737 936.04C543.377 936.04 541.057 938.92 541.057 943.2C541.057 947.28 543.177 950.52 546.977 950.52C549.817 950.52 552.617 948.28 552.617 943.32C552.617 939.6 550.897 936.04 546.737 936.04ZM560.191 952.72V938.08C560.191 936.72 560.111 934.48 560.031 933.8C560.031 933.64 560.071 933.56 560.271 933.56H562.751C562.951 933.56 563.031 933.64 563.111 933.8C563.231 934.16 563.271 934.92 563.351 935.8C565.111 934.04 567.151 933.16 569.471 933.16C572.311 933.16 575.991 934.56 575.991 940.88V952.72C575.991 952.92 575.911 953 575.711 953H572.911C572.711 953 572.631 952.92 572.631 952.68V941.2C572.631 938.16 571.311 936.12 568.511 936.12C566.471 936.12 564.791 937.04 563.511 938.56V952.72C563.511 952.92 563.471 953 563.271 953H560.431C560.271 953 560.191 952.92 560.191 952.72Z" fill="#707070"/>
</g>
</g>
<defs>
<clipPath id="clip0_1_2">
<rect width="3800" height="998" fill="white"/>
</clipPath>
</defs>
</svg>
