<svg width="1024" height="378" viewBox="0 0 1024 378" fill="none" xmlns="http://www.w3.org/2000/svg">
<g clip-path="url(#clip0_61_2)">
<mask id="mask0_61_2" style="mask-type:luminance" maskUnits="userSpaceOnUse" x="0" y="0" width="1024" height="378">
<path d="M1024 0H0V378H1024V0Z" fill="white"/>
</mask>
<g mask="url(#mask0_61_2)">
<path d="M1024 0H0V378H1024V0Z" fill="white"/>
<mask id="mask1_61_2" style="mask-type:luminance" maskUnits="userSpaceOnUse" x="40" y="54" width="153" height="176">
<path d="M193 54H40V230H193V54Z" fill="white"/>
</mask>
<g mask="url(#mask1_61_2)">
<path d="M116.5 116.5C154.055 116.5 184.5 106.986 184.5 95.25C184.5 83.5139 154.055 74 116.5 74C78.9446 74 48.5 83.5139 48.5 95.25C48.5 106.986 78.9446 116.5 116.5 116.5Z" fill="#464646"/>
<path d="M116.5 168.669C95.522 168.669 56.1 163.701 48.5 151.669V188.75C48.5 200.484 78.943 210 116.5 210C154.057 210 184.5 200.484 184.5 188.75V151.65C174.1 164.8 137.478 168.669 116.5 168.669Z" fill="#464646"/>
<path d="M116.5 126.169C95.522 126.169 56.1 121.201 48.5 109.148V137.748C48.5 149.482 78.943 158.998 116.5 158.998C154.057 158.998 184.5 149.482 184.5 137.748V109.148C174.1 122.3 137.478 126.169 116.5 126.169Z" fill="#464646"/>
</g>
<mask id="mask2_61_2" style="mask-type:luminance" maskUnits="userSpaceOnUse" x="780" y="61" width="146" height="169">
<path d="M926 61H780V230H926V61Z" fill="white"/>
</mask>
<g mask="url(#mask2_61_2)">
<path d="M853 121.015C888.838 121.015 917.889 111.879 917.889 100.61C917.889 89.3407 888.838 80.2051 853 80.2051C817.163 80.2051 788.111 89.3407 788.111 100.61C788.111 111.879 817.163 121.015 853 121.015Z" fill="#464646"/>
<path d="M853 171.109C832.982 171.109 795.362 166.338 788.111 154.785V190.391C788.111 201.659 817.161 210.791 853 210.791C888.839 210.791 917.889 201.654 917.889 190.391V154.764C907.965 167.395 873.018 171.109 853 171.109Z" fill="#464646"/>
<path d="M853 130.299C832.982 130.299 795.362 125.528 788.111 113.955V141.419C788.111 152.687 817.161 161.819 853 161.819C888.839 161.819 917.889 152.682 917.889 141.419V113.955C907.965 126.585 873.018 130.299 853 130.299Z" fill="#464646"/>
</g>
<path d="M55.92 273.66C59.84 273.66 62.08 276.66 62.1 280.36C62.12 284.5 59.56 287.2 55.92 287.2C52.04 287.2 49.72 284.32 49.72 280.42C49.72 276.58 52.24 273.66 55.92 273.66ZM52.22 280.42C52.22 283 53.54 285.06 56 285.06C58.26 285.06 59.62 283.2 59.6 280.42C59.6 277.62 58.22 275.8 55.88 275.8C53.76 275.8 52.22 277.46 52.22 280.42ZM64.1277 277.14H66.0077C66.1277 277.14 66.1877 277.18 66.2277 277.3C66.3277 277.56 66.4077 278.06 66.4277 278.5C67.1077 277.66 68.2477 276.94 69.6277 276.94C69.7477 276.94 69.7877 276.96 69.7877 277.08V279.2C69.7877 279.3 69.7477 279.34 69.6077 279.34C68.1877 279.3 67.0077 279.8 66.5477 280.4V286.84C66.5477 286.96 66.4877 287 66.3677 287H64.2877C64.1477 287 64.1077 286.94 64.1077 286.84V279.94C64.1077 279.08 64.0877 277.92 64.0077 277.26C64.0077 277.16 64.0277 277.14 64.1277 277.14ZM71.2366 286.82V277.28C71.2366 277.18 71.2966 277.14 71.3966 277.14H73.5166C73.6366 277.14 73.6766 277.16 73.6766 277.28V286.84C73.6766 286.96 73.6366 287 73.4966 287H71.4366C71.2966 287 71.2366 286.94 71.2366 286.82ZM72.4566 275.8C71.6366 275.8 71.0966 275.24 71.0966 274.42C71.0966 273.6 71.6766 273.04 72.4766 273.04C73.3366 273.04 73.8366 273.62 73.8366 274.42C73.8366 275.24 73.2966 275.8 72.4566 275.8ZM80.5036 286.94L78.3236 286.84C77.7436 287.24 77.3636 287.88 77.3636 288.18C77.3636 288.88 78.3236 289.66 79.9836 289.66C81.8836 289.66 82.7236 288.88 82.7236 288.12C82.7236 287.24 81.7236 287 80.5036 286.94ZM79.5436 278.68C78.5436 278.68 77.9236 279.3 77.9236 280.32C77.9236 281.24 78.4836 281.92 79.5436 281.92C80.5436 281.92 81.1436 281.34 81.1436 280.36C81.1436 279.42 80.6636 278.68 79.5436 278.68ZM78.9836 284.82L81.0236 284.9C83.7636 285.04 84.9436 286.12 84.9436 287.76C84.9436 289.8 82.9436 291.44 79.8236 291.44C76.6036 291.44 75.1436 289.82 75.1436 288.36C75.1436 287.72 75.6836 286.9 77.0036 285.76C76.7036 285.32 76.5636 284.8 76.5836 284.26C76.5836 283.8 76.7036 283.36 76.9436 282.96C76.1236 282.44 75.5636 281.58 75.5636 280.36C75.5636 278.44 77.0236 276.94 79.5436 276.94C80.2436 276.94 80.8836 277 81.3036 277.08C81.4836 277.12 81.6436 277.14 81.7636 277.14H84.5436C84.6436 277.14 84.6636 277.18 84.6636 277.26V278.9C84.6636 278.98 84.6436 279.02 84.5436 279.02C84.1636 279.02 83.4436 278.98 83.0036 278.92C83.2236 279.24 83.4436 279.72 83.4436 280.44C83.4436 282.58 81.7436 283.66 79.5836 283.66C79.3236 283.66 79.0436 283.64 78.7836 283.6C78.7236 283.8 78.6836 284 78.7236 284.2C78.7436 284.42 78.8236 284.62 78.9836 284.82ZM86.1389 286.82V277.28C86.1389 277.18 86.1989 277.14 86.2989 277.14H88.4189C88.5389 277.14 88.5789 277.16 88.5789 277.28V286.84C88.5789 286.96 88.5389 287 88.3989 287H86.3389C86.1989 287 86.1389 286.94 86.1389 286.82ZM87.3589 275.8C86.5389 275.8 85.9989 275.24 85.9989 274.42C85.9989 273.6 86.5789 273.04 87.3789 273.04C88.2389 273.04 88.7389 273.62 88.7389 274.42C88.7389 275.24 88.1989 275.8 87.3589 275.8ZM91.0413 286.84V279.44C91.0413 278.76 91.0013 277.68 90.9613 277.28C90.9613 277.18 90.9813 277.14 91.1012 277.14H92.9213C93.0613 277.14 93.1213 277.18 93.1613 277.28C93.2213 277.46 93.2613 277.72 93.3013 278.04C94.1613 277.32 95.1213 276.94 96.2013 276.94C97.7013 276.94 99.5413 277.7 99.5413 280.9V286.82C99.5413 286.96 99.4813 287 99.3813 287H97.3013C97.1813 287 97.1213 286.94 97.1213 286.82V281.12C97.1213 279.8 96.5613 279.04 95.4013 279.04C94.6013 279.04 93.9413 279.34 93.4613 279.86V286.84C93.4613 286.94 93.4013 287 93.3013 287H91.2013C91.0813 287 91.0413 286.94 91.0413 286.84ZM107.117 285.06V282.6C106.817 282.56 106.477 282.54 106.017 282.54C104.437 282.54 103.737 283.06 103.737 283.92C103.737 284.66 104.257 285.3 105.697 285.3C106.217 285.3 106.677 285.24 107.117 285.06ZM109.457 280.9V284.96C109.457 285.4 109.457 285.8 109.497 286.22C109.497 286.26 109.497 286.28 109.457 286.3C107.817 287 106.657 287.2 105.297 287.2C103.117 287.2 101.377 286.18 101.377 283.92C101.377 281.8 103.277 280.74 105.877 280.74C106.477 280.74 106.937 280.76 107.117 280.78V280.54C107.117 280.08 106.857 279.04 105.097 279.04C104.097 279.04 103.217 279.24 102.477 279.6C102.417 279.62 102.317 279.6 102.317 279.48V277.74C102.317 277.64 102.337 277.6 102.437 277.54C103.297 277.14 104.397 276.94 105.477 276.94C108.257 276.94 109.457 278.68 109.457 280.9ZM111.979 284.62V272.92C111.979 272.82 112.039 272.76 112.159 272.76H114.219C114.339 272.76 114.399 272.82 114.399 272.92V284.4C114.399 285.02 114.619 285.22 115.099 285.22C115.259 285.22 115.299 285.22 115.479 285.2C115.539 285.18 115.559 285.22 115.559 285.32V286.82C115.559 286.96 115.539 286.98 115.439 287.04C115.219 287.14 114.859 287.2 114.299 287.2C113.019 287.2 111.979 286.72 111.979 284.62ZM122.062 286.82V274.04C122.062 273.94 122.082 273.9 122.202 273.88C122.782 273.86 124.142 273.82 125.982 273.82C130.682 273.82 133.042 276.48 133.042 280.2C133.042 285.08 129.322 287.04 125.942 287.04C124.682 287.04 122.842 287.04 122.202 287C122.122 287 122.062 286.94 122.062 286.82ZM124.482 275.96V284.92C124.882 284.94 125.322 284.94 125.842 284.94C128.662 284.94 130.562 283.3 130.562 280.26C130.562 277.36 128.662 275.92 125.962 275.92C125.402 275.92 124.962 275.94 124.482 275.96ZM140.105 285.06V282.6C139.805 282.56 139.465 282.54 139.005 282.54C137.425 282.54 136.725 283.06 136.725 283.92C136.725 284.66 137.245 285.3 138.685 285.3C139.205 285.3 139.665 285.24 140.105 285.06ZM142.445 280.9V284.96C142.445 285.4 142.445 285.8 142.485 286.22C142.485 286.26 142.485 286.28 142.445 286.3C140.805 287 139.645 287.2 138.285 287.2C136.105 287.2 134.365 286.18 134.365 283.92C134.365 281.8 136.265 280.74 138.865 280.74C139.465 280.74 139.925 280.76 140.105 280.78V280.54C140.105 280.08 139.845 279.04 138.085 279.04C137.085 279.04 136.205 279.24 135.465 279.6C135.405 279.62 135.305 279.6 135.305 279.48V277.74C135.305 277.64 135.325 277.6 135.425 277.54C136.285 277.14 137.385 276.94 138.465 276.94C141.245 276.94 142.445 278.68 142.445 280.9ZM149.529 285.24V286.68C149.529 286.8 149.509 286.88 149.409 286.92C148.869 287.12 148.369 287.2 147.709 287.2C146.069 287.2 145.089 286.4 145.089 284.42V279.16H143.829C143.729 279.14 143.689 279.1 143.689 278.98V277.3C143.689 277.18 143.729 277.14 143.849 277.14H145.109C145.129 276.44 145.209 275.18 145.309 274.68C145.329 274.58 145.369 274.52 145.469 274.5L147.489 274.22C147.589 274.2 147.629 274.22 147.629 274.32C147.569 274.98 147.529 276.16 147.529 277.14H149.469C149.569 277.14 149.609 277.18 149.609 277.28V279.02C149.609 279.12 149.569 279.16 149.469 279.16H147.509V283.9C147.509 284.78 147.789 285.2 148.649 285.2C148.909 285.2 149.129 285.18 149.409 285.12C149.469 285.1 149.529 285.12 149.529 285.24ZM156.375 285.06V282.6C156.075 282.56 155.735 282.54 155.275 282.54C153.695 282.54 152.995 283.06 152.995 283.92C152.995 284.66 153.515 285.3 154.955 285.3C155.475 285.3 155.935 285.24 156.375 285.06ZM158.715 280.9V284.96C158.715 285.4 158.715 285.8 158.755 286.22C158.755 286.26 158.755 286.28 158.715 286.3C157.075 287 155.915 287.2 154.555 287.2C152.375 287.2 150.635 286.18 150.635 283.92C150.635 281.8 152.535 280.74 155.135 280.74C155.735 280.74 156.195 280.76 156.375 280.78V280.54C156.375 280.08 156.115 279.04 154.355 279.04C153.355 279.04 152.475 279.24 151.735 279.6C151.675 279.62 151.575 279.6 151.575 279.48V277.74C151.575 277.64 151.595 277.6 151.695 277.54C152.555 277.14 153.655 276.94 154.735 276.94C157.515 276.94 158.715 278.68 158.715 280.9ZM166.815 279.46C166.195 279.12 165.195 278.88 164.315 278.88C163.255 278.88 162.895 279.32 162.895 279.74C162.895 280.18 163.195 280.48 164.475 280.98C166.755 281.82 167.535 282.72 167.535 284.14C167.535 286.02 166.055 287.2 163.595 287.2C162.415 287.2 161.375 286.98 160.775 286.64C160.675 286.58 160.635 286.54 160.635 286.42V284.52C160.635 284.42 160.715 284.38 160.795 284.42C161.655 284.98 162.755 285.22 163.655 285.22C164.695 285.22 165.195 284.86 165.195 284.34C165.195 283.84 164.815 283.52 163.575 283.02C161.395 282.22 160.615 281.32 160.615 279.88C160.615 278.36 161.855 276.94 164.355 276.94C165.515 276.94 166.395 277.1 166.875 277.34C166.975 277.4 166.995 277.48 166.995 277.58V279.34C166.995 279.44 166.935 279.5 166.815 279.46ZM175.32 282.62H171.26C171.32 284.02 172.24 285.14 174.28 285.14C175.18 285.14 176 284.98 176.76 284.66C176.82 284.62 176.88 284.64 176.88 284.74V286.4C176.88 286.52 176.84 286.58 176.76 286.62C176 286.98 175.12 287.2 173.76 287.2C170.12 287.2 168.82 284.64 168.82 282.18C168.82 279.4 170.5 276.94 173.52 276.94C176.48 276.94 177.62 279.26 177.62 281.16C177.62 281.72 177.6 282.18 177.54 282.4C177.52 282.48 177.48 282.52 177.38 282.54C177.1 282.6 176.3 282.62 175.32 282.62ZM171.26 280.9H174.24C175 280.9 175.26 280.9 175.34 280.88C175.34 280.82 175.34 280.74 175.34 280.72C175.34 280.14 174.94 278.86 173.42 278.86C172.04 278.86 171.42 279.92 171.26 280.9ZM184.393 285.24V286.68C184.393 286.8 184.373 286.88 184.273 286.92C183.733 287.12 183.233 287.2 182.573 287.2C180.933 287.2 179.953 286.4 179.953 284.42V279.16H178.693C178.593 279.14 178.553 279.1 178.553 278.98V277.3C178.553 277.18 178.593 277.14 178.713 277.14H179.973C179.993 276.44 180.073 275.18 180.173 274.68C180.193 274.58 180.233 274.52 180.333 274.5L182.353 274.22C182.453 274.2 182.493 274.22 182.493 274.32C182.433 274.98 182.393 276.16 182.393 277.14H184.333C184.433 277.14 184.473 277.18 184.473 277.28V279.02C184.473 279.12 184.433 279.16 184.333 279.16H182.373V283.9C182.373 284.78 182.653 285.2 183.513 285.2C183.773 285.2 183.993 285.18 184.273 285.12C184.333 285.1 184.393 285.12 184.393 285.24Z" fill="#464646"/>
<path d="M416.9 281.7V286.84C416.9 286.96 416.86 287 416.74 287H414.62C414.52 287 414.48 286.94 414.48 286.84V274C414.48 273.9 414.52 273.86 414.64 273.86H422.36C422.48 273.86 422.52 273.9 422.54 274.02L422.74 275.88C422.76 276 422.7 276.04 422.58 276.04H416.9V279.54H422C422.1 279.54 422.16 279.56 422.16 279.68V281.56C422.16 281.66 422.1 281.7 422 281.7H416.9ZM424.26 286.82V277.28C424.26 277.18 424.32 277.14 424.42 277.14H426.54C426.66 277.14 426.7 277.16 426.7 277.28V286.84C426.7 286.96 426.66 287 426.52 287H424.46C424.32 287 424.26 286.94 424.26 286.82ZM425.48 275.8C424.66 275.8 424.12 275.24 424.12 274.42C424.12 273.6 424.7 273.04 425.5 273.04C426.36 273.04 426.86 273.62 426.86 274.42C426.86 275.24 426.32 275.8 425.48 275.8ZM435.101 282.62H431.041C431.101 284.02 432.021 285.14 434.061 285.14C434.961 285.14 435.781 284.98 436.541 284.66C436.601 284.62 436.661 284.64 436.661 284.74V286.4C436.661 286.52 436.621 286.58 436.541 286.62C435.781 286.98 434.901 287.2 433.541 287.2C429.901 287.2 428.601 284.64 428.601 282.18C428.601 279.4 430.281 276.94 433.301 276.94C436.261 276.94 437.401 279.26 437.401 281.16C437.401 281.72 437.381 282.18 437.321 282.4C437.301 282.48 437.261 282.52 437.161 282.54C436.881 282.6 436.081 282.62 435.101 282.62ZM431.041 280.9H434.021C434.781 280.9 435.041 280.9 435.121 280.88C435.121 280.82 435.121 280.74 435.121 280.72C435.121 280.14 434.721 278.86 433.201 278.86C431.821 278.86 431.201 279.92 431.041 280.9ZM439.201 284.62V272.92C439.201 272.82 439.261 272.76 439.381 272.76H441.441C441.561 272.76 441.621 272.82 441.621 272.92V284.4C441.621 285.02 441.841 285.22 442.321 285.22C442.481 285.22 442.521 285.22 442.701 285.2C442.761 285.18 442.781 285.22 442.781 285.32V286.82C442.781 286.96 442.761 286.98 442.661 287.04C442.441 287.14 442.081 287.2 441.521 287.2C440.241 287.2 439.201 286.72 439.201 284.62ZM448.994 287.2C446.094 287.2 443.874 285.52 443.874 282.16C443.874 279.26 446.034 276.94 449.554 276.94C449.834 276.94 450.074 276.96 450.414 277V272.9C450.414 272.8 450.454 272.76 450.534 272.76H452.714C452.814 272.76 452.814 272.8 452.814 272.88V284.96C452.814 285.36 452.854 285.88 452.894 286.24C452.894 286.34 452.874 286.38 452.774 286.42C451.474 286.98 450.194 287.2 448.994 287.2ZM450.414 284.96V279.1C450.154 279 449.834 278.96 449.474 278.96C447.694 278.96 446.354 280.1 446.354 282.04C446.354 284.22 447.654 285.12 449.254 285.12C449.654 285.12 450.054 285.08 450.414 284.96ZM459.734 282.92H455.014C454.914 282.92 454.874 282.88 454.874 282.78V280.96C454.874 280.88 454.914 280.84 455.014 280.84H459.714C459.794 280.84 459.834 280.84 459.834 280.96V282.8C459.834 282.9 459.794 282.92 459.734 282.92ZM462.037 272.76H464.137C464.277 272.76 464.317 272.78 464.317 272.92L464.337 277.22C464.877 277.04 465.497 276.94 466.157 276.94C469.037 276.94 470.877 278.98 470.877 281.66C470.877 285.36 467.997 287.2 465.037 287.2C463.997 287.2 462.997 287.06 462.037 286.76C461.957 286.74 461.897 286.64 461.897 286.58V272.9C461.897 272.8 461.957 272.76 462.037 272.76ZM468.417 281.9C468.417 280 467.317 279 465.737 279C465.037 279 464.657 279.1 464.337 279.22V285.06C464.617 285.14 464.917 285.16 465.257 285.16C466.897 285.16 468.417 284.12 468.417 281.9ZM477.953 285.06V282.6C477.653 282.56 477.313 282.54 476.853 282.54C475.273 282.54 474.573 283.06 474.573 283.92C474.573 284.66 475.093 285.3 476.533 285.3C477.053 285.3 477.513 285.24 477.953 285.06ZM480.293 280.9V284.96C480.293 285.4 480.293 285.8 480.333 286.22C480.333 286.26 480.333 286.28 480.293 286.3C478.653 287 477.493 287.2 476.133 287.2C473.953 287.2 472.213 286.18 472.213 283.92C472.213 281.8 474.113 280.74 476.713 280.74C477.313 280.74 477.773 280.76 477.953 280.78V280.54C477.953 280.08 477.693 279.04 475.933 279.04C474.933 279.04 474.053 279.24 473.313 279.6C473.253 279.62 473.153 279.6 473.153 279.48V277.74C473.153 277.64 473.173 277.6 473.273 277.54C474.133 277.14 475.233 276.94 476.313 276.94C479.093 276.94 480.293 278.68 480.293 280.9ZM488.393 279.46C487.773 279.12 486.773 278.88 485.893 278.88C484.833 278.88 484.473 279.32 484.473 279.74C484.473 280.18 484.773 280.48 486.053 280.98C488.333 281.82 489.113 282.72 489.113 284.14C489.113 286.02 487.633 287.2 485.173 287.2C483.993 287.2 482.953 286.98 482.353 286.64C482.253 286.58 482.213 286.54 482.213 286.42V284.52C482.213 284.42 482.293 284.38 482.373 284.42C483.233 284.98 484.333 285.22 485.233 285.22C486.273 285.22 486.773 284.86 486.773 284.34C486.773 283.84 486.393 283.52 485.153 283.02C482.973 282.22 482.193 281.32 482.193 279.88C482.193 278.36 483.433 276.94 485.933 276.94C487.093 276.94 487.973 277.1 488.453 277.34C488.553 277.4 488.573 277.48 488.573 277.58V279.34C488.573 279.44 488.513 279.5 488.393 279.46ZM496.898 282.62H492.838C492.898 284.02 493.818 285.14 495.858 285.14C496.758 285.14 497.578 284.98 498.338 284.66C498.398 284.62 498.458 284.64 498.458 284.74V286.4C498.458 286.52 498.418 286.58 498.338 286.62C497.578 286.98 496.698 287.2 495.338 287.2C491.698 287.2 490.398 284.64 490.398 282.18C490.398 279.4 492.078 276.94 495.098 276.94C498.058 276.94 499.198 279.26 499.198 281.16C499.198 281.72 499.178 282.18 499.118 282.4C499.098 282.48 499.058 282.52 498.958 282.54C498.678 282.6 497.878 282.62 496.898 282.62ZM492.838 280.9H495.818C496.578 280.9 496.838 280.9 496.918 280.88C496.918 280.82 496.918 280.74 496.918 280.72C496.918 280.14 496.518 278.86 494.998 278.86C493.618 278.86 492.998 279.92 492.838 280.9ZM505.694 287.2C502.794 287.2 500.574 285.52 500.574 282.16C500.574 279.26 502.734 276.94 506.254 276.94C506.534 276.94 506.774 276.96 507.114 277V272.9C507.114 272.8 507.154 272.76 507.234 272.76H509.414C509.514 272.76 509.514 272.8 509.514 272.88V284.96C509.514 285.36 509.554 285.88 509.594 286.24C509.594 286.34 509.574 286.38 509.474 286.42C508.174 286.98 506.894 287.2 505.694 287.2ZM507.114 284.96V279.1C506.854 279 506.534 278.96 506.174 278.96C504.394 278.96 503.054 280.1 503.054 282.04C503.054 284.22 504.354 285.12 505.954 285.12C506.354 285.12 506.754 285.08 507.114 284.96ZM519.723 287.2C518.263 287.2 517.043 286.92 516.223 286.48C516.123 286.42 516.083 286.34 516.083 286.18V284.1C516.083 284.02 516.163 283.98 516.243 284.02C517.323 284.72 518.643 285.06 519.803 285.06C521.443 285.06 522.143 284.42 522.143 283.56C522.143 282.82 521.663 282.26 520.143 281.62L519.183 281.22C516.723 280.18 516.083 278.94 516.083 277.44C516.083 275.3 517.703 273.66 520.723 273.66C521.983 273.66 523.123 273.84 523.783 274.18C523.883 274.24 523.903 274.3 523.903 274.44V276.38C523.903 276.46 523.843 276.54 523.723 276.46C522.963 276.02 521.863 275.8 520.703 275.8C518.983 275.8 518.443 276.52 518.443 277.22C518.443 277.94 518.903 278.44 520.483 279.1L521.243 279.42C523.843 280.5 524.583 281.76 524.583 283.34C524.583 285.68 522.743 287.2 519.723 287.2ZM531.205 285.24V286.68C531.205 286.8 531.185 286.88 531.085 286.92C530.545 287.12 530.045 287.2 529.385 287.2C527.745 287.2 526.765 286.4 526.765 284.42V279.16H525.505C525.405 279.14 525.365 279.1 525.365 278.98V277.3C525.365 277.18 525.405 277.14 525.525 277.14H526.785C526.805 276.44 526.885 275.18 526.985 274.68C527.005 274.58 527.045 274.52 527.145 274.5L529.165 274.22C529.265 274.2 529.305 274.22 529.305 274.32C529.245 274.98 529.205 276.16 529.205 277.14H531.145C531.245 277.14 531.285 277.18 531.285 277.28V279.02C531.285 279.12 531.245 279.16 531.145 279.16H529.185V283.9C529.185 284.78 529.465 285.2 530.325 285.2C530.585 285.2 530.805 285.18 531.085 285.12C531.145 285.1 531.205 285.12 531.205 285.24ZM532.971 286.82V277.28C532.971 277.18 533.031 277.14 533.131 277.14H535.251C535.371 277.14 535.411 277.16 535.411 277.28V286.84C535.411 286.96 535.371 287 535.231 287H533.171C533.031 287 532.971 286.94 532.971 286.82ZM534.191 275.8C533.371 275.8 532.831 275.24 532.831 274.42C532.831 273.6 533.411 273.04 534.211 273.04C535.071 273.04 535.571 273.62 535.571 274.42C535.571 275.24 535.031 275.8 534.191 275.8ZM542.787 285.24V286.68C542.787 286.8 542.767 286.88 542.667 286.92C542.127 287.12 541.627 287.2 540.967 287.2C539.327 287.2 538.347 286.4 538.347 284.42V279.16H537.087C536.987 279.14 536.947 279.1 536.947 278.98V277.3C536.947 277.18 536.987 277.14 537.107 277.14H538.367C538.387 276.44 538.467 275.18 538.567 274.68C538.587 274.58 538.627 274.52 538.727 274.5L540.747 274.22C540.847 274.2 540.887 274.22 540.887 274.32C540.827 274.98 540.787 276.16 540.787 277.14H542.727C542.827 277.14 542.867 277.18 542.867 277.28V279.02C542.867 279.12 542.827 279.16 542.727 279.16H540.767V283.9C540.767 284.78 541.047 285.2 541.907 285.2C542.167 285.2 542.387 285.18 542.667 285.12C542.727 285.1 542.787 285.12 542.787 285.24ZM551.296 284.94V286.72C551.296 286.82 551.276 286.86 551.196 286.88C550.556 287.14 549.756 287.2 548.976 287.2C545.736 287.2 543.816 284.98 543.816 282.1C543.816 279.14 546.016 276.94 549.316 276.94C550.316 276.94 550.856 277.04 551.196 277.16C551.276 277.2 551.296 277.26 551.296 277.38L551.276 279.16C551.276 279.3 551.196 279.3 551.116 279.28C550.696 279.12 550.176 279.02 549.396 279.02C547.576 279.02 546.296 280.1 546.296 282.02C546.296 284.2 547.876 285.04 549.416 285.04C550.136 285.04 550.756 284.98 551.156 284.84C551.256 284.8 551.296 284.86 551.296 284.94ZM555.567 279.74V286.86C555.567 286.96 555.547 287 555.427 287H553.307C553.187 287 553.147 286.94 553.147 286.84V272.9C553.147 272.82 553.187 272.76 553.307 272.76H555.427C555.547 272.76 555.567 272.8 555.567 272.9V277.86C556.327 277.3 557.167 276.94 558.307 276.94C559.827 276.94 561.647 277.7 561.647 280.9V286.82C561.647 286.96 561.587 287 561.487 287H559.407C559.287 287 559.227 286.94 559.227 286.82V281.14C559.227 279.8 558.647 279.04 557.487 279.04C556.747 279.04 556.087 279.28 555.567 279.74ZM564.182 286.82V277.28C564.182 277.18 564.242 277.14 564.342 277.14H566.462C566.582 277.14 566.622 277.16 566.622 277.28V286.84C566.622 286.96 566.582 287 566.442 287H564.382C564.242 287 564.182 286.94 564.182 286.82ZM565.402 275.8C564.582 275.8 564.042 275.24 564.042 274.42C564.042 273.6 564.622 273.04 565.422 273.04C566.282 273.04 566.782 273.62 566.782 274.42C566.782 275.24 566.242 275.8 565.402 275.8ZM569.084 286.84V279.44C569.084 278.76 569.044 277.68 569.004 277.28C569.004 277.18 569.024 277.14 569.144 277.14H570.964C571.104 277.14 571.164 277.18 571.204 277.28C571.264 277.46 571.304 277.72 571.344 278.04C572.204 277.32 573.164 276.94 574.244 276.94C575.744 276.94 577.584 277.7 577.584 280.9V286.82C577.584 286.96 577.524 287 577.424 287H575.344C575.224 287 575.164 286.94 575.164 286.82V281.12C575.164 279.8 574.604 279.04 573.444 279.04C572.644 279.04 571.984 279.34 571.504 279.86V286.84C571.504 286.94 571.444 287 571.344 287H569.244C569.124 287 569.084 286.94 569.084 286.84ZM584.328 286.94L582.148 286.84C581.568 287.24 581.188 287.88 581.188 288.18C581.188 288.88 582.148 289.66 583.808 289.66C585.708 289.66 586.548 288.88 586.548 288.12C586.548 287.24 585.548 287 584.328 286.94ZM583.368 278.68C582.368 278.68 581.748 279.3 581.748 280.32C581.748 281.24 582.308 281.92 583.368 281.92C584.368 281.92 584.968 281.34 584.968 280.36C584.968 279.42 584.488 278.68 583.368 278.68ZM582.808 284.82L584.848 284.9C587.588 285.04 588.768 286.12 588.768 287.76C588.768 289.8 586.768 291.44 583.648 291.44C580.428 291.44 578.968 289.82 578.968 288.36C578.968 287.72 579.508 286.9 580.828 285.76C580.528 285.32 580.388 284.8 580.408 284.26C580.408 283.8 580.528 283.36 580.768 282.96C579.948 282.44 579.388 281.58 579.388 280.36C579.388 278.44 580.848 276.94 583.368 276.94C584.068 276.94 584.708 277 585.128 277.08C585.308 277.12 585.468 277.14 585.588 277.14H588.368C588.468 277.14 588.488 277.18 588.488 277.26V278.9C588.488 278.98 588.468 279.02 588.368 279.02C587.988 279.02 587.268 278.98 586.828 278.92C587.048 279.24 587.268 279.72 587.268 280.44C587.268 282.58 585.568 283.66 583.408 283.66C583.148 283.66 582.868 283.64 582.608 283.6C582.548 283.8 582.508 284 582.548 284.2C582.568 284.42 582.648 284.62 582.808 284.82Z" fill="#464646"/>
<path d="M793.36 287.2C791.9 287.2 790.68 286.92 789.86 286.48C789.76 286.42 789.72 286.34 789.72 286.18V284.1C789.72 284.02 789.8 283.98 789.88 284.02C790.96 284.72 792.28 285.06 793.44 285.06C795.08 285.06 795.78 284.42 795.78 283.56C795.78 282.82 795.3 282.26 793.78 281.62L792.82 281.22C790.36 280.18 789.72 278.94 789.72 277.44C789.72 275.3 791.34 273.66 794.36 273.66C795.62 273.66 796.76 273.84 797.42 274.18C797.52 274.24 797.54 274.3 797.54 274.44V276.38C797.54 276.46 797.48 276.54 797.36 276.46C796.6 276.02 795.5 275.8 794.34 275.8C792.62 275.8 792.08 276.52 792.08 277.22C792.08 277.94 792.54 278.44 794.12 279.1L794.88 279.42C797.48 280.5 798.22 281.76 798.22 283.34C798.22 285.68 796.38 287.2 793.36 287.2ZM804.842 285.24V286.68C804.842 286.8 804.822 286.88 804.722 286.92C804.182 287.12 803.682 287.2 803.022 287.2C801.382 287.2 800.402 286.4 800.402 284.42V279.16H799.142C799.042 279.14 799.002 279.1 799.002 278.98V277.3C799.002 277.18 799.042 277.14 799.162 277.14H800.422C800.442 276.44 800.522 275.18 800.622 274.68C800.642 274.58 800.682 274.52 800.782 274.5L802.802 274.22C802.902 274.2 802.942 274.22 802.942 274.32C802.882 274.98 802.842 276.16 802.842 277.14H804.782C804.882 277.14 804.922 277.18 804.922 277.28V279.02C804.922 279.12 804.882 279.16 804.782 279.16H802.822V283.9C802.822 284.78 803.102 285.2 803.962 285.2C804.222 285.2 804.442 285.18 804.722 285.12C804.782 285.1 804.842 285.12 804.842 285.24ZM806.608 286.82V277.28C806.608 277.18 806.668 277.14 806.768 277.14H808.888C809.008 277.14 809.048 277.16 809.048 277.28V286.84C809.048 286.96 809.008 287 808.868 287H806.808C806.668 287 806.608 286.94 806.608 286.82ZM807.828 275.8C807.008 275.8 806.468 275.24 806.468 274.42C806.468 273.6 807.048 273.04 807.848 273.04C808.708 273.04 809.208 273.62 809.208 274.42C809.208 275.24 808.668 275.8 807.828 275.8ZM816.424 285.24V286.68C816.424 286.8 816.404 286.88 816.304 286.92C815.764 287.12 815.264 287.2 814.604 287.2C812.964 287.2 811.984 286.4 811.984 284.42V279.16H810.724C810.624 279.14 810.584 279.1 810.584 278.98V277.3C810.584 277.18 810.624 277.14 810.744 277.14H812.004C812.024 276.44 812.104 275.18 812.204 274.68C812.224 274.58 812.264 274.52 812.364 274.5L814.384 274.22C814.484 274.2 814.524 274.22 814.524 274.32C814.464 274.98 814.424 276.16 814.424 277.14H816.364C816.464 277.14 816.504 277.18 816.504 277.28V279.02C816.504 279.12 816.464 279.16 816.364 279.16H814.404V283.9C814.404 284.78 814.684 285.2 815.544 285.2C815.804 285.2 816.024 285.18 816.304 285.12C816.364 285.1 816.424 285.12 816.424 285.24ZM824.933 284.94V286.72C824.933 286.82 824.913 286.86 824.833 286.88C824.193 287.14 823.393 287.2 822.613 287.2C819.373 287.2 817.453 284.98 817.453 282.1C817.453 279.14 819.653 276.94 822.953 276.94C823.953 276.94 824.493 277.04 824.833 277.16C824.913 277.2 824.933 277.26 824.933 277.38L824.913 279.16C824.913 279.3 824.833 279.3 824.753 279.28C824.333 279.12 823.813 279.02 823.033 279.02C821.213 279.02 819.933 280.1 819.933 282.02C819.933 284.2 821.513 285.04 823.053 285.04C823.773 285.04 824.393 284.98 824.793 284.84C824.893 284.8 824.933 284.86 824.933 284.94ZM829.203 279.74V286.86C829.203 286.96 829.183 287 829.063 287H826.943C826.823 287 826.783 286.94 826.783 286.84V272.9C826.783 272.82 826.823 272.76 826.943 272.76H829.063C829.183 272.76 829.203 272.8 829.203 272.9V277.86C829.963 277.3 830.803 276.94 831.943 276.94C833.463 276.94 835.283 277.7 835.283 280.9V286.82C835.283 286.96 835.223 287 835.123 287H833.043C832.923 287 832.863 286.94 832.863 286.82V281.14C832.863 279.8 832.283 279.04 831.123 279.04C830.383 279.04 829.723 279.28 829.203 279.74ZM843.699 282.62H839.639C839.699 284.02 840.619 285.14 842.659 285.14C843.559 285.14 844.379 284.98 845.139 284.66C845.199 284.62 845.259 284.64 845.259 284.74V286.4C845.259 286.52 845.219 286.58 845.139 286.62C844.379 286.98 843.499 287.2 842.139 287.2C838.499 287.2 837.199 284.64 837.199 282.18C837.199 279.4 838.879 276.94 841.899 276.94C844.859 276.94 845.999 279.26 845.999 281.16C845.999 281.72 845.979 282.18 845.919 282.4C845.899 282.48 845.859 282.52 845.759 282.54C845.479 282.6 844.679 282.62 843.699 282.62ZM839.639 280.9H842.619C843.379 280.9 843.639 280.9 843.719 280.88C843.719 280.82 843.719 280.74 843.719 280.72C843.719 280.14 843.319 278.86 841.799 278.86C840.419 278.86 839.799 279.92 839.639 280.9ZM852.494 287.2C849.594 287.2 847.374 285.52 847.374 282.16C847.374 279.26 849.534 276.94 853.054 276.94C853.334 276.94 853.574 276.96 853.914 277V272.9C853.914 272.8 853.954 272.76 854.034 272.76H856.214C856.314 272.76 856.314 272.8 856.314 272.88V284.96C856.314 285.36 856.354 285.88 856.394 286.24C856.394 286.34 856.374 286.38 856.274 286.42C854.974 286.98 853.694 287.2 852.494 287.2ZM853.914 284.96V279.1C853.654 279 853.334 278.96 852.974 278.96C851.194 278.96 849.854 280.1 849.854 282.04C849.854 284.22 851.154 285.12 852.754 285.12C853.154 285.12 853.554 285.08 853.914 284.96ZM863.644 286.82V274.04C863.644 273.94 863.664 273.9 863.784 273.88C864.364 273.86 865.724 273.82 867.564 273.82C872.264 273.82 874.624 276.48 874.624 280.2C874.624 285.08 870.904 287.04 867.524 287.04C866.264 287.04 864.424 287.04 863.784 287C863.704 287 863.644 286.94 863.644 286.82ZM866.064 275.96V284.92C866.464 284.94 866.904 284.94 867.424 284.94C870.244 284.94 872.144 283.3 872.144 280.26C872.144 277.36 870.244 275.92 867.544 275.92C866.984 275.92 866.544 275.94 866.064 275.96ZM881.687 285.06V282.6C881.387 282.56 881.047 282.54 880.587 282.54C879.007 282.54 878.307 283.06 878.307 283.92C878.307 284.66 878.827 285.3 880.267 285.3C880.787 285.3 881.247 285.24 881.687 285.06ZM884.027 280.9V284.96C884.027 285.4 884.027 285.8 884.067 286.22C884.067 286.26 884.067 286.28 884.027 286.3C882.387 287 881.227 287.2 879.867 287.2C877.687 287.2 875.947 286.18 875.947 283.92C875.947 281.8 877.847 280.74 880.447 280.74C881.047 280.74 881.507 280.76 881.687 280.78V280.54C881.687 280.08 881.427 279.04 879.667 279.04C878.667 279.04 877.787 279.24 877.047 279.6C876.987 279.62 876.887 279.6 876.887 279.48V277.74C876.887 277.64 876.907 277.6 877.007 277.54C877.867 277.14 878.967 276.94 880.047 276.94C882.827 276.94 884.027 278.68 884.027 280.9ZM891.111 285.24V286.68C891.111 286.8 891.091 286.88 890.991 286.92C890.451 287.12 889.951 287.2 889.291 287.2C887.651 287.2 886.671 286.4 886.671 284.42V279.16H885.411C885.311 279.14 885.271 279.1 885.271 278.98V277.3C885.271 277.18 885.311 277.14 885.431 277.14H886.691C886.711 276.44 886.791 275.18 886.891 274.68C886.911 274.58 886.951 274.52 887.051 274.5L889.071 274.22C889.171 274.2 889.211 274.22 889.211 274.32C889.151 274.98 889.111 276.16 889.111 277.14H891.051C891.151 277.14 891.191 277.18 891.191 277.28V279.02C891.191 279.12 891.151 279.16 891.051 279.16H889.091V283.9C889.091 284.78 889.371 285.2 890.231 285.2C890.491 285.2 890.711 285.18 890.991 285.12C891.051 285.1 891.111 285.12 891.111 285.24ZM897.957 285.06V282.6C897.657 282.56 897.317 282.54 896.857 282.54C895.277 282.54 894.577 283.06 894.577 283.92C894.577 284.66 895.097 285.3 896.537 285.3C897.057 285.3 897.517 285.24 897.957 285.06ZM900.297 280.9V284.96C900.297 285.4 900.297 285.8 900.337 286.22C900.337 286.26 900.337 286.28 900.297 286.3C898.657 287 897.497 287.2 896.137 287.2C893.957 287.2 892.217 286.18 892.217 283.92C892.217 281.8 894.117 280.74 896.717 280.74C897.317 280.74 897.777 280.76 897.957 280.78V280.54C897.957 280.08 897.697 279.04 895.937 279.04C894.937 279.04 894.057 279.24 893.317 279.6C893.257 279.62 893.157 279.6 893.157 279.48V277.74C893.157 277.64 893.177 277.6 893.277 277.54C894.137 277.14 895.237 276.94 896.317 276.94C899.097 276.94 900.297 278.68 900.297 280.9ZM908.397 279.46C907.777 279.12 906.777 278.88 905.897 278.88C904.837 278.88 904.477 279.32 904.477 279.74C904.477 280.18 904.777 280.48 906.057 280.98C908.337 281.82 909.117 282.72 909.117 284.14C909.117 286.02 907.637 287.2 905.177 287.2C903.997 287.2 902.957 286.98 902.357 286.64C902.257 286.58 902.217 286.54 902.217 286.42V284.52C902.217 284.42 902.297 284.38 902.377 284.42C903.237 284.98 904.337 285.22 905.237 285.22C906.277 285.22 906.777 284.86 906.777 284.34C906.777 283.84 906.397 283.52 905.157 283.02C902.977 282.22 902.197 281.32 902.197 279.88C902.197 278.36 903.437 276.94 905.937 276.94C907.097 276.94 907.977 277.1 908.457 277.34C908.557 277.4 908.577 277.48 908.577 277.58V279.34C908.577 279.44 908.517 279.5 908.397 279.46ZM916.902 282.62H912.842C912.902 284.02 913.822 285.14 915.862 285.14C916.762 285.14 917.582 284.98 918.342 284.66C918.402 284.62 918.462 284.64 918.462 284.74V286.4C918.462 286.52 918.422 286.58 918.342 286.62C917.582 286.98 916.702 287.2 915.342 287.2C911.702 287.2 910.402 284.64 910.402 282.18C910.402 279.4 912.082 276.94 915.102 276.94C918.062 276.94 919.202 279.26 919.202 281.16C919.202 281.72 919.182 282.18 919.122 282.4C919.102 282.48 919.062 282.52 918.962 282.54C918.682 282.6 917.882 282.62 916.902 282.62ZM912.842 280.9H915.822C916.582 280.9 916.842 280.9 916.922 280.88C916.922 280.82 916.922 280.74 916.922 280.72C916.922 280.14 916.522 278.86 915.002 278.86C913.622 278.86 913.002 279.92 912.842 280.9ZM925.975 285.24V286.68C925.975 286.8 925.955 286.88 925.855 286.92C925.315 287.12 924.815 287.2 924.155 287.2C922.515 287.2 921.535 286.4 921.535 284.42V279.16H920.275C920.175 279.14 920.135 279.1 920.135 278.98V277.3C920.135 277.18 920.175 277.14 920.295 277.14H921.555C921.575 276.44 921.655 275.18 921.755 274.68C921.775 274.58 921.815 274.52 921.915 274.5L923.935 274.22C924.035 274.2 924.075 274.22 924.075 274.32C924.015 274.98 923.975 276.16 923.975 277.14H925.915C926.015 277.14 926.055 277.18 926.055 277.28V279.02C926.055 279.12 926.015 279.16 925.915 279.16H923.955V283.9C923.955 284.78 924.235 285.2 925.095 285.2C925.355 285.2 925.575 285.18 925.855 285.12C925.915 285.1 925.975 285.12 925.975 285.24Z" fill="#464646"/>
<path d="M375.777 146.5L367.777 151V142L375.777 146.5Z" fill="#FF0000"/>
<path d="M375.777 146.5L367.777 151V142L375.777 146.5Z" fill="#FF0000"/>
<path d="M375.777 146.5L367.777 151V142L375.777 146.5Z" fill="#FF0000"/>
<path d="M375.777 146.5L367.777 151V142L375.777 146.5Z" fill="#FF0000"/>
<path d="M367.777 146.5H228.5" stroke="#B1B8C9" stroke-dasharray="2 2"/>
<path d="M375.777 146.5L367.777 151V142L375.777 146.5Z" fill="#FF0000"/>
<path d="M375.777 146.5L367.777 151V142L375.777 146.5Z" fill="#FF0000"/>
<path d="M375.777 146.5L367.777 151V142L375.777 146.5Z" fill="#FF0000"/>
<path d="M375.777 146.5L367.777 151V142L375.777 146.5Z" fill="#FF0000"/>
<path d="M367.777 146.5H228.5" stroke="#B1B8C9" stroke-dasharray="2 2"/>
<path d="M742.777 146.5L734.777 151V142L742.777 146.5Z" fill="#FF0000"/>
<path d="M742.777 146.5L734.777 151V142L742.777 146.5Z" fill="#FF0000"/>
<path d="M742.777 146.5L734.777 151V142L742.777 146.5Z" fill="#FF0000"/>
<path d="M742.777 146.5L734.777 151V142L742.777 146.5Z" fill="#FF0000"/>
<path d="M734.777 146.5H595.5" stroke="#B1B8C9" stroke-dasharray="2 2"/>
<g filter="url(#filter0_d_61_2)">
<path d="M91 46C91 34.402 81.598 25 70 25C58.402 25 49 34.402 49 46C49 57.598 58.402 67 70 67C81.598 67 91 57.598 91 46Z" fill="white"/>
<path d="M90 46C90 34.9543 81.0457 26 70 26C58.9543 26 50 34.9543 50 46C50 57.0457 58.9543 66 70 66C81.0457 66 90 57.0457 90 46Z" stroke="#464646" stroke-width="2"/>
</g>
<path d="M70 64C79.9411 64 88 55.9411 88 46C88 36.0589 79.9411 28 70 28C60.0589 28 52 36.0589 52 46C52 55.9411 60.0589 64 70 64Z" fill="#FA0F00"/>
<path d="M64.2004 47.6736L64.0504 48.6036C64.0404 48.6736 64.0204 48.6836 63.9604 48.6836H59.9804C59.9104 48.6836 59.8904 48.6536 59.8904 48.6036V42.1936C59.8904 42.1436 59.9104 42.1136 59.9704 42.1136H63.8304C63.8904 42.1136 63.9104 42.1236 63.9204 42.1836L64.0304 43.1136C64.0404 43.1636 64.0204 43.2036 63.9604 43.2036H61.1004V44.7936H63.7004C63.7504 44.7936 63.7704 44.8036 63.7704 44.8636V45.8136C63.7704 45.8636 63.7404 45.8736 63.7004 45.8736H61.1004V47.5936H64.1304C64.1904 47.5936 64.2104 47.6236 64.2004 47.6736ZM69.6931 47.5836V48.4736C69.6931 48.5336 69.6731 48.5836 69.6231 48.6036C69.2931 48.7236 68.8031 48.7836 68.2431 48.7836C66.3931 48.7836 64.8131 47.6936 64.8131 45.4136C64.8131 43.4036 66.2131 42.0136 68.3931 42.0136C69.0431 42.0136 69.4431 42.0736 69.6931 42.1836C69.7331 42.2036 69.7531 42.2336 69.7531 42.2936V43.2436C69.7531 43.3236 69.7131 43.3236 69.6731 43.3036C69.3531 43.1536 68.8931 43.0836 68.3731 43.0836C66.9631 43.0836 66.0631 43.9836 66.0631 45.3836C66.0631 47.1136 67.3431 47.7036 68.3931 47.7036C68.8831 47.7036 69.2531 47.6636 69.6231 47.5336C69.6631 47.5136 69.6931 47.5236 69.6931 47.5836ZM71.9695 42.1936V48.5936C71.9695 48.6636 71.9495 48.6836 71.8895 48.6836H70.8395C70.7795 48.6836 70.7595 48.6536 70.7595 48.5936V42.1936C70.7595 42.1236 70.7895 42.1136 70.8395 42.1136H71.8895C71.9495 42.1136 71.9695 42.1336 71.9695 42.1936ZM73.4548 48.5936V42.2036C73.4548 42.1536 73.4648 42.1336 73.5248 42.1236C73.8148 42.1136 74.4948 42.0936 75.4148 42.0936C77.7648 42.0936 78.9448 43.4236 78.9448 45.2836C78.9448 47.7236 77.0848 48.7036 75.3948 48.7036C74.7648 48.7036 73.8448 48.7036 73.5248 48.6836C73.4848 48.6836 73.4548 48.6536 73.4548 48.5936ZM74.6648 43.1636V47.6436C74.8648 47.6536 75.0848 47.6536 75.3448 47.6536C76.7548 47.6536 77.7048 46.8336 77.7048 45.3136C77.7048 43.8636 76.7548 43.1436 75.4048 43.1436C75.1248 43.1436 74.9048 43.1536 74.6648 43.1636Z" fill="white"/>
<g filter="url(#filter1_d_61_2)">
<path d="M134 46C134 34.402 124.598 25 113 25C101.402 25 92 34.402 92 46C92 57.598 101.402 67 113 67C124.598 67 134 57.598 134 46Z" fill="white"/>
<path d="M133 46C133 34.9543 124.046 26 113 26C101.954 26 93 34.9543 93 46C93 57.0457 101.954 66 113 66C124.046 66 133 57.0457 133 46Z" stroke="#464646" stroke-width="2" stroke-dasharray="10 3"/>
</g>
<path d="M113 28C116.56 28 120.04 29.0557 123 31.0335C125.96 33.0114 128.267 35.8226 129.63 39.1117C130.992 42.4008 131.349 46.02 130.654 49.5116C129.96 53.0033 128.245 56.2106 125.728 58.7279C123.211 61.2453 120.003 62.9596 116.512 63.6541C113.02 64.3487 109.401 63.9922 106.112 62.6298C102.823 61.2675 100.011 58.9603 98.0335 56.0003C96.0557 53.0402 95 49.5601 95 46C95 41.2261 96.8964 36.6477 100.272 33.2721C103.648 29.8964 108.226 28 113 28Z" fill="#007CDA"/>
<path d="M103.34 47.6736L103.19 48.6036C103.18 48.6736 103.16 48.6836 103.1 48.6836H99.12C99.05 48.6836 99.03 48.6536 99.03 48.6036V42.1936C99.03 42.1436 99.05 42.1136 99.11 42.1136H102.97C103.03 42.1136 103.05 42.1236 103.06 42.1836L103.17 43.1136C103.18 43.1636 103.16 43.2036 103.1 43.2036H100.24V44.7936H102.84C102.89 44.7936 102.91 44.8036 102.91 44.8636V45.8136C102.91 45.8636 102.88 45.8736 102.84 45.8736H100.24V47.5936H103.27C103.33 47.5936 103.35 47.6236 103.34 47.6736ZM104.603 42.1736C104.613 42.1136 104.633 42.1136 104.683 42.1136H106.283C106.343 42.1136 106.363 42.1336 106.383 42.1836C106.683 43.1936 107.553 46.1636 107.753 47.0936H107.763C107.973 46.2436 108.963 43.2136 109.273 42.1836C109.293 42.1436 109.303 42.1136 109.363 42.1136H110.923C110.973 42.1136 110.993 42.1236 111.003 42.1736L111.273 48.6036C111.283 48.6636 111.253 48.6836 111.203 48.6836H110.093C110.043 48.6836 110.013 48.6736 110.013 48.6136C109.963 46.4836 109.943 43.6036 109.953 42.9736H109.943C109.713 43.9336 108.683 47.2736 108.283 48.6036C108.273 48.6736 108.233 48.6836 108.193 48.6836H107.193C107.123 48.6836 107.103 48.6736 107.093 48.6136C106.663 47.0936 105.863 44.1836 105.583 42.9636H105.563C105.553 43.9736 105.473 46.5136 105.373 48.6136C105.373 48.6736 105.353 48.6836 105.293 48.6836H104.293C104.233 48.6836 104.213 48.6736 104.223 48.6036L104.603 42.1736ZM115.975 46.9536H113.585L113.035 48.6036C113.015 48.6636 112.985 48.6836 112.925 48.6836H111.925C111.865 48.6836 111.845 48.6536 111.855 48.5836L113.915 42.7236C113.955 42.6236 113.985 42.5236 114.005 42.1836C114.005 42.1436 114.025 42.1136 114.065 42.1136H115.455C115.505 42.1136 115.515 42.1236 115.525 42.1736L117.835 48.5936C117.845 48.6536 117.835 48.6836 117.775 48.6836H116.655C116.605 48.6836 116.575 48.6636 116.555 48.6236L115.975 46.9536ZM113.905 45.8636H115.655C115.445 45.2036 114.975 43.8136 114.775 43.1136H114.765C114.605 43.7836 114.205 44.9536 113.905 45.8636ZM119.83 42.1936V48.5936C119.83 48.6636 119.81 48.6836 119.75 48.6836H118.7C118.64 48.6836 118.62 48.6536 118.62 48.5936V42.1936C118.62 42.1236 118.65 42.1136 118.7 42.1136H119.75C119.81 42.1136 119.83 42.1336 119.83 42.1936ZM125.275 48.6836H121.415C121.335 48.6836 121.315 48.6536 121.315 48.5836V42.2036C121.315 42.1536 121.335 42.1136 121.395 42.1136H122.465C122.505 42.1136 122.525 42.1436 122.525 42.1836V47.5936H125.465C125.525 47.5936 125.545 47.6236 125.535 47.6636L125.365 48.6036C125.355 48.6736 125.325 48.6836 125.275 48.6836Z" fill="white"/>
<g filter="url(#filter2_d_61_2)">
<path d="M828 54C828 42.402 818.598 33 807 33C795.402 33 786 42.402 786 54C786 65.598 795.402 75 807 75C818.598 75 828 65.598 828 54Z" fill="white"/>
<path d="M827 54C827 42.9543 818.046 34 807 34C795.954 34 787 42.9543 787 54C787 65.0457 795.954 74 807 74C818.046 74 827 65.0457 827 54Z" stroke="#464646" stroke-width="2"/>
</g>
<path d="M807 72C816.941 72 825 63.9411 825 54C825 44.0589 816.941 36 807 36C797.059 36 789 44.0589 789 54C789 63.9411 797.059 72 807 72Z" fill="#FA0F00"/>
<path d="M801.2 55.6736L801.05 56.6036C801.04 56.6736 801.02 56.6836 800.96 56.6836H796.98C796.91 56.6836 796.89 56.6536 796.89 56.6036V50.1936C796.89 50.1436 796.91 50.1136 796.97 50.1136H800.83C800.89 50.1136 800.91 50.1236 800.92 50.1836L801.03 51.1136C801.04 51.1636 801.02 51.2036 800.96 51.2036H798.1V52.7936H800.7C800.75 52.7936 800.77 52.8036 800.77 52.8636V53.8136C800.77 53.8636 800.74 53.8736 800.7 53.8736H798.1V55.5936H801.13C801.19 55.5936 801.21 55.6236 801.2 55.6736ZM806.693 55.5836V56.4736C806.693 56.5336 806.673 56.5836 806.623 56.6036C806.293 56.7236 805.803 56.7836 805.243 56.7836C803.393 56.7836 801.813 55.6936 801.813 53.4136C801.813 51.4036 803.213 50.0136 805.393 50.0136C806.043 50.0136 806.443 50.0736 806.693 50.1836C806.733 50.2036 806.753 50.2336 806.753 50.2936V51.2436C806.753 51.3236 806.713 51.3236 806.673 51.3036C806.353 51.1536 805.893 51.0836 805.373 51.0836C803.963 51.0836 803.063 51.9836 803.063 53.3836C803.063 55.1136 804.343 55.7036 805.393 55.7036C805.883 55.7036 806.253 55.6636 806.623 55.5336C806.663 55.5136 806.693 55.5236 806.693 55.5836ZM808.97 50.1936V56.5936C808.97 56.6636 808.95 56.6836 808.89 56.6836H807.84C807.78 56.6836 807.76 56.6536 807.76 56.5936V50.1936C807.76 50.1236 807.79 50.1136 807.84 50.1136H808.89C808.95 50.1136 808.97 50.1336 808.97 50.1936ZM810.455 56.5936V50.2036C810.455 50.1536 810.465 50.1336 810.525 50.1236C810.815 50.1136 811.495 50.0936 812.415 50.0936C814.765 50.0936 815.945 51.4236 815.945 53.2836C815.945 55.7236 814.085 56.7036 812.395 56.7036C811.765 56.7036 810.845 56.7036 810.525 56.6836C810.485 56.6836 810.455 56.6536 810.455 56.5936ZM811.665 51.1636V55.6436C811.865 55.6536 812.085 55.6536 812.345 55.6536C813.755 55.6536 814.705 54.8336 814.705 53.3136C814.705 51.8636 813.755 51.1436 812.405 51.1436C812.125 51.1436 811.905 51.1536 811.665 51.1636Z" fill="white"/>
<g filter="url(#filter3_d_61_2)">
<path d="M871 54C871 42.402 861.598 33 850 33C838.402 33 829 42.402 829 54C829 65.598 838.402 75 850 75C861.598 75 871 65.598 871 54Z" fill="white"/>
<path d="M868.5 54C868.5 43.7827 860.217 35.5 850 35.5C839.783 35.5 831.5 43.7827 831.5 54C831.5 64.2173 839.783 72.5 850 72.5C860.217 72.5 868.5 64.2173 868.5 54Z" stroke="#464646" stroke-width="5"/>
</g>
<path d="M850 36C853.56 36 857.04 37.0557 860 39.0335C862.96 41.0114 865.267 43.8226 866.63 47.1117C867.992 50.4008 868.349 54.02 867.654 57.5116C866.96 61.0033 865.245 64.2106 862.728 66.7279C860.211 69.2453 857.003 70.9596 853.512 71.6541C850.02 72.3487 846.401 71.9922 843.112 70.6298C839.823 69.2675 837.011 66.9603 835.034 64.0003C833.056 61.0402 832 57.5601 832 54C832 49.2261 833.896 44.6477 837.272 41.2721C840.648 37.8964 845.226 36 850 36Z" fill="#007CDA"/>
<path d="M840.34 55.6736L840.19 56.6036C840.18 56.6736 840.16 56.6836 840.1 56.6836H836.12C836.05 56.6836 836.03 56.6536 836.03 56.6036V50.1936C836.03 50.1436 836.05 50.1136 836.11 50.1136H839.97C840.03 50.1136 840.05 50.1236 840.06 50.1836L840.17 51.1136C840.18 51.1636 840.16 51.2036 840.1 51.2036H837.24V52.7936H839.84C839.89 52.7936 839.91 52.8036 839.91 52.8636V53.8136C839.91 53.8636 839.88 53.8736 839.84 53.8736H837.24V55.5936H840.27C840.33 55.5936 840.35 55.6236 840.34 55.6736ZM841.603 50.1736C841.613 50.1136 841.633 50.1136 841.683 50.1136H843.283C843.343 50.1136 843.363 50.1336 843.383 50.1836C843.683 51.1936 844.553 54.1636 844.753 55.0936H844.763C844.973 54.2436 845.963 51.2136 846.273 50.1836C846.293 50.1436 846.303 50.1136 846.363 50.1136H847.923C847.973 50.1136 847.993 50.1236 848.003 50.1736L848.273 56.6036C848.283 56.6636 848.253 56.6836 848.203 56.6836H847.093C847.043 56.6836 847.013 56.6736 847.013 56.6136C846.963 54.4836 846.943 51.6036 846.953 50.9736H846.943C846.713 51.9336 845.683 55.2736 845.283 56.6036C845.273 56.6736 845.233 56.6836 845.193 56.6836H844.193C844.123 56.6836 844.103 56.6736 844.093 56.6136C843.663 55.0936 842.863 52.1836 842.583 50.9636H842.563C842.553 51.9736 842.473 54.5136 842.373 56.6136C842.373 56.6736 842.353 56.6836 842.293 56.6836H841.293C841.233 56.6836 841.213 56.6736 841.223 56.6036L841.603 50.1736ZM852.975 54.9536H850.585L850.035 56.6036C850.015 56.6636 849.985 56.6836 849.925 56.6836H848.925C848.865 56.6836 848.845 56.6536 848.855 56.5836L850.915 50.7236C850.955 50.6236 850.985 50.5236 851.005 50.1836C851.005 50.1436 851.025 50.1136 851.065 50.1136H852.455C852.505 50.1136 852.515 50.1236 852.525 50.1736L854.835 56.5936C854.845 56.6536 854.835 56.6836 854.775 56.6836H853.655C853.605 56.6836 853.575 56.6636 853.555 56.6236L852.975 54.9536ZM850.905 53.8636H852.655C852.445 53.2036 851.975 51.8136 851.775 51.1136H851.765C851.605 51.7836 851.205 52.9536 850.905 53.8636ZM856.83 50.1936V56.5936C856.83 56.6636 856.81 56.6836 856.75 56.6836H855.7C855.64 56.6836 855.62 56.6536 855.62 56.5936V50.1936C855.62 50.1236 855.65 50.1136 855.7 50.1136H856.75C856.81 50.1136 856.83 50.1336 856.83 50.1936ZM862.275 56.6836H858.415C858.335 56.6836 858.315 56.6536 858.315 56.5836V50.2036C858.315 50.1536 858.335 50.1136 858.395 50.1136H859.465C859.505 50.1136 859.525 50.1436 859.525 50.1836V55.5936H862.465C862.525 55.5936 862.545 55.6236 862.535 55.6636L862.365 56.6036C862.355 56.6736 862.325 56.6836 862.275 56.6836Z" fill="white"/>
<mask id="mask3_61_2" style="mask-type:luminance" maskUnits="userSpaceOnUse" x="411" y="68" width="177" height="172">
<path d="M588 68H411V240H588V68Z" fill="white"/>
</mask>
<g mask="url(#mask3_61_2)">
<path d="M495.644 191.199H485.492C484.744 187.484 483.284 183.948 481.192 180.788L488.421 173.559C488.965 173.015 489.27 172.278 489.27 171.509C489.27 170.74 488.965 170.003 488.421 169.459L484.021 165.059C483.477 164.516 482.74 164.21 481.971 164.21C481.202 164.21 480.465 164.516 479.921 165.059L472.706 172.299C469.547 170.208 466.014 168.748 462.3 167.999V157.855C462.3 157.086 461.995 156.348 461.451 155.804C460.907 155.261 460.169 154.955 459.4 154.955H453.6C452.831 154.955 452.093 155.261 451.549 155.804C451.006 156.348 450.7 157.086 450.7 157.855V168.008C446.986 168.757 443.453 170.217 440.294 172.308L433.065 165.065C432.521 164.522 431.784 164.216 431.015 164.216C430.246 164.216 429.509 164.522 428.965 165.065L424.565 169.465C424.022 170.009 423.716 170.746 423.716 171.515C423.716 172.284 424.022 173.021 424.565 173.565L431.794 180.799C429.705 183.956 428.247 187.488 427.5 191.199H417.356C416.587 191.199 415.849 191.505 415.305 192.048C414.762 192.592 414.456 193.33 414.456 194.099V199.899C414.456 200.28 414.531 200.657 414.677 201.009C414.823 201.361 415.036 201.68 415.305 201.95C415.575 202.219 415.894 202.433 416.246 202.578C416.598 202.724 416.975 202.799 417.356 202.799H427.508C428.256 206.515 429.716 210.05 431.808 213.21L424.565 220.434C424.022 220.978 423.716 221.715 423.716 222.484C423.716 223.253 424.022 223.99 424.565 224.534L428.965 228.934C429.509 229.478 430.246 229.783 431.015 229.783C431.784 229.783 432.521 229.478 433.065 228.934L440.299 221.7C443.456 223.79 446.988 225.25 450.7 225.999V236.152C450.7 236.921 451.006 237.659 451.549 238.203C452.093 238.747 452.831 239.052 453.6 239.052H459.4C460.169 239.052 460.907 238.747 461.451 238.203C461.995 237.659 462.3 236.921 462.3 236.152V225.991C466.014 225.242 469.547 223.782 472.706 221.691L479.935 228.92C480.479 229.464 481.216 229.769 481.985 229.769C482.754 229.769 483.491 229.464 484.035 228.92L488.435 224.52C488.979 223.976 489.284 223.239 489.284 222.47C489.284 221.701 488.979 220.964 488.435 220.42L481.2 213.205C483.292 210.046 484.752 206.513 485.5 202.799H495.654C496.035 202.799 496.412 202.724 496.764 202.578C497.116 202.433 497.435 202.219 497.705 201.95C497.974 201.68 498.188 201.361 498.333 201.009C498.479 200.657 498.554 200.28 498.554 199.899V194.099C498.554 193.33 498.249 192.592 497.705 192.048C497.161 191.505 496.423 191.199 495.654 191.199H495.644ZM456.5 212.116C453.51 212.116 450.587 211.229 448.101 209.568C445.616 207.907 443.678 205.546 442.534 202.784C441.39 200.022 441.09 196.982 441.674 194.05C442.257 191.117 443.697 188.424 445.811 186.31C447.925 184.196 450.618 182.756 453.551 182.173C456.483 181.589 459.523 181.889 462.285 183.033C465.047 184.177 467.408 186.115 469.069 188.601C470.73 191.087 471.617 194.009 471.617 196.999C471.617 201.008 470.024 204.853 467.189 207.688C464.354 210.523 460.509 212.116 456.5 212.116Z" fill="#464646"/>
<path d="M582.452 139.217L569.074 133.756C570.089 128.456 570.07 123.01 569.017 117.717L582.443 112.07C583.452 111.645 584.251 110.837 584.665 109.823C585.079 108.809 585.073 107.672 584.65 106.662L581.2 98.4993C580.776 97.4908 579.969 96.6916 578.957 96.2774C577.944 95.8632 576.809 95.8679 575.8 96.2903L562.37 101.923C559.323 97.4701 555.444 93.648 550.946 90.6673L556.4 77.2873C556.605 76.7848 556.709 76.2468 556.706 75.704C556.703 75.1612 556.593 74.6244 556.383 74.124C556.172 73.6237 555.865 73.1697 555.479 72.788C555.094 72.4063 554.636 72.1043 554.134 71.8993L546.489 68.7833C545.986 68.5781 545.448 68.4739 544.905 68.4766C544.363 68.4793 543.826 68.5889 543.325 68.7992C542.825 69.0094 542.371 69.3162 541.989 69.7019C541.607 70.0876 541.305 70.5448 541.1 71.0473L535.639 84.4254C530.339 83.4103 524.892 83.4297 519.6 84.4823L513.948 71.0763C513.524 70.0678 512.717 69.2686 511.705 68.8544C510.692 68.4402 509.557 68.4449 508.548 68.8673L500.374 72.2993C499.364 72.7244 498.565 73.5327 498.151 74.5467C497.737 75.5607 497.743 76.6975 498.167 77.7073L503.8 91.1383C499.345 94.1857 495.523 98.0664 492.544 102.566L479.166 97.1054C478.151 96.6922 477.014 96.6987 476.004 97.1234C474.995 97.5481 474.195 98.3563 473.781 99.3703L470.661 107.014C470.248 108.029 470.254 109.166 470.679 110.176C471.103 111.185 471.912 111.985 472.926 112.399L486.3 117.86C485.285 123.161 485.306 128.607 486.361 133.899L472.936 139.546C471.926 139.971 471.127 140.78 470.713 141.794C470.299 142.808 470.305 143.944 470.729 144.954L474.164 153.114C474.587 154.123 475.394 154.922 476.407 155.336C477.419 155.75 478.555 155.746 479.564 155.323L493 149.675C496.047 154.129 499.927 157.952 504.426 160.932L498.965 174.309C498.552 175.324 498.558 176.461 498.983 177.471C499.407 178.48 500.216 179.28 501.23 179.694L508.874 182.814C509.888 183.228 511.025 183.221 512.035 182.796C513.045 182.372 513.845 181.563 514.259 180.549L519.72 167.171C525.02 168.187 530.466 168.168 535.759 167.114L541.406 180.54C541.829 181.549 542.636 182.348 543.649 182.762C544.661 183.176 545.797 183.172 546.806 182.749L554.971 179.314C555.98 178.889 556.779 178.081 557.193 177.067C557.607 176.053 557.601 174.916 557.178 173.906L551.569 160.485C556.026 157.44 559.851 153.559 562.834 149.059L576.212 154.52C576.714 154.725 577.251 154.83 577.793 154.827C578.335 154.824 578.871 154.715 579.371 154.505C579.871 154.295 580.325 153.989 580.706 153.604C581.088 153.219 581.39 152.762 581.595 152.26L584.715 144.616C585.13 143.602 585.126 142.464 584.703 141.453C584.279 140.442 583.472 139.641 582.458 139.225L582.452 139.217ZM527.689 145.817C523.731 145.817 519.863 144.643 516.573 142.444C513.282 140.245 510.718 137.12 509.204 133.464C507.69 129.807 507.294 125.784 508.067 121.903C508.839 118.022 510.745 114.456 513.544 111.658C516.342 108.86 519.908 106.955 523.789 106.183C527.671 105.412 531.694 105.808 535.35 107.323C539.006 108.838 542.13 111.403 544.329 114.694C546.527 117.984 547.7 121.853 547.7 125.81C547.7 128.438 547.182 131.04 546.176 133.468C545.171 135.896 543.697 138.102 541.839 139.96C539.98 141.818 537.774 143.291 535.346 144.297C532.919 145.302 530.317 145.82 527.689 145.819V145.817Z" fill="#464646"/>
</g>
<g filter="url(#filter4_d_61_2)">
<path d="M505 142C505 130.402 495.598 121 484 121C472.402 121 463 130.402 463 142C463 153.598 472.402 163 484 163C495.598 163 505 153.598 505 142Z" fill="white"/>
<path d="M504 142C504 130.954 495.046 122 484 122C472.954 122 464 130.954 464 142C464 153.046 472.954 162 484 162C495.046 162 504 153.046 504 142Z" stroke="#464646" stroke-width="2"/>
</g>
<path d="M484 160C493.941 160 502 151.941 502 142C502 132.059 493.941 124 484 124C474.059 124 466 132.059 466 142C466 151.941 474.059 160 484 160Z" fill="#FA0F00"/>
<g filter="url(#filter5_d_61_2)">
<path d="M548 142C548 130.402 538.598 121 527 121C515.402 121 506 130.402 506 142C506 153.598 515.402 163 527 163C538.598 163 548 153.598 548 142Z" fill="white"/>
<path d="M547 142C547 130.954 538.046 122 527 122C515.954 122 507 130.954 507 142C507 153.046 515.954 162 527 162C538.046 162 547 153.046 547 142Z" stroke="#464646" stroke-width="2" stroke-dasharray="3 3"/>
</g>
<path d="M527 124C530.56 124 534.04 125.056 537 127.034C539.96 129.011 542.267 131.823 543.63 135.112C544.992 138.401 545.349 142.02 544.654 145.512C543.96 149.003 542.245 152.211 539.728 154.728C537.211 157.245 534.003 158.96 530.512 159.654C527.02 160.349 523.401 159.992 520.112 158.63C516.823 157.267 514.011 154.96 512.034 152C510.056 149.04 509 145.56 509 142C509 137.226 510.896 132.648 514.272 129.272C517.648 125.896 522.226 124 527 124Z" fill="#007CDA"/>
<g filter="url(#filter6_d_61_2)">
<path d="M660 355C660 348.373 654.627 343 648 343C641.373 343 636 348.373 636 355C636 361.627 641.373 367 648 367C654.627 367 660 361.627 660 355Z" fill="white"/>
<path d="M659 355C659 348.925 654.075 344 648 344C641.925 344 637 348.925 637 355C637 361.075 641.925 366 648 366C654.075 366 659 361.075 659 355Z" stroke="#464646" stroke-width="2"/>
</g>
<path d="M666.888 361.916V354.224C666.888 354.164 666.912 354.128 666.972 354.128C667.428 354.116 668.316 354.092 669.192 354.092C671.52 354.092 672.384 355.388 672.384 356.708C672.384 358.616 670.908 359.444 669.096 359.444C668.712 359.444 668.616 359.444 668.34 359.444V361.904C668.34 361.964 668.316 362 668.244 362H666.984C666.924 362 666.888 361.976 666.888 361.916ZM668.34 355.376V358.16C668.544 358.172 668.7 358.172 669.096 358.172C670.104 358.172 670.956 357.836 670.956 356.744C670.956 355.868 670.332 355.352 669.228 355.352C668.808 355.352 668.472 355.364 668.34 355.376ZM677.011 359.372H674.575C674.611 360.212 675.163 360.884 676.387 360.884C676.927 360.884 677.419 360.788 677.875 360.596C677.911 360.572 677.947 360.584 677.947 360.644V361.64C677.947 361.712 677.923 361.748 677.875 361.772C677.419 361.988 676.891 362.12 676.075 362.12C673.891 362.12 673.111 360.584 673.111 359.108C673.111 357.44 674.119 355.964 675.931 355.964C677.707 355.964 678.391 357.356 678.391 358.496C678.391 358.832 678.379 359.108 678.343 359.24C678.331 359.288 678.307 359.312 678.247 359.324C678.079 359.36 677.599 359.372 677.011 359.372ZM674.575 358.34H676.363C676.819 358.34 676.975 358.34 677.023 358.328C677.023 358.292 677.023 358.244 677.023 358.232C677.023 357.884 676.783 357.116 675.871 357.116C675.043 357.116 674.671 357.752 674.575 358.34ZM679.518 356.084H680.646C680.718 356.084 680.754 356.108 680.778 356.18C680.838 356.336 680.886 356.636 680.898 356.9C681.306 356.396 681.99 355.964 682.818 355.964C682.89 355.964 682.914 355.976 682.914 356.048V357.32C682.914 357.38 682.89 357.404 682.806 357.404C681.954 357.38 681.246 357.68 680.97 358.04V361.904C680.97 361.976 680.934 362 680.862 362H679.614C679.53 362 679.506 361.964 679.506 361.904V357.764C679.506 357.248 679.494 356.552 679.446 356.156C679.446 356.096 679.458 356.084 679.518 356.084ZM687.259 357.476C686.887 357.272 686.287 357.128 685.759 357.128C685.123 357.128 684.907 357.392 684.907 357.644C684.907 357.908 685.087 358.088 685.855 358.388C687.223 358.892 687.691 359.432 687.691 360.284C687.691 361.412 686.803 362.12 685.327 362.12C684.619 362.12 683.995 361.988 683.635 361.784C683.575 361.748 683.551 361.724 683.551 361.652V360.512C683.551 360.452 683.599 360.428 683.647 360.452C684.163 360.788 684.823 360.932 685.363 360.932C685.987 360.932 686.287 360.716 686.287 360.404C686.287 360.104 686.059 359.912 685.315 359.612C684.007 359.132 683.539 358.592 683.539 357.728C683.539 356.816 684.283 355.964 685.783 355.964C686.479 355.964 687.007 356.06 687.295 356.204C687.355 356.24 687.367 356.288 687.367 356.348V357.404C687.367 357.464 687.331 357.5 687.259 357.476ZM688.764 361.892V356.168C688.764 356.108 688.8 356.084 688.86 356.084H690.132C690.204 356.084 690.228 356.096 690.228 356.168V361.904C690.228 361.976 690.204 362 690.12 362H688.884C688.8 362 688.764 361.964 688.764 361.892ZM689.496 355.28C689.004 355.28 688.68 354.944 688.68 354.452C688.68 353.96 689.028 353.624 689.508 353.624C690.024 353.624 690.324 353.972 690.324 354.452C690.324 354.944 690 355.28 689.496 355.28ZM695.169 357.476C694.797 357.272 694.197 357.128 693.669 357.128C693.033 357.128 692.817 357.392 692.817 357.644C692.817 357.908 692.997 358.088 693.765 358.388C695.133 358.892 695.601 359.432 695.601 360.284C695.601 361.412 694.713 362.12 693.237 362.12C692.529 362.12 691.905 361.988 691.545 361.784C691.485 361.748 691.461 361.724 691.461 361.652V360.512C691.461 360.452 691.509 360.428 691.557 360.452C692.073 360.788 692.733 360.932 693.273 360.932C693.897 360.932 694.197 360.716 694.197 360.404C694.197 360.104 693.969 359.912 693.225 359.612C691.917 359.132 691.449 358.592 691.449 357.728C691.449 356.816 692.193 355.964 693.693 355.964C694.389 355.964 694.917 356.06 695.205 356.204C695.265 356.24 695.277 356.288 695.277 356.348V357.404C695.277 357.464 695.241 357.5 695.169 357.476ZM699.575 360.944V361.808C699.575 361.88 699.563 361.928 699.503 361.952C699.179 362.072 698.879 362.12 698.483 362.12C697.499 362.12 696.911 361.64 696.911 360.452V357.296H696.155C696.095 357.284 696.071 357.26 696.071 357.188V356.18C696.071 356.108 696.095 356.084 696.167 356.084H696.923C696.935 355.664 696.983 354.908 697.043 354.608C697.055 354.548 697.079 354.512 697.139 354.5L698.351 354.332C698.411 354.32 698.435 354.332 698.435 354.392C698.399 354.788 698.375 355.496 698.375 356.084H699.539C699.599 356.084 699.623 356.108 699.623 356.168V357.212C699.623 357.272 699.599 357.296 699.539 357.296H698.363V360.14C698.363 360.668 698.531 360.92 699.047 360.92C699.203 360.92 699.335 360.908 699.503 360.872C699.539 360.86 699.575 360.872 699.575 360.944ZM704.093 359.372H701.657C701.693 360.212 702.245 360.884 703.469 360.884C704.009 360.884 704.501 360.788 704.957 360.596C704.993 360.572 705.029 360.584 705.029 360.644V361.64C705.029 361.712 705.005 361.748 704.957 361.772C704.501 361.988 703.973 362.12 703.157 362.12C700.973 362.12 700.193 360.584 700.193 359.108C700.193 357.44 701.201 355.964 703.013 355.964C704.789 355.964 705.473 357.356 705.473 358.496C705.473 358.832 705.461 359.108 705.425 359.24C705.413 359.288 705.389 359.312 705.329 359.324C705.161 359.36 704.681 359.372 704.093 359.372ZM701.657 358.34H703.445C703.901 358.34 704.057 358.34 704.105 358.328C704.105 358.292 704.105 358.244 704.105 358.232C704.105 357.884 703.865 357.116 702.953 357.116C702.125 357.116 701.753 357.752 701.657 358.34ZM706.588 361.904V357.464C706.588 357.056 706.564 356.408 706.54 356.168C706.54 356.108 706.552 356.084 706.624 356.084H707.716C707.8 356.084 707.836 356.108 707.86 356.168C707.896 356.276 707.92 356.432 707.944 356.624C708.46 356.192 709.036 355.964 709.684 355.964C710.584 355.964 711.688 356.42 711.688 358.34V361.892C711.688 361.976 711.652 362 711.592 362H710.344C710.272 362 710.236 361.964 710.236 361.892V358.472C710.236 357.68 709.9 357.224 709.204 357.224C708.724 357.224 708.328 357.404 708.04 357.716V361.904C708.04 361.964 708.004 362 707.944 362H706.684C706.612 362 706.588 361.964 706.588 361.904ZM715.993 360.944V361.808C715.993 361.88 715.981 361.928 715.921 361.952C715.597 362.072 715.297 362.12 714.901 362.12C713.917 362.12 713.329 361.64 713.329 360.452V357.296H712.573C712.513 357.284 712.489 357.26 712.489 357.188V356.18C712.489 356.108 712.513 356.084 712.585 356.084H713.341C713.353 355.664 713.401 354.908 713.461 354.608C713.473 354.548 713.497 354.512 713.557 354.5L714.769 354.332C714.829 354.32 714.853 354.332 714.853 354.392C714.817 354.788 714.793 355.496 714.793 356.084H715.957C716.017 356.084 716.041 356.108 716.041 356.168V357.212C716.041 357.272 716.017 357.296 715.957 357.296H714.781V360.14C714.781 360.668 714.949 360.92 715.465 360.92C715.621 360.92 715.753 360.908 715.921 360.872C715.957 360.86 715.993 360.872 715.993 360.944ZM721.309 354.212V361.892C721.309 361.976 721.285 362 721.213 362H719.953C719.881 362 719.857 361.964 719.857 361.892V354.212C719.857 354.128 719.893 354.116 719.953 354.116H721.213C721.285 354.116 721.309 354.14 721.309 354.212ZM723.091 361.892V354.224C723.091 354.164 723.103 354.14 723.175 354.128C723.523 354.116 724.339 354.092 725.443 354.092C728.263 354.092 729.679 355.688 729.679 357.92C729.679 360.848 727.447 362.024 725.419 362.024C724.663 362.024 723.559 362.024 723.175 362C723.127 362 723.091 361.964 723.091 361.892ZM724.543 355.376V360.752C724.783 360.764 725.047 360.764 725.359 360.764C727.051 360.764 728.191 359.78 728.191 357.956C728.191 356.216 727.051 355.352 725.431 355.352C725.095 355.352 724.831 355.364 724.543 355.376Z" fill="#464646"/>
<g filter="url(#filter7_d_61_2)">
<path d="M780 355C780 348.373 774.627 343 768 343C761.373 343 756 348.373 756 355C756 361.627 761.373 367 768 367C774.627 367 780 361.627 780 355Z" fill="white"/>
<path d="M779 355C779 348.925 774.075 344 768 344C761.925 344 757 348.925 757 355C757 361.075 761.925 366 768 366C774.075 366 779 361.075 779 355Z" stroke="#464646" stroke-width="2" stroke-dasharray="3 3"/>
</g>
<path d="M788.52 361.892V355.424H786.084C786.024 355.424 786 355.388 786.012 355.328L786.168 354.212C786.18 354.14 786.204 354.116 786.276 354.116H792.24C792.312 354.116 792.348 354.14 792.36 354.224L792.468 355.316C792.48 355.388 792.444 355.424 792.384 355.424H789.96V361.892C789.96 361.964 789.924 362 789.864 362H788.628C788.544 362.012 788.52 361.976 788.52 361.892ZM792.475 356.084H793.603C793.675 356.084 793.711 356.108 793.735 356.18C793.795 356.336 793.843 356.636 793.855 356.9C794.263 356.396 794.947 355.964 795.775 355.964C795.847 355.964 795.871 355.976 795.871 356.048V357.32C795.871 357.38 795.847 357.404 795.763 357.404C794.911 357.38 794.203 357.68 793.927 358.04V361.904C793.927 361.976 793.891 362 793.819 362H792.571C792.487 362 792.463 361.964 792.463 361.904V357.764C792.463 357.248 792.451 356.552 792.403 356.156C792.403 356.096 792.415 356.084 792.475 356.084ZM799.624 360.836V359.36C799.444 359.336 799.24 359.324 798.964 359.324C798.016 359.324 797.596 359.636 797.596 360.152C797.596 360.596 797.908 360.98 798.772 360.98C799.084 360.98 799.36 360.944 799.624 360.836ZM801.028 358.34V360.776C801.028 361.04 801.028 361.28 801.052 361.532C801.052 361.556 801.052 361.568 801.028 361.58C800.044 362 799.348 362.12 798.532 362.12C797.224 362.12 796.18 361.508 796.18 360.152C796.18 358.88 797.32 358.244 798.88 358.244C799.24 358.244 799.516 358.256 799.624 358.268V358.124C799.624 357.848 799.468 357.224 798.412 357.224C797.812 357.224 797.284 357.344 796.84 357.56C796.804 357.572 796.744 357.56 796.744 357.488V356.444C796.744 356.384 796.756 356.36 796.816 356.324C797.332 356.084 797.992 355.964 798.64 355.964C800.308 355.964 801.028 357.008 801.028 358.34ZM802.541 361.904V357.464C802.541 357.056 802.517 356.408 802.493 356.168C802.493 356.108 802.505 356.084 802.577 356.084H803.669C803.753 356.084 803.789 356.108 803.813 356.168C803.849 356.276 803.873 356.432 803.897 356.624C804.413 356.192 804.989 355.964 805.637 355.964C806.537 355.964 807.641 356.42 807.641 358.34V361.892C807.641 361.976 807.605 362 807.545 362H806.297C806.225 362 806.189 361.964 806.189 361.892V358.472C806.189 357.68 805.853 357.224 805.157 357.224C804.677 357.224 804.281 357.404 803.993 357.716V361.904C803.993 361.964 803.957 362 803.897 362H802.637C802.565 362 802.541 361.964 802.541 361.904ZM812.521 357.476C812.149 357.272 811.549 357.128 811.021 357.128C810.385 357.128 810.169 357.392 810.169 357.644C810.169 357.908 810.349 358.088 811.117 358.388C812.485 358.892 812.953 359.432 812.953 360.284C812.953 361.412 812.065 362.12 810.589 362.12C809.881 362.12 809.257 361.988 808.897 361.784C808.837 361.748 808.813 361.724 808.813 361.652V360.512C808.813 360.452 808.861 360.428 808.909 360.452C809.425 360.788 810.085 360.932 810.625 360.932C811.249 360.932 811.549 360.716 811.549 360.404C811.549 360.104 811.321 359.912 810.577 359.612C809.269 359.132 808.801 358.592 808.801 357.728C808.801 356.816 809.545 355.964 811.045 355.964C811.741 355.964 812.269 356.06 812.557 356.204C812.617 356.24 812.629 356.288 812.629 356.348V357.404C812.629 357.464 812.593 357.5 812.521 357.476ZM814.026 361.892V356.168C814.026 356.108 814.062 356.084 814.122 356.084H815.394C815.466 356.084 815.49 356.096 815.49 356.168V361.904C815.49 361.976 815.466 362 815.382 362H814.146C814.062 362 814.026 361.964 814.026 361.892ZM814.758 355.28C814.266 355.28 813.942 354.944 813.942 354.452C813.942 353.96 814.29 353.624 814.77 353.624C815.286 353.624 815.586 353.972 815.586 354.452C815.586 354.944 815.262 355.28 814.758 355.28ZM820.53 359.372H818.094C818.13 360.212 818.682 360.884 819.906 360.884C820.446 360.884 820.938 360.788 821.394 360.596C821.43 360.572 821.466 360.584 821.466 360.644V361.64C821.466 361.712 821.442 361.748 821.394 361.772C820.938 361.988 820.41 362.12 819.594 362.12C817.41 362.12 816.63 360.584 816.63 359.108C816.63 357.44 817.638 355.964 819.45 355.964C821.226 355.964 821.91 357.356 821.91 358.496C821.91 358.832 821.898 359.108 821.862 359.24C821.85 359.288 821.826 359.312 821.766 359.324C821.598 359.36 821.118 359.372 820.53 359.372ZM818.094 358.34H819.882C820.338 358.34 820.494 358.34 820.542 358.328C820.542 358.292 820.542 358.244 820.542 358.232C820.542 357.884 820.302 357.116 819.39 357.116C818.562 357.116 818.19 357.752 818.094 358.34ZM823.026 361.904V357.464C823.026 357.056 823.002 356.408 822.978 356.168C822.978 356.108 822.99 356.084 823.062 356.084H824.154C824.238 356.084 824.274 356.108 824.298 356.168C824.334 356.276 824.358 356.432 824.382 356.624C824.898 356.192 825.474 355.964 826.122 355.964C827.022 355.964 828.126 356.42 828.126 358.34V361.892C828.126 361.976 828.09 362 828.03 362H826.782C826.71 362 826.674 361.964 826.674 361.892V358.472C826.674 357.68 826.338 357.224 825.642 357.224C825.162 357.224 824.766 357.404 824.478 357.716V361.904C824.478 361.964 824.442 362 824.382 362H823.122C823.05 362 823.026 361.964 823.026 361.904ZM832.431 360.944V361.808C832.431 361.88 832.419 361.928 832.359 361.952C832.035 362.072 831.735 362.12 831.339 362.12C830.355 362.12 829.767 361.64 829.767 360.452V357.296H829.011C828.951 357.284 828.927 357.26 828.927 357.188V356.18C828.927 356.108 828.951 356.084 829.023 356.084H829.779C829.791 355.664 829.839 354.908 829.899 354.608C829.911 354.548 829.935 354.512 829.995 354.5L831.207 354.332C831.267 354.32 831.291 354.332 831.291 354.392C831.255 354.788 831.231 355.496 831.231 356.084H832.395C832.455 356.084 832.479 356.108 832.479 356.168V357.212C832.479 357.272 832.455 357.296 832.395 357.296H831.219V360.14C831.219 360.668 831.387 360.92 831.903 360.92C832.059 360.92 832.191 360.908 832.359 360.872C832.395 360.86 832.431 360.872 832.431 360.944ZM837.746 354.212V361.892C837.746 361.976 837.722 362 837.65 362H836.39C836.318 362 836.294 361.964 836.294 361.892V354.212C836.294 354.128 836.33 354.116 836.39 354.116H837.65C837.722 354.116 837.746 354.14 837.746 354.212ZM839.529 361.892V354.224C839.529 354.164 839.541 354.14 839.613 354.128C839.961 354.116 840.777 354.092 841.881 354.092C844.701 354.092 846.117 355.688 846.117 357.92C846.117 360.848 843.885 362.024 841.857 362.024C841.101 362.024 839.997 362.024 839.613 362C839.565 362 839.529 361.964 839.529 361.892ZM840.981 355.376V360.752C841.221 360.764 841.485 360.764 841.797 360.764C843.489 360.764 844.629 359.78 844.629 357.956C844.629 356.216 843.489 355.352 841.869 355.352C841.533 355.352 841.269 355.364 840.981 355.376Z" fill="#464646"/>
<g filter="url(#filter8_d_61_2)">
<path d="M890 355C890 348.373 884.627 343 878 343C871.373 343 866 348.373 866 355C866 361.627 871.373 367 878 367C884.627 367 890 361.627 890 355Z" fill="white"/>
<path d="M887.5 355C887.5 349.753 883.247 345.5 878 345.5C872.753 345.5 868.5 349.753 868.5 355C868.5 360.247 872.753 364.5 878 364.5C883.247 364.5 887.5 360.247 887.5 355Z" stroke="#464646" stroke-width="5"/>
</g>
<path d="M898.232 354.212V358.94C898.232 360.08 898.784 360.836 899.936 360.836C900.884 360.836 901.592 360.38 901.592 358.916V354.224C901.592 354.152 901.616 354.116 901.688 354.116H902.948C903.02 354.116 903.044 354.152 903.044 354.212V358.988C903.044 361.232 901.664 362.12 899.888 362.12C897.992 362.12 896.78 361.112 896.78 359.048V354.224C896.78 354.152 896.792 354.116 896.876 354.116H898.136C898.208 354.116 898.232 354.14 898.232 354.212ZM906.88 355.964C908.86 355.964 909.844 357.308 909.844 358.844C909.844 361.04 908.068 362.12 906.256 362.12C906.124 362.12 906.004 362.108 905.896 362.096V364.256C905.896 364.304 905.884 364.34 905.812 364.352C905.392 364.4 904.588 364.472 904.528 364.472C904.456 364.472 904.444 364.46 904.444 364.4V357.212C904.444 357.068 904.432 356.672 904.408 356.504C904.408 356.492 904.408 356.456 904.456 356.444C904.996 356.264 905.836 355.964 906.88 355.964ZM906.748 357.2C906.424 357.2 906.16 357.236 905.896 357.32V360.86C906.028 360.896 906.22 360.896 906.376 360.896C907.312 360.896 908.356 360.344 908.356 358.94C908.356 357.848 907.768 357.2 906.748 357.2ZM913.753 362.12C912.013 362.12 910.681 361.112 910.681 359.096C910.681 357.356 911.977 355.964 914.089 355.964C914.257 355.964 914.401 355.976 914.605 356V353.54C914.605 353.48 914.629 353.456 914.677 353.456H915.985C916.045 353.456 916.045 353.48 916.045 353.528V360.776C916.045 361.016 916.069 361.328 916.093 361.544C916.093 361.604 916.081 361.628 916.021 361.652C915.241 361.988 914.473 362.12 913.753 362.12ZM914.605 360.776V357.26C914.449 357.2 914.257 357.176 914.041 357.176C912.973 357.176 912.169 357.86 912.169 359.024C912.169 360.332 912.949 360.872 913.909 360.872C914.149 360.872 914.389 360.848 914.605 360.776ZM920.651 360.836V359.36C920.471 359.336 920.267 359.324 919.991 359.324C919.043 359.324 918.623 359.636 918.623 360.152C918.623 360.596 918.935 360.98 919.799 360.98C920.111 360.98 920.387 360.944 920.651 360.836ZM922.055 358.34V360.776C922.055 361.04 922.055 361.28 922.079 361.532C922.079 361.556 922.079 361.568 922.055 361.58C921.071 362 920.375 362.12 919.559 362.12C918.251 362.12 917.207 361.508 917.207 360.152C917.207 358.88 918.347 358.244 919.907 358.244C920.267 358.244 920.543 358.256 920.651 358.268V358.124C920.651 357.848 920.495 357.224 919.439 357.224C918.839 357.224 918.311 357.344 917.867 357.56C917.831 357.572 917.771 357.56 917.771 357.488V356.444C917.771 356.384 917.783 356.36 917.843 356.324C918.359 356.084 919.019 355.964 919.667 355.964C921.335 355.964 922.055 357.008 922.055 358.34ZM926.306 360.944V361.808C926.306 361.88 926.294 361.928 926.234 361.952C925.91 362.072 925.61 362.12 925.214 362.12C924.23 362.12 923.642 361.64 923.642 360.452V357.296H922.886C922.826 357.284 922.802 357.26 922.802 357.188V356.18C922.802 356.108 922.826 356.084 922.898 356.084H923.654C923.666 355.664 923.714 354.908 923.774 354.608C923.786 354.548 923.81 354.512 923.87 354.5L925.082 354.332C925.142 354.32 925.166 354.332 925.166 354.392C925.13 354.788 925.106 355.496 925.106 356.084H926.27C926.33 356.084 926.354 356.108 926.354 356.168V357.212C926.354 357.272 926.33 357.296 926.27 357.296H925.094V360.14C925.094 360.668 925.262 360.92 925.778 360.92C925.934 360.92 926.066 360.908 926.234 360.872C926.27 360.86 926.306 360.872 926.306 360.944ZM930.823 359.372H928.387C928.423 360.212 928.975 360.884 930.199 360.884C930.739 360.884 931.231 360.788 931.687 360.596C931.723 360.572 931.759 360.584 931.759 360.644V361.64C931.759 361.712 931.735 361.748 931.687 361.772C931.231 361.988 930.703 362.12 929.887 362.12C927.703 362.12 926.923 360.584 926.923 359.108C926.923 357.44 927.931 355.964 929.743 355.964C931.519 355.964 932.203 357.356 932.203 358.496C932.203 358.832 932.191 359.108 932.155 359.24C932.143 359.288 932.119 359.312 932.059 359.324C931.891 359.36 931.411 359.372 930.823 359.372ZM928.387 358.34H930.175C930.631 358.34 930.787 358.34 930.835 358.328C930.835 358.292 930.835 358.244 930.835 358.232C930.835 357.884 930.595 357.116 929.683 357.116C928.855 357.116 928.483 357.752 928.387 358.34ZM936.101 362.12C934.361 362.12 933.029 361.112 933.029 359.096C933.029 357.356 934.325 355.964 936.437 355.964C936.605 355.964 936.749 355.976 936.953 356V353.54C936.953 353.48 936.977 353.456 937.025 353.456H938.333C938.393 353.456 938.393 353.48 938.393 353.528V360.776C938.393 361.016 938.417 361.328 938.441 361.544C938.441 361.604 938.429 361.628 938.369 361.652C937.589 361.988 936.821 362.12 936.101 362.12ZM936.953 360.776V357.26C936.797 357.2 936.605 357.176 936.389 357.176C935.321 357.176 934.517 357.86 934.517 359.024C934.517 360.332 935.297 360.872 936.257 360.872C936.497 360.872 936.737 360.848 936.953 360.776ZM944.422 361.892V355.424H941.986C941.926 355.424 941.902 355.388 941.914 355.328L942.07 354.212C942.082 354.14 942.106 354.116 942.178 354.116H948.142C948.214 354.116 948.25 354.14 948.262 354.224L948.37 355.316C948.382 355.388 948.346 355.424 948.286 355.424H945.862V361.892C945.862 361.964 945.826 362 945.766 362H944.53C944.446 362.012 944.422 361.976 944.422 361.892ZM948.377 356.084H949.505C949.577 356.084 949.613 356.108 949.637 356.18C949.697 356.336 949.745 356.636 949.757 356.9C950.165 356.396 950.849 355.964 951.677 355.964C951.749 355.964 951.773 355.976 951.773 356.048V357.32C951.773 357.38 951.749 357.404 951.665 357.404C950.813 357.38 950.105 357.68 949.829 358.04V361.904C949.829 361.976 949.793 362 949.721 362H948.473C948.389 362 948.365 361.964 948.365 361.904V357.764C948.365 357.248 948.353 356.552 948.305 356.156C948.305 356.096 948.317 356.084 948.377 356.084ZM955.526 360.836V359.36C955.346 359.336 955.142 359.324 954.866 359.324C953.918 359.324 953.498 359.636 953.498 360.152C953.498 360.596 953.81 360.98 954.674 360.98C954.986 360.98 955.262 360.944 955.526 360.836ZM956.93 358.34V360.776C956.93 361.04 956.93 361.28 956.954 361.532C956.954 361.556 956.954 361.568 956.93 361.58C955.946 362 955.25 362.12 954.434 362.12C953.126 362.12 952.082 361.508 952.082 360.152C952.082 358.88 953.222 358.244 954.782 358.244C955.142 358.244 955.418 358.256 955.526 358.268V358.124C955.526 357.848 955.37 357.224 954.314 357.224C953.714 357.224 953.186 357.344 952.742 357.56C952.706 357.572 952.646 357.56 952.646 357.488V356.444C952.646 356.384 952.658 356.36 952.718 356.324C953.234 356.084 953.894 355.964 954.542 355.964C956.21 355.964 956.93 357.008 956.93 358.34ZM958.444 361.904V357.464C958.444 357.056 958.42 356.408 958.396 356.168C958.396 356.108 958.408 356.084 958.479 356.084H959.572C959.656 356.084 959.692 356.108 959.716 356.168C959.752 356.276 959.776 356.432 959.8 356.624C960.316 356.192 960.892 355.964 961.54 355.964C962.44 355.964 963.544 356.42 963.544 358.34V361.892C963.544 361.976 963.508 362 963.448 362H962.2C962.128 362 962.092 361.964 962.092 361.892V358.472C962.092 357.68 961.756 357.224 961.06 357.224C960.58 357.224 960.184 357.404 959.896 357.716V361.904C959.896 361.964 959.86 362 959.8 362H958.54C958.468 362 958.444 361.964 958.444 361.904ZM968.423 357.476C968.051 357.272 967.451 357.128 966.923 357.128C966.287 357.128 966.071 357.392 966.071 357.644C966.071 357.908 966.251 358.088 967.019 358.388C968.387 358.892 968.855 359.432 968.855 360.284C968.855 361.412 967.967 362.12 966.491 362.12C965.783 362.12 965.159 361.988 964.799 361.784C964.739 361.748 964.715 361.724 964.715 361.652V360.512C964.715 360.452 964.763 360.428 964.811 360.452C965.327 360.788 965.987 360.932 966.527 360.932C967.151 360.932 967.451 360.716 967.451 360.404C967.451 360.104 967.223 359.912 966.479 359.612C965.171 359.132 964.703 358.592 964.703 357.728C964.703 356.816 965.447 355.964 966.947 355.964C967.643 355.964 968.171 356.06 968.459 356.204C968.519 356.24 968.531 356.288 968.531 356.348V357.404C968.531 357.464 968.495 357.5 968.423 357.476ZM969.928 361.892V356.168C969.928 356.108 969.964 356.084 970.024 356.084H971.296C971.368 356.084 971.392 356.096 971.392 356.168V361.904C971.392 361.976 971.368 362 971.284 362H970.048C969.964 362 969.928 361.964 969.928 361.892ZM970.66 355.28C970.168 355.28 969.844 354.944 969.844 354.452C969.844 353.96 970.192 353.624 970.672 353.624C971.188 353.624 971.488 353.972 971.488 354.452C971.488 354.944 971.164 355.28 970.66 355.28ZM976.432 359.372H973.996C974.032 360.212 974.584 360.884 975.808 360.884C976.348 360.884 976.84 360.788 977.296 360.596C977.332 360.572 977.368 360.584 977.368 360.644V361.64C977.368 361.712 977.344 361.748 977.296 361.772C976.84 361.988 976.312 362.12 975.496 362.12C973.312 362.12 972.532 360.584 972.532 359.108C972.532 357.44 973.54 355.964 975.352 355.964C977.128 355.964 977.812 357.356 977.812 358.496C977.812 358.832 977.8 359.108 977.764 359.24C977.752 359.288 977.728 359.312 977.668 359.324C977.5 359.36 977.02 359.372 976.432 359.372ZM973.996 358.34H975.784C976.24 358.34 976.396 358.34 976.444 358.328C976.444 358.292 976.444 358.244 976.444 358.232C976.444 357.884 976.204 357.116 975.292 357.116C974.464 357.116 974.092 357.752 973.996 358.34ZM978.928 361.904V357.464C978.928 357.056 978.904 356.408 978.88 356.168C978.88 356.108 978.892 356.084 978.964 356.084H980.056C980.14 356.084 980.176 356.108 980.2 356.168C980.236 356.276 980.26 356.432 980.284 356.624C980.8 356.192 981.376 355.964 982.024 355.964C982.924 355.964 984.028 356.42 984.028 358.34V361.892C984.028 361.976 983.992 362 983.932 362H982.684C982.612 362 982.576 361.964 982.576 361.892V358.472C982.576 357.68 982.24 357.224 981.544 357.224C981.064 357.224 980.668 357.404 980.38 357.716V361.904C980.38 361.964 980.344 362 980.284 362H979.024C978.952 362 978.928 361.964 978.928 361.904ZM988.333 360.944V361.808C988.333 361.88 988.321 361.928 988.261 361.952C987.937 362.072 987.637 362.12 987.241 362.12C986.257 362.12 985.669 361.64 985.669 360.452V357.296H984.913C984.853 357.284 984.829 357.26 984.829 357.188V356.18C984.829 356.108 984.853 356.084 984.925 356.084H985.681C985.693 355.664 985.741 354.908 985.801 354.608C985.813 354.548 985.837 354.512 985.897 354.5L987.109 354.332C987.169 354.32 987.193 354.332 987.193 354.392C987.157 354.788 987.133 355.496 987.133 356.084H988.297C988.357 356.084 988.381 356.108 988.381 356.168V357.212C988.381 357.272 988.357 357.296 988.297 357.296H987.121V360.14C987.121 360.668 987.289 360.92 987.805 360.92C987.961 360.92 988.093 360.908 988.261 360.872C988.297 360.86 988.333 360.872 988.333 360.944ZM993.649 354.212V361.892C993.649 361.976 993.625 362 993.553 362H992.293C992.221 362 992.197 361.964 992.197 361.892V354.212C992.197 354.128 992.233 354.116 992.293 354.116H993.553C993.625 354.116 993.649 354.14 993.649 354.212ZM995.431 361.892V354.224C995.431 354.164 995.443 354.14 995.515 354.128C995.863 354.116 996.679 354.092 997.783 354.092C1000.6 354.092 1002.02 355.688 1002.02 357.92C1002.02 360.848 999.787 362.024 997.759 362.024C997.003 362.024 995.899 362.024 995.515 362C995.467 362 995.431 361.964 995.431 361.892ZM996.883 355.376V360.752C997.123 360.764 997.387 360.764 997.699 360.764C999.391 360.764 1000.53 359.78 1000.53 357.956C1000.53 356.216 999.391 355.352 997.771 355.352C997.435 355.352 997.171 355.364 996.883 355.376Z" fill="#464646"/>
</g>
</g>
<defs>
<filter id="filter0_d_61_2" x="41" y="20" width="58" height="58" filterUnits="userSpaceOnUse" color-interpolation-filters="sRGB">
<feFlood flood-opacity="0" result="BackgroundImageFix"/>
<feColorMatrix in="SourceAlpha" type="matrix" values="0 0 0 0 0 0 0 0 0 0 0 0 0 0 0 0 0 0 127 0" result="hardAlpha"/>
<feOffset dy="3"/>
<feGaussianBlur stdDeviation="4"/>
<feColorMatrix type="matrix" values="0 0 0 0 0 0 0 0 0 0 0 0 0 0 0 0 0 0 0.18 0"/>
<feBlend mode="normal" in2="BackgroundImageFix" result="effect1_dropShadow_61_2"/>
<feBlend mode="normal" in="SourceGraphic" in2="effect1_dropShadow_61_2" result="shape"/>
</filter>
<filter id="filter1_d_61_2" x="84" y="20" width="58" height="58" filterUnits="userSpaceOnUse" color-interpolation-filters="sRGB">
<feFlood flood-opacity="0" result="BackgroundImageFix"/>
<feColorMatrix in="SourceAlpha" type="matrix" values="0 0 0 0 0 0 0 0 0 0 0 0 0 0 0 0 0 0 127 0" result="hardAlpha"/>
<feOffset dy="3"/>
<feGaussianBlur stdDeviation="4"/>
<feColorMatrix type="matrix" values="0 0 0 0 0 0 0 0 0 0 0 0 0 0 0 0 0 0 0.18 0"/>
<feBlend mode="normal" in2="BackgroundImageFix" result="effect1_dropShadow_61_2"/>
<feBlend mode="normal" in="SourceGraphic" in2="effect1_dropShadow_61_2" result="shape"/>
</filter>
<filter id="filter2_d_61_2" x="778" y="28" width="58" height="58" filterUnits="userSpaceOnUse" color-interpolation-filters="sRGB">
<feFlood flood-opacity="0" result="BackgroundImageFix"/>
<feColorMatrix in="SourceAlpha" type="matrix" values="0 0 0 0 0 0 0 0 0 0 0 0 0 0 0 0 0 0 127 0" result="hardAlpha"/>
<feOffset dy="3"/>
<feGaussianBlur stdDeviation="4"/>
<feColorMatrix type="matrix" values="0 0 0 0 0 0 0 0 0 0 0 0 0 0 0 0 0 0 0.18 0"/>
<feBlend mode="normal" in2="BackgroundImageFix" result="effect1_dropShadow_61_2"/>
<feBlend mode="normal" in="SourceGraphic" in2="effect1_dropShadow_61_2" result="shape"/>
</filter>
<filter id="filter3_d_61_2" x="821" y="28" width="58" height="58" filterUnits="userSpaceOnUse" color-interpolation-filters="sRGB">
<feFlood flood-opacity="0" result="BackgroundImageFix"/>
<feColorMatrix in="SourceAlpha" type="matrix" values="0 0 0 0 0 0 0 0 0 0 0 0 0 0 0 0 0 0 127 0" result="hardAlpha"/>
<feOffset dy="3"/>
<feGaussianBlur stdDeviation="4"/>
<feColorMatrix type="matrix" values="0 0 0 0 0 0 0 0 0 0 0 0 0 0 0 0 0 0 0.18 0"/>
<feBlend mode="normal" in2="BackgroundImageFix" result="effect1_dropShadow_61_2"/>
<feBlend mode="normal" in="SourceGraphic" in2="effect1_dropShadow_61_2" result="shape"/>
</filter>
<filter id="filter4_d_61_2" x="455" y="116" width="58" height="58" filterUnits="userSpaceOnUse" color-interpolation-filters="sRGB">
<feFlood flood-opacity="0" result="BackgroundImageFix"/>
<feColorMatrix in="SourceAlpha" type="matrix" values="0 0 0 0 0 0 0 0 0 0 0 0 0 0 0 0 0 0 127 0" result="hardAlpha"/>
<feOffset dy="3"/>
<feGaussianBlur stdDeviation="4"/>
<feColorMatrix type="matrix" values="0 0 0 0 0 0 0 0 0 0 0 0 0 0 0 0 0 0 0.18 0"/>
<feBlend mode="normal" in2="BackgroundImageFix" result="effect1_dropShadow_61_2"/>
<feBlend mode="normal" in="SourceGraphic" in2="effect1_dropShadow_61_2" result="shape"/>
</filter>
<filter id="filter5_d_61_2" x="498" y="116" width="58" height="58" filterUnits="userSpaceOnUse" color-interpolation-filters="sRGB">
<feFlood flood-opacity="0" result="BackgroundImageFix"/>
<feColorMatrix in="SourceAlpha" type="matrix" values="0 0 0 0 0 0 0 0 0 0 0 0 0 0 0 0 0 0 127 0" result="hardAlpha"/>
<feOffset dy="3"/>
<feGaussianBlur stdDeviation="4"/>
<feColorMatrix type="matrix" values="0 0 0 0 0 0 0 0 0 0 0 0 0 0 0 0 0 0 0.18 0"/>
<feBlend mode="normal" in2="BackgroundImageFix" result="effect1_dropShadow_61_2"/>
<feBlend mode="normal" in="SourceGraphic" in2="effect1_dropShadow_61_2" result="shape"/>
</filter>
<filter id="filter6_d_61_2" x="628" y="338" width="40" height="40" filterUnits="userSpaceOnUse" color-interpolation-filters="sRGB">
<feFlood flood-opacity="0" result="BackgroundImageFix"/>
<feColorMatrix in="SourceAlpha" type="matrix" values="0 0 0 0 0 0 0 0 0 0 0 0 0 0 0 0 0 0 127 0" result="hardAlpha"/>
<feOffset dy="3"/>
<feGaussianBlur stdDeviation="4"/>
<feColorMatrix type="matrix" values="0 0 0 0 0 0 0 0 0 0 0 0 0 0 0 0 0 0 0.18 0"/>
<feBlend mode="normal" in2="BackgroundImageFix" result="effect1_dropShadow_61_2"/>
<feBlend mode="normal" in="SourceGraphic" in2="effect1_dropShadow_61_2" result="shape"/>
</filter>
<filter id="filter7_d_61_2" x="748" y="338" width="40" height="40" filterUnits="userSpaceOnUse" color-interpolation-filters="sRGB">
<feFlood flood-opacity="0" result="BackgroundImageFix"/>
<feColorMatrix in="SourceAlpha" type="matrix" values="0 0 0 0 0 0 0 0 0 0 0 0 0 0 0 0 0 0 127 0" result="hardAlpha"/>
<feOffset dy="3"/>
<feGaussianBlur stdDeviation="4"/>
<feColorMatrix type="matrix" values="0 0 0 0 0 0 0 0 0 0 0 0 0 0 0 0 0 0 0.18 0"/>
<feBlend mode="normal" in2="BackgroundImageFix" result="effect1_dropShadow_61_2"/>
<feBlend mode="normal" in="SourceGraphic" in2="effect1_dropShadow_61_2" result="shape"/>
</filter>
<filter id="filter8_d_61_2" x="858" y="338" width="40" height="40" filterUnits="userSpaceOnUse" color-interpolation-filters="sRGB">
<feFlood flood-opacity="0" result="BackgroundImageFix"/>
<feColorMatrix in="SourceAlpha" type="matrix" values="0 0 0 0 0 0 0 0 0 0 0 0 0 0 0 0 0 0 127 0" result="hardAlpha"/>
<feOffset dy="3"/>
<feGaussianBlur stdDeviation="4"/>
<feColorMatrix type="matrix" values="0 0 0 0 0 0 0 0 0 0 0 0 0 0 0 0 0 0 0.18 0"/>
<feBlend mode="normal" in2="BackgroundImageFix" result="effect1_dropShadow_61_2"/>
<feBlend mode="normal" in="SourceGraphic" in2="effect1_dropShadow_61_2" result="shape"/>
</filter>
<clipPath id="clip0_61_2">
<rect width="1024" height="378" fill="white"/>
</clipPath>
</defs>
</svg>
